<svg xmlns="http://www.w3.org/2000/svg" viewBox="0 0 200 200" width="200" height="200"><g fill="none" stroke="#1a1a1a" stroke-width="2.5" stroke-linecap="round" stroke-linejoin="round">
    <path d="M40 190 V120 Q40 95 65 90 L65 75 Q75 60 95 65 Q120 60 130 80 Q160 85 165 110 L165 190 H140 V160 H65 V190 Z"/>
    <path d="M65 90 Q45 88 38 70 Q55 78 68 80 Z"/>
    <circle cx="80" cy="78" r="3.5" fill="#1a1a1a"/>
    <path d="M55 100 q-12 2 -14 12 q10 2 16 -4 Z"/>
    <line x1="77" y1="94" x2="80.2139380484327" y2="97.83022221559489" stroke-width="0.6"/><line x1="86" y1="94" x2="89.2139380484327" y2="97.83022221559489" stroke-width="0.6"/><line x1="95" y1="94" x2="98.2139380484327" y2="97.83022221559489" stroke-width="0.6"/><line x1="104" y1="94" x2="107.2139380484327" y2="97.83022221559489" stroke-width="0.6"/><line x1="113" y1="94" x2="116.2139380484327" y2="97.83022221559489" stroke-width="0.6"/><line x1="122" y1="94" x2="125.2139380484327" y2="97.83022221559489" stroke-width="0.6"/><line x1="131" y1="94" x2="134.2139380484327" y2="97.83022221559489" stroke-width="0.6"/><line x1="140" y1="94" x2="143.2139380484327" y2="97.83022221559489" stroke-width="0.6"/><line x1="59" y1="103" x2="62.213938048432695" y2="106.83022221559489" stroke-width="0.6"/><line x1="68" y1="103" x2="71.2139380484327" y2="106.83022221559489" stroke-width="0.6"/><line x1="77" y1="103" x2="80.2139380484327" y2="106.83022221559489" stroke-width="0.6"/><line x1="86" y1="103" x2="89.2139380484327" y2="106.83022221559489" stroke-width="0.6"/><line x1="95" y1="103" x2="98.2139380484327" y2="106.83022221559489" stroke-width="0.6"/><line x1="104" y1="103" x2="107.2139380484327" y2="106.83022221559489" stroke-width="0.6"/><line x1="113" y1="103" x2="116.2139380484327" y2="106.83022221559489" stroke-width="0.6"/><line x1="122" y1="103" x2="125.2139380484327" y2="106.83022221559489" stroke-width="0.6"/><line x1="131" y1="103" x2="134.2139380484327" y2="106.83022221559489" stroke-width="0.6"/><line x1="140" y1="103" x2="143.2139380484327" y2="106.83022221559489" stroke-width="0.6"/><line x1="149" y1="103" x2="152.2139380484327" y2="106.83022221559489" stroke-width="0.6"/><line x1="59" y1="112" x2="62.213938048432695" y2="115.83022221559489" stroke-width="0.6"/><line x1="68" y1="112" x2="71.2139380484327" y2="115.83022221559489" stroke-width="0.6"/><line x1="77" y1="112" x2="80.2139380484327" y2="115.83022221559489" stroke-width="0.6"/><line x1="86" y1="112" x2="89.2139380484327" y2="115.83022221559489" stroke-width="0.6"/><line x1="95" y1="112" x2="98.2139380484327" y2="115.83022221559489" stroke-width="0.6"/><line x1="104" y1="112" x2="107.2139380484327" y2="115.83022221559489" stroke-width="0.6"/><line x1="113" y1="112" x2="116.2139380484327" y2="115.83022221559489" stroke-width="0.6"/><line x1="122" y1="112" x2="125.2139380484327" y2="115.83022221559489" stroke-width="0.6"/><line x1="131" y1="112" x2="134.2139380484327" y2="115.83022221559489" stroke-width="0.6"/><line x1="140" y1="112" x2="143.2139380484327" y2="115.83022221559489" stroke-width="0.6"/><line x1="149" y1="112" x2="152.2139380484327" y2="115.83022221559489" stroke-width="0.6"/><line x1="158" y1="112" x2="161.2139380484327" y2="115.83022221559489" stroke-width="0.6"/><line x1="59" y1="121" x2="62.213938048432695" y2="124.83022221559489" stroke-width="0.6"/><line x1="68" y1="121" x2="71.2139380484327" y2="124.83022221559489" stroke-width="0.6"/><line x1="77" y1="121" x2="80.2139380484327" y2="124.83022221559489" stroke-width="0.6"/><line x1="86" y1="121" x2="89.2139380484327" y2="124.83022221559489" stroke-width="0.6"/><line x1="95" y1="121" x2="98.2139380484327" y2="124.83022221559489" stroke-width="0.6"/><line x1="104" y1="121" x2="107.2139380484327" y2="124.83022221559489" stroke-width="0.6"/><line x1="113" y1="121" x2="116.2139380484327" y2="124.83022221559489" stroke-width="0.6"/><line x1="122" y1="121" x2="125.2139380484327" y2="124.83022221559489" stroke-width="0.6"/><line x1="131" y1="121" x2="134.2139380484327" y2="124.83022221559489" stroke-width="0.6"/><line x1="140" y1="121" x2="143.2139380484327" y2="124.83022221559489" stroke-width="0.6"/><line x1="149" y1="121" x2="152.2139380484327" y2="124.83022221559489" stroke-width="0.6"/><line x1="158" y1="121" x2="161.2139380484327" y2="124.83022221559489" stroke-width="0.6"/><line x1="59" y1="130" x2="62.213938048432695" y2="133.8302222155949" stroke-width="0.6"/><line x1="68" y1="130" x2="71.2139380484327" y2="133.8302222155949" stroke-width="0.6"/><line x1="77" y1="130" x2="80.2139380484327" y2="133.8302222155949" stroke-width="0.6"/><line x1="86" y1="130" x2="89.2139380484327" y2="133.8302222155949" stroke-width="0.6"/><line x1="95" y1="130" x2="98.2139380484327" y2="133.8302222155949" stroke-width="0.6"/><line x1="104" y1="130" x2="107.2139380484327" y2="133.8302222155949" stroke-width="0.6"/><line x1="113" y1="130" x2="116.2139380484327" y2="133.8302222155949" stroke-width="0.6"/><line x1="122" y1="130" x2="125.2139380484327" y2="133.8302222155949" stroke-width="0.6"/><line x1="131" y1="130" x2="134.2139380484327" y2="133.8302222155949" stroke-width="0.6"/><line x1="140" y1="130" x2="143.2139380484327" y2="133.8302222155949" stroke-width="0.6"/><line x1="149" y1="130" x2="152.2139380484327" y2="133.8302222155949" stroke-width="0.6"/><line x1="59" y1="139" x2="62.213938048432695" y2="142.8302222155949" stroke-width="0.6"/><line x1="68" y1="139" x2="71.2139380484327" y2="142.8302222155949" stroke-width="0.6"/><line x1="77" y1="139" x2="80.2139380484327" y2="142.8302222155949" stroke-width="0.6"/><line x1="86" y1="139" x2="89.2139380484327" y2="142.8302222155949" stroke-width="0.6"/><line x1="95" y1="139" x2="98.2139380484327" y2="142.8302222155949" stroke-width="0.6"/><line x1="104" y1="139" x2="107.2139380484327" y2="142.8302222155949" stroke-width="0.6"/><line x1="113" y1="139" x2="116.2139380484327" y2="142.8302222155949" stroke-width="0.6"/><line x1="122" y1="139" x2="125.2139380484327" y2="142.8302222155949" stroke-width="0.6"/><line x1="131" y1="139" x2="134.2139380484327" y2="142.8302222155949" stroke-width="0.6"/><line x1="140" y1="139" x2="143.2139380484327" y2="142.8302222155949" stroke-width="0.6"/><line x1="149" y1="139" x2="152.2139380484327" y2="142.8302222155949" stroke-width="0.6"/><line x1="77" y1="148" x2="80.2139380484327" y2="151.8302222155949" stroke-width="0.6"/><line x1="86" y1="148" x2="89.2139380484327" y2="151.8302222155949" stroke-width="0.6"/><line x1="95" y1="148" x2="98.2139380484327" y2="151.8302222155949" stroke-width="0.6"/><line x1="104" y1="148" x2="107.2139380484327" y2="151.8302222155949" stroke-width="0.6"/><line x1="113" y1="148" x2="116.2139380484327" y2="151.8302222155949" stroke-width="0.6"/><line x1="122" y1="148" x2="125.2139380484327" y2="151.8302222155949" stroke-width="0.6"/><line x1="131" y1="148" x2="134.2139380484327" y2="151.8302222155949" stroke-width="0.6"/>
    <line x1="57" y1="69" x2="59.57115043874616" y2="72.06417777247592" stroke-width="0.6"/><line x1="64" y1="69" x2="66.57115043874616" y2="72.06417777247592" stroke-width="0.6"/><line x1="71" y1="69" x2="73.57115043874616" y2="72.06417777247592" stroke-width="0.6"/><line x1="78" y1="69" x2="80.57115043874616" y2="72.06417777247592" stroke-width="0.6"/><line x1="85" y1="69" x2="87.57115043874616" y2="72.06417777247592" stroke-width="0.6"/><line x1="92" y1="69" x2="94.57115043874616" y2="72.06417777247592" stroke-width="0.6"/><line x1="57" y1="76" x2="59.57115043874616" y2="79.06417777247592" stroke-width="0.6"/><line x1="64" y1="76" x2="66.57115043874616" y2="79.06417777247592" stroke-width="0.6"/><line x1="71" y1="76" x2="73.57115043874616" y2="79.06417777247592" stroke-width="0.6"/><line x1="78" y1="76" x2="80.57115043874616" y2="79.06417777247592" stroke-width="0.6"/><line x1="85" y1="76" x2="87.57115043874616" y2="79.06417777247592" stroke-width="0.6"/><line x1="92" y1="76" x2="94.57115043874616" y2="79.06417777247592" stroke-width="0.6"/><line x1="99" y1="76" x2="101.57115043874616" y2="79.06417777247592" stroke-width="0.6"/><line x1="57" y1="83" x2="59.57115043874616" y2="86.06417777247592" stroke-width="0.6"/><line x1="64" y1="83" x2="66.57115043874616" y2="86.06417777247592" stroke-width="0.6"/><line x1="71" y1="83" x2="73.57115043874616" y2="86.06417777247592" stroke-width="0.6"/><line x1="78" y1="83" x2="80.57115043874616" y2="86.06417777247592" stroke-width="0.6"/><line x1="85" y1="83" x2="87.57115043874616" y2="86.06417777247592" stroke-width="0.6"/><line x1="92" y1="83" x2="94.57115043874616" y2="86.06417777247592" stroke-width="0.6"/><line x1="99" y1="83" x2="101.57115043874616" y2="86.06417777247592" stroke-width="0.6"/><line x1="57" y1="90" x2="59.57115043874616" y2="93.06417777247592" stroke-width="0.6"/><line x1="64" y1="90" x2="66.57115043874616" y2="93.06417777247592" stroke-width="0.6"/><line x1="71" y1="90" x2="73.57115043874616" y2="93.06417777247592" stroke-width="0.6"/><line x1="78" y1="90" x2="80.57115043874616" y2="93.06417777247592" stroke-width="0.6"/><line x1="85" y1="90" x2="87.57115043874616" y2="93.06417777247592" stroke-width="0.6"/><line x1="92" y1="90" x2="94.57115043874616" y2="93.06417777247592" stroke-width="0.6"/><line x1="71" y1="97" x2="73.57115043874616" y2="100.06417777247592" stroke-width="0.6"/><line x1="78" y1="97" x2="80.57115043874616" y2="100.06417777247592" stroke-width="0.6"/>
    <path d="M165 110 Q190 105 195 125 Q190 140 168 135" stroke-width="1.5"/>
    <path d="M65 160 V190 M85 160 V190 M120 160 V190 M140 160 V190" stroke-width="1.5"/>
    <line x1="0" y1="192" x2="200" y2="192" stroke-width="0.75"/><line x1="0" y1="196" x2="200" y2="196" stroke-width="0.75"/>
  </g></svg>