<svg xmlns="http://www.w3.org/2000/svg" viewBox="0 0 200 200" width="200" height="200"><g fill="none" stroke="#1a1a1a" stroke-width="2.5" stroke-linecap="round" stroke-linejoin="round">
    <circle cx="100" cy="108" r="65"/>
    <path d="M35 95 Q40 22 100 20 Q160 22 165 95 Q145 55 100 50 Q55 55 35 95 Z"/>
    <line x1="45" y1="20" x2="45" y2="58" stroke-width="0.6"/><line x1="57.22222222222222" y1="20" x2="57.22222222222222" y2="58" stroke-width="0.6"/><line x1="69.44444444444444" y1="20" x2="69.44444444444444" y2="58" stroke-width="0.6"/><line x1="81.66666666666666" y1="20" x2="81.66666666666666" y2="58" stroke-width="0.6"/><line x1="93.88888888888889" y1="20" x2="93.88888888888889" y2="58" stroke-width="0.6"/><line x1="106.11111111111111" y1="20" x2="106.11111111111111" y2="58" stroke-width="0.6"/><line x1="118.33333333333333" y1="20" x2="118.33333333333333" y2="58" stroke-width="0.6"/><line x1="130.55555555555554" y1="20" x2="130.55555555555554" y2="58" stroke-width="0.6"/><line x1="142.77777777777777" y1="20" x2="142.77777777777777" y2="58" stroke-width="0.6"/><line x1="155" y1="20" x2="155" y2="58" stroke-width="0.6"/>
    <path d="M55 92 Q66 78 84 90"/>
    <path d="M116 90 Q134 78 145 92"/>
    <path d="M66 100 Q78 86 92 100 Q78 114 66 100 Z" fill="#1a1a1a"/>
    <path d="M108 100 Q120 86 134 100 Q120 114 108 100 Z" fill="#1a1a1a"/>
    <path d="M62 96 l-9 -5 M138 96 l9 -5" stroke-width="1.2"/>
    <path d="M88 142 Q100 154 112 142"/>
    <line x1="58" y1="124" x2="80" y2="124" stroke-width="0.5"/><line x1="58" y1="126.66666666666667" x2="80" y2="126.66666666666667" stroke-width="0.5"/><line x1="58" y1="129.33333333333334" x2="80" y2="129.33333333333334" stroke-width="0.5"/><line x1="58" y1="132" x2="80" y2="132" stroke-width="0.5"/>
    <line x1="120" y1="124" x2="142" y2="124" stroke-width="0.5"/><line x1="120" y1="126.66666666666667" x2="142" y2="126.66666666666667" stroke-width="0.5"/><line x1="120" y1="129.33333333333334" x2="142" y2="129.33333333333334" stroke-width="0.5"/><line x1="120" y1="132" x2="142" y2="132" stroke-width="0.5"/>
  </g></svg>