<svg xmlns="http://www.w3.org/2000/svg" viewBox="0 0 200 200" width="200" height="200"><rect width="200" height="200" fill="#ffffff"/><g fill="none" stroke="#1a1a1a" stroke-width="2.5" stroke-linecap="round" stroke-linejoin="round">
    <path d="M60 122 q-6 -42 40 -47 q46 5 40 47 q0 38 -40 43 q-40 -5 -40 -43Z"/>
    <path d="M65 76 l-17 -29 l29 16Z"/>
    <path d="M69 73 l-10 -16 l16 9Z" stroke-width="1"/>
    <path d="M135 76 l17 -29 l-29 16Z"/>
    <path d="M131 73 l10 -16 l-16 9Z" stroke-width="1"/>
    <line x1="80" y1="83" x2="82.5" y2="87.3301270189222" stroke-width="0.6"/><line x1="88" y1="83" x2="90.5" y2="87.3301270189222" stroke-width="0.6"/><line x1="96" y1="83" x2="98.5" y2="87.3301270189222" stroke-width="0.6"/><line x1="104" y1="83" x2="106.5" y2="87.3301270189222" stroke-width="0.6"/><line x1="112" y1="83" x2="114.5" y2="87.3301270189222" stroke-width="0.6"/><line x1="120" y1="83" x2="122.5" y2="87.3301270189222" stroke-width="0.6"/><line x1="72" y1="91" x2="74.5" y2="95.3301270189222" stroke-width="0.6"/><line x1="80" y1="91" x2="82.5" y2="95.3301270189222" stroke-width="0.6"/><line x1="88" y1="91" x2="90.5" y2="95.3301270189222" stroke-width="0.6"/><line x1="96" y1="91" x2="98.5" y2="95.3301270189222" stroke-width="0.6"/><line x1="104" y1="91" x2="106.5" y2="95.3301270189222" stroke-width="0.6"/><line x1="112" y1="91" x2="114.5" y2="95.3301270189222" stroke-width="0.6"/><line x1="120" y1="91" x2="122.5" y2="95.3301270189222" stroke-width="0.6"/><line x1="128" y1="91" x2="130.5" y2="95.3301270189222" stroke-width="0.6"/><line x1="64" y1="99" x2="66.5" y2="103.3301270189222" stroke-width="0.6"/><line x1="72" y1="99" x2="74.5" y2="103.3301270189222" stroke-width="0.6"/><line x1="80" y1="99" x2="82.5" y2="103.3301270189222" stroke-width="0.6"/><line x1="88" y1="99" x2="90.5" y2="103.3301270189222" stroke-width="0.6"/><line x1="96" y1="99" x2="98.5" y2="103.3301270189222" stroke-width="0.6"/><line x1="104" y1="99" x2="106.5" y2="103.3301270189222" stroke-width="0.6"/><line x1="112" y1="99" x2="114.5" y2="103.3301270189222" stroke-width="0.6"/><line x1="120" y1="99" x2="122.5" y2="103.3301270189222" stroke-width="0.6"/><line x1="128" y1="99" x2="130.5" y2="103.3301270189222" stroke-width="0.6"/><line x1="136" y1="99" x2="138.5" y2="103.3301270189222" stroke-width="0.6"/><line x1="64" y1="107" x2="66.5" y2="111.3301270189222" stroke-width="0.6"/><line x1="72" y1="107" x2="74.5" y2="111.3301270189222" stroke-width="0.6"/><line x1="80" y1="107" x2="82.5" y2="111.3301270189222" stroke-width="0.6"/><line x1="88" y1="107" x2="90.5" y2="111.3301270189222" stroke-width="0.6"/><line x1="96" y1="107" x2="98.5" y2="111.3301270189222" stroke-width="0.6"/><line x1="104" y1="107" x2="106.5" y2="111.3301270189222" stroke-width="0.6"/><line x1="112" y1="107" x2="114.5" y2="111.3301270189222" stroke-width="0.6"/><line x1="120" y1="107" x2="122.5" y2="111.3301270189222" stroke-width="0.6"/><line x1="128" y1="107" x2="130.5" y2="111.3301270189222" stroke-width="0.6"/><line x1="136" y1="107" x2="138.5" y2="111.3301270189222" stroke-width="0.6"/><line x1="64" y1="115" x2="66.5" y2="119.3301270189222" stroke-width="0.6"/><line x1="72" y1="115" x2="74.5" y2="119.3301270189222" stroke-width="0.6"/><line x1="80" y1="115" x2="82.5" y2="119.3301270189222" stroke-width="0.6"/><line x1="88" y1="115" x2="90.5" y2="119.3301270189222" stroke-width="0.6"/><line x1="96" y1="115" x2="98.5" y2="119.3301270189222" stroke-width="0.6"/><line x1="104" y1="115" x2="106.5" y2="119.3301270189222" stroke-width="0.6"/><line x1="112" y1="115" x2="114.5" y2="119.3301270189222" stroke-width="0.6"/><line x1="120" y1="115" x2="122.5" y2="119.3301270189222" stroke-width="0.6"/><line x1="128" y1="115" x2="130.5" y2="119.3301270189222" stroke-width="0.6"/><line x1="136" y1="115" x2="138.5" y2="119.3301270189222" stroke-width="0.6"/><line x1="64" y1="123" x2="66.5" y2="127.3301270189222" stroke-width="0.6"/><line x1="72" y1="123" x2="74.5" y2="127.3301270189222" stroke-width="0.6"/><line x1="80" y1="123" x2="82.5" y2="127.3301270189222" stroke-width="0.6"/><line x1="88" y1="123" x2="90.5" y2="127.3301270189222" stroke-width="0.6"/><line x1="96" y1="123" x2="98.5" y2="127.3301270189222" stroke-width="0.6"/><line x1="104" y1="123" x2="106.5" y2="127.3301270189222" stroke-width="0.6"/><line x1="112" y1="123" x2="114.5" y2="127.3301270189222" stroke-width="0.6"/><line x1="120" y1="123" x2="122.5" y2="127.3301270189222" stroke-width="0.6"/><line x1="128" y1="123" x2="130.5" y2="127.3301270189222" stroke-width="0.6"/><line x1="136" y1="123" x2="138.5" y2="127.3301270189222" stroke-width="0.6"/><line x1="64" y1="131" x2="66.5" y2="135.33012701892218" stroke-width="0.6"/><line x1="72" y1="131" x2="74.5" y2="135.33012701892218" stroke-width="0.6"/><line x1="80" y1="131" x2="82.5" y2="135.33012701892218" stroke-width="0.6"/><line x1="88" y1="131" x2="90.5" y2="135.33012701892218" stroke-width="0.6"/><line x1="96" y1="131" x2="98.5" y2="135.33012701892218" stroke-width="0.6"/><line x1="104" y1="131" x2="106.5" y2="135.33012701892218" stroke-width="0.6"/><line x1="112" y1="131" x2="114.5" y2="135.33012701892218" stroke-width="0.6"/><line x1="120" y1="131" x2="122.5" y2="135.33012701892218" stroke-width="0.6"/><line x1="128" y1="131" x2="130.5" y2="135.33012701892218" stroke-width="0.6"/><line x1="136" y1="131" x2="138.5" y2="135.33012701892218" stroke-width="0.6"/><line x1="64" y1="139" x2="66.5" y2="143.33012701892218" stroke-width="0.6"/><line x1="72" y1="139" x2="74.5" y2="143.33012701892218" stroke-width="0.6"/><line x1="80" y1="139" x2="82.5" y2="143.33012701892218" stroke-width="0.6"/><line x1="88" y1="139" x2="90.5" y2="143.33012701892218" stroke-width="0.6"/><line x1="96" y1="139" x2="98.5" y2="143.33012701892218" stroke-width="0.6"/><line x1="104" y1="139" x2="106.5" y2="143.33012701892218" stroke-width="0.6"/><line x1="112" y1="139" x2="114.5" y2="143.33012701892218" stroke-width="0.6"/><line x1="120" y1="139" x2="122.5" y2="143.33012701892218" stroke-width="0.6"/><line x1="128" y1="139" x2="130.5" y2="143.33012701892218" stroke-width="0.6"/><line x1="136" y1="139" x2="138.5" y2="143.33012701892218" stroke-width="0.6"/><line x1="64" y1="147" x2="66.5" y2="151.33012701892218" stroke-width="0.6"/><line x1="72" y1="147" x2="74.5" y2="151.33012701892218" stroke-width="0.6"/><line x1="80" y1="147" x2="82.5" y2="151.33012701892218" stroke-width="0.6"/><line x1="88" y1="147" x2="90.5" y2="151.33012701892218" stroke-width="0.6"/><line x1="96" y1="147" x2="98.5" y2="151.33012701892218" stroke-width="0.6"/><line x1="104" y1="147" x2="106.5" y2="151.33012701892218" stroke-width="0.6"/><line x1="112" y1="147" x2="114.5" y2="151.33012701892218" stroke-width="0.6"/><line x1="120" y1="147" x2="122.5" y2="151.33012701892218" stroke-width="0.6"/><line x1="128" y1="147" x2="130.5" y2="151.33012701892218" stroke-width="0.6"/><line x1="136" y1="147" x2="138.5" y2="151.33012701892218" stroke-width="0.6"/><line x1="72" y1="155" x2="74.5" y2="159.33012701892218" stroke-width="0.6"/><line x1="80" y1="155" x2="82.5" y2="159.33012701892218" stroke-width="0.6"/><line x1="88" y1="155" x2="90.5" y2="159.33012701892218" stroke-width="0.6"/><line x1="96" y1="155" x2="98.5" y2="159.33012701892218" stroke-width="0.6"/><line x1="104" y1="155" x2="106.5" y2="159.33012701892218" stroke-width="0.6"/><line x1="112" y1="155" x2="114.5" y2="159.33012701892218" stroke-width="0.6"/><line x1="120" y1="155" x2="122.5" y2="159.33012701892218" stroke-width="0.6"/><line x1="128" y1="155" x2="130.5" y2="159.33012701892218" stroke-width="0.6"/><line x1="80" y1="163" x2="82.5" y2="167.33012701892218" stroke-width="0.6"/><line x1="88" y1="163" x2="90.5" y2="167.33012701892218" stroke-width="0.6"/><line x1="96" y1="163" x2="98.5" y2="167.33012701892218" stroke-width="0.6"/><line x1="104" y1="163" x2="106.5" y2="167.33012701892218" stroke-width="0.6"/><line x1="112" y1="163" x2="114.5" y2="167.33012701892218" stroke-width="0.6"/><line x1="120" y1="163" x2="122.5" y2="167.33012701892218" stroke-width="0.6"/>
    <circle cx="82" cy="108" r="4" fill="#1a1a1a"/>
    <circle cx="118" cy="108" r="4" fill="#1a1a1a"/>
    <path d="M93 122 l7 6 l7 -6"/>
    <path d="M100 128 v8"/>
    <path d="M40 118 q-26 -6 -36 4 M40 130 q-26 9 -36 14 M40 142 q-24 13 -32 21"/>
    <path d="M160 118 q26 -6 36 4 M160 130 q26 9 36 14 M160 142 q24 13 32 21"/>
  </g></svg>