<svg xmlns="http://www.w3.org/2000/svg" viewBox="0 0 200 200" width="200" height="200"><rect width="200" height="200" fill="#ffffff"/><g fill="none" stroke="#1a1a1a" stroke-width="2.5" stroke-linecap="round" stroke-linejoin="round">
    <ellipse cx="120" cy="115" rx="48" ry="30"/>
    <path d="M85 95 Q65 70 55 50 Q72 44 86 62 Q96 76 96 96 Z"/>
    <path d="M55 50 Q38 44 32 55 Q38 67 56 62 Z"/>
    <path d="M62 42 L70 28 L75 44 Z"/>
    <circle cx="58" cy="52" r="2.5" fill="#1a1a1a"/>
    <path d="M85.0 95.0 q-10 4 -14 12" stroke-width="0.75"/><path d="M79.4 86.4 q-10 4 -14 12" stroke-width="0.75"/><path d="M73.8 77.8 q-10 4 -14 12" stroke-width="0.75"/><path d="M68.2 69.2 q-10 4 -14 12" stroke-width="0.75"/><path d="M62.6 60.6 q-10 4 -14 12" stroke-width="0.75"/><path d="M57.0 52.0 q-10 4 -14 12" stroke-width="0.75"/>
    <line x1="94" y1="98" x2="96.86788218175523" y2="102.09576022144496" stroke-width="0.6"/><line x1="103" y1="98" x2="105.86788218175523" y2="102.09576022144496" stroke-width="0.6"/><line x1="112" y1="98" x2="114.86788218175523" y2="102.09576022144496" stroke-width="0.6"/><line x1="121" y1="98" x2="123.86788218175523" y2="102.09576022144496" stroke-width="0.6"/><line x1="130" y1="98" x2="132.86788218175522" y2="102.09576022144496" stroke-width="0.6"/><line x1="139" y1="98" x2="141.86788218175522" y2="102.09576022144496" stroke-width="0.6"/><line x1="148" y1="98" x2="150.86788218175522" y2="102.09576022144496" stroke-width="0.6"/><line x1="85" y1="107" x2="87.86788218175523" y2="111.09576022144496" stroke-width="0.6"/><line x1="94" y1="107" x2="96.86788218175523" y2="111.09576022144496" stroke-width="0.6"/><line x1="103" y1="107" x2="105.86788218175523" y2="111.09576022144496" stroke-width="0.6"/><line x1="112" y1="107" x2="114.86788218175523" y2="111.09576022144496" stroke-width="0.6"/><line x1="121" y1="107" x2="123.86788218175523" y2="111.09576022144496" stroke-width="0.6"/><line x1="130" y1="107" x2="132.86788218175522" y2="111.09576022144496" stroke-width="0.6"/><line x1="139" y1="107" x2="141.86788218175522" y2="111.09576022144496" stroke-width="0.6"/><line x1="148" y1="107" x2="150.86788218175522" y2="111.09576022144496" stroke-width="0.6"/><line x1="157" y1="107" x2="159.86788218175522" y2="111.09576022144496" stroke-width="0.6"/><line x1="85" y1="116" x2="87.86788218175523" y2="120.09576022144496" stroke-width="0.6"/><line x1="94" y1="116" x2="96.86788218175523" y2="120.09576022144496" stroke-width="0.6"/><line x1="103" y1="116" x2="105.86788218175523" y2="120.09576022144496" stroke-width="0.6"/><line x1="112" y1="116" x2="114.86788218175523" y2="120.09576022144496" stroke-width="0.6"/><line x1="121" y1="116" x2="123.86788218175523" y2="120.09576022144496" stroke-width="0.6"/><line x1="130" y1="116" x2="132.86788218175522" y2="120.09576022144496" stroke-width="0.6"/><line x1="139" y1="116" x2="141.86788218175522" y2="120.09576022144496" stroke-width="0.6"/><line x1="148" y1="116" x2="150.86788218175522" y2="120.09576022144496" stroke-width="0.6"/><line x1="157" y1="116" x2="159.86788218175522" y2="120.09576022144496" stroke-width="0.6"/><line x1="85" y1="125" x2="87.86788218175523" y2="129.09576022144495" stroke-width="0.6"/><line x1="94" y1="125" x2="96.86788218175523" y2="129.09576022144495" stroke-width="0.6"/><line x1="103" y1="125" x2="105.86788218175523" y2="129.09576022144495" stroke-width="0.6"/><line x1="112" y1="125" x2="114.86788218175523" y2="129.09576022144495" stroke-width="0.6"/><line x1="121" y1="125" x2="123.86788218175523" y2="129.09576022144495" stroke-width="0.6"/><line x1="130" y1="125" x2="132.86788218175522" y2="129.09576022144495" stroke-width="0.6"/><line x1="139" y1="125" x2="141.86788218175522" y2="129.09576022144495" stroke-width="0.6"/><line x1="148" y1="125" x2="150.86788218175522" y2="129.09576022144495" stroke-width="0.6"/><line x1="157" y1="125" x2="159.86788218175522" y2="129.09576022144495" stroke-width="0.6"/><line x1="94" y1="134" x2="96.86788218175523" y2="138.09576022144495" stroke-width="0.6"/><line x1="103" y1="134" x2="105.86788218175523" y2="138.09576022144495" stroke-width="0.6"/><line x1="112" y1="134" x2="114.86788218175523" y2="138.09576022144495" stroke-width="0.6"/><line x1="121" y1="134" x2="123.86788218175523" y2="138.09576022144495" stroke-width="0.6"/><line x1="130" y1="134" x2="132.86788218175522" y2="138.09576022144495" stroke-width="0.6"/><line x1="139" y1="134" x2="141.86788218175522" y2="138.09576022144495" stroke-width="0.6"/><line x1="148" y1="134" x2="150.86788218175522" y2="138.09576022144495" stroke-width="0.6"/>
    <path d="M165 100 Q190 105 188 130 Q182 150 165 145" stroke-width="1.5"/>
    <line x1="172" y1="130" x2="172" y2="175" stroke-width="0.75"/><line x1="175.2" y1="130" x2="175.2" y2="175" stroke-width="0.75"/><line x1="178.4" y1="130" x2="178.4" y2="175" stroke-width="0.75"/><line x1="181.6" y1="130" x2="181.6" y2="175" stroke-width="0.75"/><line x1="184.8" y1="130" x2="184.8" y2="175" stroke-width="0.75"/><line x1="188" y1="130" x2="188" y2="175" stroke-width="0.75"/>
    <path d="M85 140 V190 M105 142 V190 M135 142 V190 M155 140 V190" stroke-width="1.5"/>
    <line x1="0" y1="192" x2="200" y2="192" stroke-width="0.75"/><line x1="0" y1="196" x2="200" y2="196" stroke-width="0.75"/>
  </g></svg>