<svg xmlns="http://www.w3.org/2000/svg" viewBox="0 0 200 200" width="200" height="200"><rect width="200" height="200" fill="#ffffff"/><g fill="none" stroke="#1a1a1a" stroke-width="2.5" stroke-linecap="round" stroke-linejoin="round">
    <path d="M35 130 Q30 105 55 100 L60 75 Q75 55 95 65 L120 55 Q140 58 138 80 Q165 88 168 115 V190 H150 V150 H70 V190 H52 V150 Q35 145 35 130 Z"/>
    <circle cx="105" cy="65" r="3.5" fill="#1a1a1a"/>
    <path d="M125 56 L135 40 L130 60 Z"/>
    <path d="M60 78 q-6 10 -2 22" stroke-width="1"/><path d="M69.28571428571428 74.85714285714286 q-6 10 -2 22" stroke-width="1"/><path d="M78.57142857142857 71.71428571428571 q-6 10 -2 22" stroke-width="1"/><path d="M87.85714285714286 68.57142857142857 q-6 10 -2 22" stroke-width="1"/><path d="M97.14285714285714 65.42857142857143 q-6 10 -2 22" stroke-width="1"/><path d="M106.42857142857143 62.285714285714285 q-6 10 -2 22" stroke-width="1"/><path d="M115.71428571428571 59.14285714285714 q-6 10 -2 22" stroke-width="1"/><path d="M125 56 q-6 10 -2 22" stroke-width="1"/>
    <line x1="73" y1="94" x2="75.86788218175523" y2="98.09576022144496" stroke-width="0.6"/><line x1="82" y1="94" x2="84.86788218175523" y2="98.09576022144496" stroke-width="0.6"/><line x1="91" y1="94" x2="93.86788218175523" y2="98.09576022144496" stroke-width="0.6"/><line x1="100" y1="94" x2="102.86788218175523" y2="98.09576022144496" stroke-width="0.6"/><line x1="109" y1="94" x2="111.86788218175523" y2="98.09576022144496" stroke-width="0.6"/><line x1="118" y1="94" x2="120.86788218175523" y2="98.09576022144496" stroke-width="0.6"/><line x1="127" y1="94" x2="129.86788218175522" y2="98.09576022144496" stroke-width="0.6"/><line x1="136" y1="94" x2="138.86788218175522" y2="98.09576022144496" stroke-width="0.6"/><line x1="145" y1="94" x2="147.86788218175522" y2="98.09576022144496" stroke-width="0.6"/><line x1="64" y1="103" x2="66.86788218175523" y2="107.09576022144496" stroke-width="0.6"/><line x1="73" y1="103" x2="75.86788218175523" y2="107.09576022144496" stroke-width="0.6"/><line x1="82" y1="103" x2="84.86788218175523" y2="107.09576022144496" stroke-width="0.6"/><line x1="91" y1="103" x2="93.86788218175523" y2="107.09576022144496" stroke-width="0.6"/><line x1="100" y1="103" x2="102.86788218175523" y2="107.09576022144496" stroke-width="0.6"/><line x1="109" y1="103" x2="111.86788218175523" y2="107.09576022144496" stroke-width="0.6"/><line x1="118" y1="103" x2="120.86788218175523" y2="107.09576022144496" stroke-width="0.6"/><line x1="127" y1="103" x2="129.86788218175522" y2="107.09576022144496" stroke-width="0.6"/><line x1="136" y1="103" x2="138.86788218175522" y2="107.09576022144496" stroke-width="0.6"/><line x1="145" y1="103" x2="147.86788218175522" y2="107.09576022144496" stroke-width="0.6"/><line x1="154" y1="103" x2="156.86788218175522" y2="107.09576022144496" stroke-width="0.6"/><line x1="64" y1="112" x2="66.86788218175523" y2="116.09576022144496" stroke-width="0.6"/><line x1="73" y1="112" x2="75.86788218175523" y2="116.09576022144496" stroke-width="0.6"/><line x1="82" y1="112" x2="84.86788218175523" y2="116.09576022144496" stroke-width="0.6"/><line x1="91" y1="112" x2="93.86788218175523" y2="116.09576022144496" stroke-width="0.6"/><line x1="100" y1="112" x2="102.86788218175523" y2="116.09576022144496" stroke-width="0.6"/><line x1="109" y1="112" x2="111.86788218175523" y2="116.09576022144496" stroke-width="0.6"/><line x1="118" y1="112" x2="120.86788218175523" y2="116.09576022144496" stroke-width="0.6"/><line x1="127" y1="112" x2="129.86788218175522" y2="116.09576022144496" stroke-width="0.6"/><line x1="136" y1="112" x2="138.86788218175522" y2="116.09576022144496" stroke-width="0.6"/><line x1="145" y1="112" x2="147.86788218175522" y2="116.09576022144496" stroke-width="0.6"/><line x1="154" y1="112" x2="156.86788218175522" y2="116.09576022144496" stroke-width="0.6"/><line x1="163" y1="112" x2="165.86788218175522" y2="116.09576022144496" stroke-width="0.6"/><line x1="64" y1="121" x2="66.86788218175523" y2="125.09576022144496" stroke-width="0.6"/><line x1="73" y1="121" x2="75.86788218175523" y2="125.09576022144496" stroke-width="0.6"/><line x1="82" y1="121" x2="84.86788218175523" y2="125.09576022144496" stroke-width="0.6"/><line x1="91" y1="121" x2="93.86788218175523" y2="125.09576022144496" stroke-width="0.6"/><line x1="100" y1="121" x2="102.86788218175523" y2="125.09576022144496" stroke-width="0.6"/><line x1="109" y1="121" x2="111.86788218175523" y2="125.09576022144496" stroke-width="0.6"/><line x1="118" y1="121" x2="120.86788218175523" y2="125.09576022144496" stroke-width="0.6"/><line x1="127" y1="121" x2="129.86788218175522" y2="125.09576022144496" stroke-width="0.6"/><line x1="136" y1="121" x2="138.86788218175522" y2="125.09576022144496" stroke-width="0.6"/><line x1="145" y1="121" x2="147.86788218175522" y2="125.09576022144496" stroke-width="0.6"/><line x1="154" y1="121" x2="156.86788218175522" y2="125.09576022144496" stroke-width="0.6"/><line x1="163" y1="121" x2="165.86788218175522" y2="125.09576022144496" stroke-width="0.6"/><line x1="64" y1="130" x2="66.86788218175523" y2="134.09576022144495" stroke-width="0.6"/><line x1="73" y1="130" x2="75.86788218175523" y2="134.09576022144495" stroke-width="0.6"/><line x1="82" y1="130" x2="84.86788218175523" y2="134.09576022144495" stroke-width="0.6"/><line x1="91" y1="130" x2="93.86788218175523" y2="134.09576022144495" stroke-width="0.6"/><line x1="100" y1="130" x2="102.86788218175523" y2="134.09576022144495" stroke-width="0.6"/><line x1="109" y1="130" x2="111.86788218175523" y2="134.09576022144495" stroke-width="0.6"/><line x1="118" y1="130" x2="120.86788218175523" y2="134.09576022144495" stroke-width="0.6"/><line x1="127" y1="130" x2="129.86788218175522" y2="134.09576022144495" stroke-width="0.6"/><line x1="136" y1="130" x2="138.86788218175522" y2="134.09576022144495" stroke-width="0.6"/><line x1="145" y1="130" x2="147.86788218175522" y2="134.09576022144495" stroke-width="0.6"/><line x1="154" y1="130" x2="156.86788218175522" y2="134.09576022144495" stroke-width="0.6"/><line x1="82" y1="139" x2="84.86788218175523" y2="143.09576022144495" stroke-width="0.6"/><line x1="91" y1="139" x2="93.86788218175523" y2="143.09576022144495" stroke-width="0.6"/><line x1="100" y1="139" x2="102.86788218175523" y2="143.09576022144495" stroke-width="0.6"/><line x1="109" y1="139" x2="111.86788218175523" y2="143.09576022144495" stroke-width="0.6"/><line x1="118" y1="139" x2="120.86788218175523" y2="143.09576022144495" stroke-width="0.6"/><line x1="127" y1="139" x2="129.86788218175522" y2="143.09576022144495" stroke-width="0.6"/><line x1="136" y1="139" x2="138.86788218175522" y2="143.09576022144495" stroke-width="0.6"/>
    <path d="M35 130 Q14 135 12 165 Q20 175 35 165 Q40 145 35 130 Z"/>
    <line x1="16" y1="135" x2="16" y2="185" stroke-width="0.75"/><line x1="18.8" y1="135" x2="18.8" y2="185" stroke-width="0.75"/><line x1="21.6" y1="135" x2="21.6" y2="185" stroke-width="0.75"/><line x1="24.4" y1="135" x2="24.4" y2="185" stroke-width="0.75"/><line x1="27.2" y1="135" x2="27.2" y2="185" stroke-width="0.75"/><line x1="30" y1="135" x2="30" y2="185" stroke-width="0.75"/>
    <path d="M70 150 V190 M88 150 V190 M132 150 V190 M150 150 V190" stroke-width="1.5"/>
    <line x1="0" y1="192" x2="200" y2="192" stroke-width="0.75"/><line x1="0" y1="196" x2="200" y2="196" stroke-width="0.75"/>
  </g></svg>