<svg xmlns="http://www.w3.org/2000/svg" viewBox="0 0 200 200" width="200" height="200"><rect width="200" height="200" fill="#ffffff"/><g fill="none" stroke="#1a1a1a" stroke-width="2.5" stroke-linecap="round" stroke-linejoin="round">
    <path d="M58 190 Q50 150 60 128 Q48 105 60 85 Q56 65 78 58 L70 32 L92 52 Q100 48 108 52 L130 32 L122 58 Q144 65 140 85 Q152 105 140 128 Q150 150 142 190 Z"/>
    <line x1="85" y1="81" x2="87.5" y2="85.3301270189222" stroke-width="0.6"/><line x1="94" y1="81" x2="96.5" y2="85.3301270189222" stroke-width="0.6"/><line x1="103" y1="81" x2="105.5" y2="85.3301270189222" stroke-width="0.6"/><line x1="112" y1="81" x2="114.5" y2="85.3301270189222" stroke-width="0.6"/><line x1="121" y1="81" x2="123.5" y2="85.3301270189222" stroke-width="0.6"/><line x1="76" y1="90" x2="78.5" y2="94.3301270189222" stroke-width="0.6"/><line x1="85" y1="90" x2="87.5" y2="94.3301270189222" stroke-width="0.6"/><line x1="94" y1="90" x2="96.5" y2="94.3301270189222" stroke-width="0.6"/><line x1="103" y1="90" x2="105.5" y2="94.3301270189222" stroke-width="0.6"/><line x1="112" y1="90" x2="114.5" y2="94.3301270189222" stroke-width="0.6"/><line x1="121" y1="90" x2="123.5" y2="94.3301270189222" stroke-width="0.6"/><line x1="130" y1="90" x2="132.5" y2="94.3301270189222" stroke-width="0.6"/><line x1="67" y1="99" x2="69.5" y2="103.3301270189222" stroke-width="0.6"/><line x1="76" y1="99" x2="78.5" y2="103.3301270189222" stroke-width="0.6"/><line x1="85" y1="99" x2="87.5" y2="103.3301270189222" stroke-width="0.6"/><line x1="94" y1="99" x2="96.5" y2="103.3301270189222" stroke-width="0.6"/><line x1="103" y1="99" x2="105.5" y2="103.3301270189222" stroke-width="0.6"/><line x1="112" y1="99" x2="114.5" y2="103.3301270189222" stroke-width="0.6"/><line x1="121" y1="99" x2="123.5" y2="103.3301270189222" stroke-width="0.6"/><line x1="130" y1="99" x2="132.5" y2="103.3301270189222" stroke-width="0.6"/><line x1="67" y1="108" x2="69.5" y2="112.3301270189222" stroke-width="0.6"/><line x1="76" y1="108" x2="78.5" y2="112.3301270189222" stroke-width="0.6"/><line x1="85" y1="108" x2="87.5" y2="112.3301270189222" stroke-width="0.6"/><line x1="94" y1="108" x2="96.5" y2="112.3301270189222" stroke-width="0.6"/><line x1="103" y1="108" x2="105.5" y2="112.3301270189222" stroke-width="0.6"/><line x1="112" y1="108" x2="114.5" y2="112.3301270189222" stroke-width="0.6"/><line x1="121" y1="108" x2="123.5" y2="112.3301270189222" stroke-width="0.6"/><line x1="130" y1="108" x2="132.5" y2="112.3301270189222" stroke-width="0.6"/><line x1="67" y1="117" x2="69.5" y2="121.3301270189222" stroke-width="0.6"/><line x1="76" y1="117" x2="78.5" y2="121.3301270189222" stroke-width="0.6"/><line x1="85" y1="117" x2="87.5" y2="121.3301270189222" stroke-width="0.6"/><line x1="94" y1="117" x2="96.5" y2="121.3301270189222" stroke-width="0.6"/><line x1="103" y1="117" x2="105.5" y2="121.3301270189222" stroke-width="0.6"/><line x1="112" y1="117" x2="114.5" y2="121.3301270189222" stroke-width="0.6"/><line x1="121" y1="117" x2="123.5" y2="121.3301270189222" stroke-width="0.6"/><line x1="130" y1="117" x2="132.5" y2="121.3301270189222" stroke-width="0.6"/><line x1="139" y1="117" x2="141.5" y2="121.3301270189222" stroke-width="0.6"/><line x1="67" y1="126" x2="69.5" y2="130.33012701892218" stroke-width="0.6"/><line x1="76" y1="126" x2="78.5" y2="130.33012701892218" stroke-width="0.6"/><line x1="85" y1="126" x2="87.5" y2="130.33012701892218" stroke-width="0.6"/><line x1="94" y1="126" x2="96.5" y2="130.33012701892218" stroke-width="0.6"/><line x1="103" y1="126" x2="105.5" y2="130.33012701892218" stroke-width="0.6"/><line x1="112" y1="126" x2="114.5" y2="130.33012701892218" stroke-width="0.6"/><line x1="121" y1="126" x2="123.5" y2="130.33012701892218" stroke-width="0.6"/><line x1="130" y1="126" x2="132.5" y2="130.33012701892218" stroke-width="0.6"/><line x1="139" y1="126" x2="141.5" y2="130.33012701892218" stroke-width="0.6"/><line x1="67" y1="135" x2="69.5" y2="139.33012701892218" stroke-width="0.6"/><line x1="76" y1="135" x2="78.5" y2="139.33012701892218" stroke-width="0.6"/><line x1="85" y1="135" x2="87.5" y2="139.33012701892218" stroke-width="0.6"/><line x1="94" y1="135" x2="96.5" y2="139.33012701892218" stroke-width="0.6"/><line x1="103" y1="135" x2="105.5" y2="139.33012701892218" stroke-width="0.6"/><line x1="112" y1="135" x2="114.5" y2="139.33012701892218" stroke-width="0.6"/><line x1="121" y1="135" x2="123.5" y2="139.33012701892218" stroke-width="0.6"/><line x1="130" y1="135" x2="132.5" y2="139.33012701892218" stroke-width="0.6"/><line x1="139" y1="135" x2="141.5" y2="139.33012701892218" stroke-width="0.6"/><line x1="67" y1="144" x2="69.5" y2="148.33012701892218" stroke-width="0.6"/><line x1="76" y1="144" x2="78.5" y2="148.33012701892218" stroke-width="0.6"/><line x1="85" y1="144" x2="87.5" y2="148.33012701892218" stroke-width="0.6"/><line x1="94" y1="144" x2="96.5" y2="148.33012701892218" stroke-width="0.6"/><line x1="103" y1="144" x2="105.5" y2="148.33012701892218" stroke-width="0.6"/><line x1="112" y1="144" x2="114.5" y2="148.33012701892218" stroke-width="0.6"/><line x1="121" y1="144" x2="123.5" y2="148.33012701892218" stroke-width="0.6"/><line x1="130" y1="144" x2="132.5" y2="148.33012701892218" stroke-width="0.6"/><line x1="139" y1="144" x2="141.5" y2="148.33012701892218" stroke-width="0.6"/><line x1="67" y1="153" x2="69.5" y2="157.33012701892218" stroke-width="0.6"/><line x1="76" y1="153" x2="78.5" y2="157.33012701892218" stroke-width="0.6"/><line x1="85" y1="153" x2="87.5" y2="157.33012701892218" stroke-width="0.6"/><line x1="94" y1="153" x2="96.5" y2="157.33012701892218" stroke-width="0.6"/><line x1="103" y1="153" x2="105.5" y2="157.33012701892218" stroke-width="0.6"/><line x1="112" y1="153" x2="114.5" y2="157.33012701892218" stroke-width="0.6"/><line x1="121" y1="153" x2="123.5" y2="157.33012701892218" stroke-width="0.6"/><line x1="130" y1="153" x2="132.5" y2="157.33012701892218" stroke-width="0.6"/><line x1="67" y1="162" x2="69.5" y2="166.33012701892218" stroke-width="0.6"/><line x1="76" y1="162" x2="78.5" y2="166.33012701892218" stroke-width="0.6"/><line x1="85" y1="162" x2="87.5" y2="166.33012701892218" stroke-width="0.6"/><line x1="94" y1="162" x2="96.5" y2="166.33012701892218" stroke-width="0.6"/><line x1="103" y1="162" x2="105.5" y2="166.33012701892218" stroke-width="0.6"/><line x1="112" y1="162" x2="114.5" y2="166.33012701892218" stroke-width="0.6"/><line x1="121" y1="162" x2="123.5" y2="166.33012701892218" stroke-width="0.6"/><line x1="130" y1="162" x2="132.5" y2="166.33012701892218" stroke-width="0.6"/><line x1="76" y1="171" x2="78.5" y2="175.33012701892218" stroke-width="0.6"/><line x1="85" y1="171" x2="87.5" y2="175.33012701892218" stroke-width="0.6"/><line x1="94" y1="171" x2="96.5" y2="175.33012701892218" stroke-width="0.6"/><line x1="103" y1="171" x2="105.5" y2="175.33012701892218" stroke-width="0.6"/><line x1="112" y1="171" x2="114.5" y2="175.33012701892218" stroke-width="0.6"/><line x1="121" y1="171" x2="123.5" y2="175.33012701892218" stroke-width="0.6"/><line x1="85" y1="180" x2="87.5" y2="184.33012701892218" stroke-width="0.6"/><line x1="94" y1="180" x2="96.5" y2="184.33012701892218" stroke-width="0.6"/><line x1="103" y1="180" x2="105.5" y2="184.33012701892218" stroke-width="0.6"/><line x1="112" y1="180" x2="114.5" y2="184.33012701892218" stroke-width="0.6"/><line x1="121" y1="180" x2="123.5" y2="184.33012701892218" stroke-width="0.6"/>
    <line x1="80" y1="61" x2="82" y2="64.46410161513775" stroke-width="0.6"/><line x1="88" y1="61" x2="90" y2="64.46410161513775" stroke-width="0.6"/><line x1="96" y1="61" x2="98" y2="64.46410161513775" stroke-width="0.6"/><line x1="104" y1="61" x2="106" y2="64.46410161513775" stroke-width="0.6"/><line x1="112" y1="61" x2="114" y2="64.46410161513775" stroke-width="0.6"/><line x1="120" y1="61" x2="122" y2="64.46410161513775" stroke-width="0.6"/><line x1="80" y1="69" x2="82" y2="72.46410161513775" stroke-width="0.6"/><line x1="88" y1="69" x2="90" y2="72.46410161513775" stroke-width="0.6"/><line x1="96" y1="69" x2="98" y2="72.46410161513775" stroke-width="0.6"/><line x1="104" y1="69" x2="106" y2="72.46410161513775" stroke-width="0.6"/><line x1="112" y1="69" x2="114" y2="72.46410161513775" stroke-width="0.6"/><line x1="120" y1="69" x2="122" y2="72.46410161513775" stroke-width="0.6"/><line x1="80" y1="77" x2="82" y2="80.46410161513775" stroke-width="0.6"/><line x1="88" y1="77" x2="90" y2="80.46410161513775" stroke-width="0.6"/><line x1="96" y1="77" x2="98" y2="80.46410161513775" stroke-width="0.6"/><line x1="104" y1="77" x2="106" y2="80.46410161513775" stroke-width="0.6"/><line x1="112" y1="77" x2="114" y2="80.46410161513775" stroke-width="0.6"/><line x1="120" y1="77" x2="122" y2="80.46410161513775" stroke-width="0.6"/><line x1="80" y1="85" x2="82" y2="88.46410161513775" stroke-width="0.6"/><line x1="88" y1="85" x2="90" y2="88.46410161513775" stroke-width="0.6"/><line x1="96" y1="85" x2="98" y2="88.46410161513775" stroke-width="0.6"/><line x1="104" y1="85" x2="106" y2="88.46410161513775" stroke-width="0.6"/><line x1="112" y1="85" x2="114" y2="88.46410161513775" stroke-width="0.6"/><line x1="120" y1="85" x2="122" y2="88.46410161513775" stroke-width="0.6"/><line x1="88" y1="93" x2="90" y2="96.46410161513775" stroke-width="0.6"/><line x1="96" y1="93" x2="98" y2="96.46410161513775" stroke-width="0.6"/><line x1="104" y1="93" x2="106" y2="96.46410161513775" stroke-width="0.6"/><line x1="112" y1="93" x2="114" y2="96.46410161513775" stroke-width="0.6"/>
    <circle cx="82" cy="80" r="4" fill="#1a1a1a"/>
    <circle cx="118" cy="80" r="4" fill="#1a1a1a"/>
    <path d="M97 95 l3 4 l3 -4 Z"/>
    <path d="M100 99 v4 M100 103 q-8 4 -14 1 M100 103 q8 4 14 1" stroke-width="1.5"/>
    <path d="M68 90 Q35 84 14 88 M68 96 Q35 96 12 102 M68 102 Q35 108 14 116" stroke-width="1"/>
    <path d="M132 90 Q165 84 186 88 M132 96 Q165 96 188 102 M132 102 Q165 108 186 116" stroke-width="1"/>
    <path d="M138 152 Q176 142 180 96 Q182 64 162 52" stroke-width="1.5"/>
    <line x1="0" y1="192" x2="200" y2="192" stroke-width="0.75"/><line x1="0" y1="196" x2="200" y2="196" stroke-width="0.75"/>
  </g></svg>