<svg xmlns="http://www.w3.org/2000/svg" viewBox="0 0 200 200" width="200" height="200"><rect width="200" height="200" fill="#ffffff"/><g fill="none" stroke="#1a1a1a" stroke-width="2.5" stroke-linecap="round" stroke-linejoin="round">
    <ellipse cx="100" cy="112" rx="58" ry="48"/>
    <path d="M52 82 q-28 -16 -34 12 q22 12 38 6Z"/>
    <line x1="20" y1="75" x2="55" y2="75" stroke-width="0.5"/><line x1="20" y1="80.75" x2="55" y2="80.75" stroke-width="0.5"/><line x1="20" y1="86.5" x2="55" y2="86.5" stroke-width="0.5"/><line x1="20" y1="92.25" x2="55" y2="92.25" stroke-width="0.5"/><line x1="20" y1="98" x2="55" y2="98" stroke-width="0.5"/>
    <path d="M148 82 q28 -16 34 12 q-22 12 -38 6Z"/>
    <line x1="145" y1="75" x2="180" y2="75" stroke-width="0.5"/><line x1="145" y1="80.75" x2="180" y2="80.75" stroke-width="0.5"/><line x1="145" y1="86.5" x2="180" y2="86.5" stroke-width="0.5"/><line x1="145" y1="92.25" x2="180" y2="92.25" stroke-width="0.5"/><line x1="145" y1="98" x2="180" y2="98" stroke-width="0.5"/>
    <line x1="71" y1="75" x2="74.2139380484327" y2="78.83022221559489" stroke-width="0.6"/><line x1="80" y1="75" x2="83.2139380484327" y2="78.83022221559489" stroke-width="0.6"/><line x1="89" y1="75" x2="92.2139380484327" y2="78.83022221559489" stroke-width="0.6"/><line x1="98" y1="75" x2="101.2139380484327" y2="78.83022221559489" stroke-width="0.6"/><line x1="107" y1="75" x2="110.2139380484327" y2="78.83022221559489" stroke-width="0.6"/><line x1="116" y1="75" x2="119.2139380484327" y2="78.83022221559489" stroke-width="0.6"/><line x1="125" y1="75" x2="128.2139380484327" y2="78.83022221559489" stroke-width="0.6"/><line x1="62" y1="84" x2="65.2139380484327" y2="87.83022221559489" stroke-width="0.6"/><line x1="71" y1="84" x2="74.2139380484327" y2="87.83022221559489" stroke-width="0.6"/><line x1="80" y1="84" x2="83.2139380484327" y2="87.83022221559489" stroke-width="0.6"/><line x1="89" y1="84" x2="92.2139380484327" y2="87.83022221559489" stroke-width="0.6"/><line x1="98" y1="84" x2="101.2139380484327" y2="87.83022221559489" stroke-width="0.6"/><line x1="107" y1="84" x2="110.2139380484327" y2="87.83022221559489" stroke-width="0.6"/><line x1="116" y1="84" x2="119.2139380484327" y2="87.83022221559489" stroke-width="0.6"/><line x1="125" y1="84" x2="128.2139380484327" y2="87.83022221559489" stroke-width="0.6"/><line x1="134" y1="84" x2="137.2139380484327" y2="87.83022221559489" stroke-width="0.6"/><line x1="143" y1="84" x2="146.2139380484327" y2="87.83022221559489" stroke-width="0.6"/><line x1="53" y1="93" x2="56.213938048432695" y2="96.83022221559489" stroke-width="0.6"/><line x1="62" y1="93" x2="65.2139380484327" y2="96.83022221559489" stroke-width="0.6"/><line x1="71" y1="93" x2="74.2139380484327" y2="96.83022221559489" stroke-width="0.6"/><line x1="80" y1="93" x2="83.2139380484327" y2="96.83022221559489" stroke-width="0.6"/><line x1="89" y1="93" x2="92.2139380484327" y2="96.83022221559489" stroke-width="0.6"/><line x1="98" y1="93" x2="101.2139380484327" y2="96.83022221559489" stroke-width="0.6"/><line x1="107" y1="93" x2="110.2139380484327" y2="96.83022221559489" stroke-width="0.6"/><line x1="116" y1="93" x2="119.2139380484327" y2="96.83022221559489" stroke-width="0.6"/><line x1="125" y1="93" x2="128.2139380484327" y2="96.83022221559489" stroke-width="0.6"/><line x1="134" y1="93" x2="137.2139380484327" y2="96.83022221559489" stroke-width="0.6"/><line x1="143" y1="93" x2="146.2139380484327" y2="96.83022221559489" stroke-width="0.6"/><line x1="53" y1="102" x2="56.213938048432695" y2="105.83022221559489" stroke-width="0.6"/><line x1="62" y1="102" x2="65.2139380484327" y2="105.83022221559489" stroke-width="0.6"/><line x1="71" y1="102" x2="74.2139380484327" y2="105.83022221559489" stroke-width="0.6"/><line x1="80" y1="102" x2="83.2139380484327" y2="105.83022221559489" stroke-width="0.6"/><line x1="89" y1="102" x2="92.2139380484327" y2="105.83022221559489" stroke-width="0.6"/><line x1="98" y1="102" x2="101.2139380484327" y2="105.83022221559489" stroke-width="0.6"/><line x1="107" y1="102" x2="110.2139380484327" y2="105.83022221559489" stroke-width="0.6"/><line x1="116" y1="102" x2="119.2139380484327" y2="105.83022221559489" stroke-width="0.6"/><line x1="125" y1="102" x2="128.2139380484327" y2="105.83022221559489" stroke-width="0.6"/><line x1="134" y1="102" x2="137.2139380484327" y2="105.83022221559489" stroke-width="0.6"/><line x1="143" y1="102" x2="146.2139380484327" y2="105.83022221559489" stroke-width="0.6"/><line x1="152" y1="102" x2="155.2139380484327" y2="105.83022221559489" stroke-width="0.6"/><line x1="53" y1="111" x2="56.213938048432695" y2="114.83022221559489" stroke-width="0.6"/><line x1="62" y1="111" x2="65.2139380484327" y2="114.83022221559489" stroke-width="0.6"/><line x1="71" y1="111" x2="74.2139380484327" y2="114.83022221559489" stroke-width="0.6"/><line x1="80" y1="111" x2="83.2139380484327" y2="114.83022221559489" stroke-width="0.6"/><line x1="89" y1="111" x2="92.2139380484327" y2="114.83022221559489" stroke-width="0.6"/><line x1="98" y1="111" x2="101.2139380484327" y2="114.83022221559489" stroke-width="0.6"/><line x1="107" y1="111" x2="110.2139380484327" y2="114.83022221559489" stroke-width="0.6"/><line x1="116" y1="111" x2="119.2139380484327" y2="114.83022221559489" stroke-width="0.6"/><line x1="125" y1="111" x2="128.2139380484327" y2="114.83022221559489" stroke-width="0.6"/><line x1="134" y1="111" x2="137.2139380484327" y2="114.83022221559489" stroke-width="0.6"/><line x1="143" y1="111" x2="146.2139380484327" y2="114.83022221559489" stroke-width="0.6"/><line x1="152" y1="111" x2="155.2139380484327" y2="114.83022221559489" stroke-width="0.6"/><line x1="53" y1="120" x2="56.213938048432695" y2="123.83022221559489" stroke-width="0.6"/><line x1="62" y1="120" x2="65.2139380484327" y2="123.83022221559489" stroke-width="0.6"/><line x1="71" y1="120" x2="74.2139380484327" y2="123.83022221559489" stroke-width="0.6"/><line x1="80" y1="120" x2="83.2139380484327" y2="123.83022221559489" stroke-width="0.6"/><line x1="89" y1="120" x2="92.2139380484327" y2="123.83022221559489" stroke-width="0.6"/><line x1="98" y1="120" x2="101.2139380484327" y2="123.83022221559489" stroke-width="0.6"/><line x1="107" y1="120" x2="110.2139380484327" y2="123.83022221559489" stroke-width="0.6"/><line x1="116" y1="120" x2="119.2139380484327" y2="123.83022221559489" stroke-width="0.6"/><line x1="125" y1="120" x2="128.2139380484327" y2="123.83022221559489" stroke-width="0.6"/><line x1="134" y1="120" x2="137.2139380484327" y2="123.83022221559489" stroke-width="0.6"/><line x1="143" y1="120" x2="146.2139380484327" y2="123.83022221559489" stroke-width="0.6"/><line x1="152" y1="120" x2="155.2139380484327" y2="123.83022221559489" stroke-width="0.6"/><line x1="53" y1="129" x2="56.213938048432695" y2="132.8302222155949" stroke-width="0.6"/><line x1="62" y1="129" x2="65.2139380484327" y2="132.8302222155949" stroke-width="0.6"/><line x1="71" y1="129" x2="74.2139380484327" y2="132.8302222155949" stroke-width="0.6"/><line x1="80" y1="129" x2="83.2139380484327" y2="132.8302222155949" stroke-width="0.6"/><line x1="89" y1="129" x2="92.2139380484327" y2="132.8302222155949" stroke-width="0.6"/><line x1="98" y1="129" x2="101.2139380484327" y2="132.8302222155949" stroke-width="0.6"/><line x1="107" y1="129" x2="110.2139380484327" y2="132.8302222155949" stroke-width="0.6"/><line x1="116" y1="129" x2="119.2139380484327" y2="132.8302222155949" stroke-width="0.6"/><line x1="125" y1="129" x2="128.2139380484327" y2="132.8302222155949" stroke-width="0.6"/><line x1="134" y1="129" x2="137.2139380484327" y2="132.8302222155949" stroke-width="0.6"/><line x1="143" y1="129" x2="146.2139380484327" y2="132.8302222155949" stroke-width="0.6"/><line x1="152" y1="129" x2="155.2139380484327" y2="132.8302222155949" stroke-width="0.6"/><line x1="62" y1="138" x2="65.2139380484327" y2="141.8302222155949" stroke-width="0.6"/><line x1="71" y1="138" x2="74.2139380484327" y2="141.8302222155949" stroke-width="0.6"/><line x1="80" y1="138" x2="83.2139380484327" y2="141.8302222155949" stroke-width="0.6"/><line x1="89" y1="138" x2="92.2139380484327" y2="141.8302222155949" stroke-width="0.6"/><line x1="98" y1="138" x2="101.2139380484327" y2="141.8302222155949" stroke-width="0.6"/><line x1="107" y1="138" x2="110.2139380484327" y2="141.8302222155949" stroke-width="0.6"/><line x1="116" y1="138" x2="119.2139380484327" y2="141.8302222155949" stroke-width="0.6"/><line x1="125" y1="138" x2="128.2139380484327" y2="141.8302222155949" stroke-width="0.6"/><line x1="134" y1="138" x2="137.2139380484327" y2="141.8302222155949" stroke-width="0.6"/><line x1="143" y1="138" x2="146.2139380484327" y2="141.8302222155949" stroke-width="0.6"/><line x1="71" y1="147" x2="74.2139380484327" y2="150.8302222155949" stroke-width="0.6"/><line x1="80" y1="147" x2="83.2139380484327" y2="150.8302222155949" stroke-width="0.6"/><line x1="89" y1="147" x2="92.2139380484327" y2="150.8302222155949" stroke-width="0.6"/><line x1="98" y1="147" x2="101.2139380484327" y2="150.8302222155949" stroke-width="0.6"/><line x1="107" y1="147" x2="110.2139380484327" y2="150.8302222155949" stroke-width="0.6"/><line x1="116" y1="147" x2="119.2139380484327" y2="150.8302222155949" stroke-width="0.6"/><line x1="125" y1="147" x2="128.2139380484327" y2="150.8302222155949" stroke-width="0.6"/><line x1="134" y1="147" x2="137.2139380484327" y2="150.8302222155949" stroke-width="0.6"/><line x1="89" y1="156" x2="92.2139380484327" y2="159.8302222155949" stroke-width="0.6"/><line x1="98" y1="156" x2="101.2139380484327" y2="159.8302222155949" stroke-width="0.6"/><line x1="107" y1="156" x2="110.2139380484327" y2="159.8302222155949" stroke-width="0.6"/><line x1="116" y1="156" x2="119.2139380484327" y2="159.8302222155949" stroke-width="0.6"/>
    <circle cx="80" cy="102" r="4" fill="#1a1a1a"/>
    <circle cx="120" cy="102" r="4" fill="#1a1a1a"/>
    <ellipse cx="100" cy="123" rx="11" ry="8" fill="#1a1a1a"/>
    <path d="M100 131 v9"/>
    <path d="M88 146 q12 9 24 0"/>
  </g></svg>