<svg xmlns="http://www.w3.org/2000/svg" viewBox="0 0 200 200" width="200" height="200"><rect width="200" height="200" fill="#ffffff"/><g fill="none" stroke="#1a1a1a" stroke-width="2.5" stroke-linecap="round" stroke-linejoin="round">
    <path d="M20 100 q30 -50 60 -10 q20 30 50 -10 q20 -30 50 10"/>
    <path d="M30 120 q40 30 70 0 q30 -30 70 0"/>
    <path d="M40 80 q20 -20 40 -5" stroke-width="1.5"/>
    <path d="M120 80 q20 -20 40 -5" stroke-width="1.5"/>
    <path d="M50 140 q20 15 40 0 q20 -15 40 0 q20 15 40 0" stroke-width="1.5"/>
    <circle cx="20" cy="100" r="3" fill="#1a1a1a"/>
    <circle cx="170" cy="100" r="3" fill="#1a1a1a"/>
    <circle cx="80" cy="90" r="2" fill="#1a1a1a"/>
    <circle cx="130" cy="90" r="2" fill="#1a1a1a"/>
  </g></svg>