<svg xmlns="http://www.w3.org/2000/svg" viewBox="0 0 200 200" width="200" height="200"><rect width="200" height="200" fill="#ffffff"/><g fill="none" stroke="#1a1a1a" stroke-width="2.5" stroke-linecap="round" stroke-linejoin="round">
    <ellipse cx="95" cy="110" rx="42" ry="54"/>
    <path d="M58 85 q-4 50 10 75" stroke-width="1.5"/>
    <path d="M132 85 q4 50 -10 75" stroke-width="1.5"/>
    <path d="M55 90 q-20 -55 40 -65 q55 -8 50 45 q25 5 10 25"/>
    <line x1="65" y1="28" x2="65" y2="60" stroke-width="0.5"/><line x1="72.77777777777777" y1="28" x2="72.77777777777777" y2="60" stroke-width="0.5"/><line x1="80.55555555555556" y1="28" x2="80.55555555555556" y2="60" stroke-width="0.5"/><line x1="88.33333333333333" y1="28" x2="88.33333333333333" y2="60" stroke-width="0.5"/><line x1="96.11111111111111" y1="28" x2="96.11111111111111" y2="60" stroke-width="0.5"/><line x1="103.88888888888889" y1="28" x2="103.88888888888889" y2="60" stroke-width="0.5"/><line x1="111.66666666666666" y1="28" x2="111.66666666666666" y2="60" stroke-width="0.5"/><line x1="119.44444444444444" y1="28" x2="119.44444444444444" y2="60" stroke-width="0.5"/><line x1="127.22222222222223" y1="28" x2="127.22222222222223" y2="60" stroke-width="0.5"/><line x1="135" y1="28" x2="135" y2="60" stroke-width="0.5"/>
    <path d="M95 30 q15 0 25 10" stroke-width="1.5"/>
    <path d="M148 72 q40 8 35 65 q-35 55 -35 55 q16 -44 10 -84 q-4 -34 -10 -49 Z"/>
    <line x1="134" y1="73" x2="135.71010071662835" y2="77.69846310392954" stroke-width="0.5"/><line x1="142" y1="73" x2="143.71010071662835" y2="77.69846310392954" stroke-width="0.5"/><line x1="150" y1="73" x2="151.71010071662835" y2="77.69846310392954" stroke-width="0.5"/><line x1="158" y1="73" x2="159.71010071662835" y2="77.69846310392954" stroke-width="0.5"/><line x1="134" y1="81" x2="135.71010071662835" y2="85.69846310392954" stroke-width="0.5"/><line x1="142" y1="81" x2="143.71010071662835" y2="85.69846310392954" stroke-width="0.5"/><line x1="150" y1="81" x2="151.71010071662835" y2="85.69846310392954" stroke-width="0.5"/><line x1="158" y1="81" x2="159.71010071662835" y2="85.69846310392954" stroke-width="0.5"/><line x1="166" y1="81" x2="167.71010071662835" y2="85.69846310392954" stroke-width="0.5"/><line x1="126" y1="89" x2="127.71010071662835" y2="93.69846310392954" stroke-width="0.5"/><line x1="134" y1="89" x2="135.71010071662835" y2="93.69846310392954" stroke-width="0.5"/><line x1="142" y1="89" x2="143.71010071662835" y2="93.69846310392954" stroke-width="0.5"/><line x1="150" y1="89" x2="151.71010071662835" y2="93.69846310392954" stroke-width="0.5"/><line x1="158" y1="89" x2="159.71010071662835" y2="93.69846310392954" stroke-width="0.5"/><line x1="166" y1="89" x2="167.71010071662835" y2="93.69846310392954" stroke-width="0.5"/><line x1="126" y1="97" x2="127.71010071662835" y2="101.69846310392954" stroke-width="0.5"/><line x1="134" y1="97" x2="135.71010071662835" y2="101.69846310392954" stroke-width="0.5"/><line x1="142" y1="97" x2="143.71010071662835" y2="101.69846310392954" stroke-width="0.5"/><line x1="150" y1="97" x2="151.71010071662835" y2="101.69846310392954" stroke-width="0.5"/><line x1="158" y1="97" x2="159.71010071662835" y2="101.69846310392954" stroke-width="0.5"/><line x1="166" y1="97" x2="167.71010071662835" y2="101.69846310392954" stroke-width="0.5"/><line x1="174" y1="97" x2="175.71010071662835" y2="101.69846310392954" stroke-width="0.5"/><line x1="126" y1="105" x2="127.71010071662835" y2="109.69846310392954" stroke-width="0.5"/><line x1="134" y1="105" x2="135.71010071662835" y2="109.69846310392954" stroke-width="0.5"/><line x1="142" y1="105" x2="143.71010071662835" y2="109.69846310392954" stroke-width="0.5"/><line x1="150" y1="105" x2="151.71010071662835" y2="109.69846310392954" stroke-width="0.5"/><line x1="158" y1="105" x2="159.71010071662835" y2="109.69846310392954" stroke-width="0.5"/><line x1="166" y1="105" x2="167.71010071662835" y2="109.69846310392954" stroke-width="0.5"/><line x1="174" y1="105" x2="175.71010071662835" y2="109.69846310392954" stroke-width="0.5"/><line x1="126" y1="113" x2="127.71010071662835" y2="117.69846310392954" stroke-width="0.5"/><line x1="134" y1="113" x2="135.71010071662835" y2="117.69846310392954" stroke-width="0.5"/><line x1="142" y1="113" x2="143.71010071662835" y2="117.69846310392954" stroke-width="0.5"/><line x1="150" y1="113" x2="151.71010071662835" y2="117.69846310392954" stroke-width="0.5"/><line x1="158" y1="113" x2="159.71010071662835" y2="117.69846310392954" stroke-width="0.5"/><line x1="166" y1="113" x2="167.71010071662835" y2="117.69846310392954" stroke-width="0.5"/><line x1="174" y1="113" x2="175.71010071662835" y2="117.69846310392954" stroke-width="0.5"/><line x1="126" y1="121" x2="127.71010071662835" y2="125.69846310392954" stroke-width="0.5"/><line x1="134" y1="121" x2="135.71010071662835" y2="125.69846310392954" stroke-width="0.5"/><line x1="142" y1="121" x2="143.71010071662835" y2="125.69846310392954" stroke-width="0.5"/><line x1="150" y1="121" x2="151.71010071662835" y2="125.69846310392954" stroke-width="0.5"/><line x1="158" y1="121" x2="159.71010071662835" y2="125.69846310392954" stroke-width="0.5"/><line x1="166" y1="121" x2="167.71010071662835" y2="125.69846310392954" stroke-width="0.5"/><line x1="174" y1="121" x2="175.71010071662835" y2="125.69846310392954" stroke-width="0.5"/><line x1="126" y1="129" x2="127.71010071662835" y2="133.69846310392956" stroke-width="0.5"/><line x1="134" y1="129" x2="135.71010071662835" y2="133.69846310392956" stroke-width="0.5"/><line x1="142" y1="129" x2="143.71010071662835" y2="133.69846310392956" stroke-width="0.5"/><line x1="150" y1="129" x2="151.71010071662835" y2="133.69846310392956" stroke-width="0.5"/><line x1="158" y1="129" x2="159.71010071662835" y2="133.69846310392956" stroke-width="0.5"/><line x1="166" y1="129" x2="167.71010071662835" y2="133.69846310392956" stroke-width="0.5"/><line x1="174" y1="129" x2="175.71010071662835" y2="133.69846310392956" stroke-width="0.5"/><line x1="126" y1="137" x2="127.71010071662835" y2="141.69846310392956" stroke-width="0.5"/><line x1="134" y1="137" x2="135.71010071662835" y2="141.69846310392956" stroke-width="0.5"/><line x1="142" y1="137" x2="143.71010071662835" y2="141.69846310392956" stroke-width="0.5"/><line x1="150" y1="137" x2="151.71010071662835" y2="141.69846310392956" stroke-width="0.5"/><line x1="158" y1="137" x2="159.71010071662835" y2="141.69846310392956" stroke-width="0.5"/><line x1="166" y1="137" x2="167.71010071662835" y2="141.69846310392956" stroke-width="0.5"/><line x1="174" y1="137" x2="175.71010071662835" y2="141.69846310392956" stroke-width="0.5"/><line x1="126" y1="145" x2="127.71010071662835" y2="149.69846310392956" stroke-width="0.5"/><line x1="134" y1="145" x2="135.71010071662835" y2="149.69846310392956" stroke-width="0.5"/><line x1="142" y1="145" x2="143.71010071662835" y2="149.69846310392956" stroke-width="0.5"/><line x1="150" y1="145" x2="151.71010071662835" y2="149.69846310392956" stroke-width="0.5"/><line x1="158" y1="145" x2="159.71010071662835" y2="149.69846310392956" stroke-width="0.5"/><line x1="166" y1="145" x2="167.71010071662835" y2="149.69846310392956" stroke-width="0.5"/><line x1="174" y1="145" x2="175.71010071662835" y2="149.69846310392956" stroke-width="0.5"/><line x1="126" y1="153" x2="127.71010071662835" y2="157.69846310392956" stroke-width="0.5"/><line x1="134" y1="153" x2="135.71010071662835" y2="157.69846310392956" stroke-width="0.5"/><line x1="142" y1="153" x2="143.71010071662835" y2="157.69846310392956" stroke-width="0.5"/><line x1="150" y1="153" x2="151.71010071662835" y2="157.69846310392956" stroke-width="0.5"/><line x1="158" y1="153" x2="159.71010071662835" y2="157.69846310392956" stroke-width="0.5"/><line x1="166" y1="153" x2="167.71010071662835" y2="157.69846310392956" stroke-width="0.5"/><line x1="174" y1="153" x2="175.71010071662835" y2="157.69846310392956" stroke-width="0.5"/><line x1="126" y1="161" x2="127.71010071662835" y2="165.69846310392956" stroke-width="0.5"/><line x1="134" y1="161" x2="135.71010071662835" y2="165.69846310392956" stroke-width="0.5"/><line x1="142" y1="161" x2="143.71010071662835" y2="165.69846310392956" stroke-width="0.5"/><line x1="150" y1="161" x2="151.71010071662835" y2="165.69846310392956" stroke-width="0.5"/><line x1="158" y1="161" x2="159.71010071662835" y2="165.69846310392956" stroke-width="0.5"/><line x1="166" y1="161" x2="167.71010071662835" y2="165.69846310392956" stroke-width="0.5"/><line x1="134" y1="169" x2="135.71010071662835" y2="173.69846310392956" stroke-width="0.5"/><line x1="142" y1="169" x2="143.71010071662835" y2="173.69846310392956" stroke-width="0.5"/><line x1="150" y1="169" x2="151.71010071662835" y2="173.69846310392956" stroke-width="0.5"/><line x1="158" y1="169" x2="159.71010071662835" y2="173.69846310392956" stroke-width="0.5"/><line x1="166" y1="169" x2="167.71010071662835" y2="173.69846310392956" stroke-width="0.5"/><line x1="134" y1="177" x2="135.71010071662835" y2="181.69846310392956" stroke-width="0.5"/><line x1="142" y1="177" x2="143.71010071662835" y2="181.69846310392956" stroke-width="0.5"/><line x1="150" y1="177" x2="151.71010071662835" y2="181.69846310392956" stroke-width="0.5"/><line x1="158" y1="177" x2="159.71010071662835" y2="181.69846310392956" stroke-width="0.5"/>
    <path d="M158 85 q15 50 0 100" stroke-width="1.5"/>
    <path d="M128 95 q12 -7 22 0"/>
    <path d="M70 92 q12 -7 22 0"/>
    <path d="M65 105 q14 -10 26 0 q-14 12 -26 0Z"/>
    <circle cx="78" cy="105" r="8"/>
    <circle cx="78" cy="105" r="3" fill="#1a1a1a"/>
    <path d="M105 105 q14 -10 26 0 q-14 12 -26 0Z"/>
    <circle cx="118" cy="105" r="8"/>
    <circle cx="118" cy="105" r="3" fill="#1a1a1a"/>
    <path d="M62 104 l-6 -4" stroke-width="1.5"/>
    <path d="M138 104 l6 -4" stroke-width="1.5"/>
    <path d="M95 112 q-3 16 0 24 q4 4 9 0" stroke-width="1.5"/>
    <path d="M82 148 q14 9 26 0"/>
    <path d="M82 148 q14 -5 26 0" stroke-width="1.5"/>
    <circle cx="135" cy="135" r="2" fill="#1a1a1a"/>
    <path d="M80 165 v15"/>
    <path d="M112 165 v15"/>
    <path d="M45 195 q55 -28 110 0"/>
  </g></svg>