<svg xmlns="http://www.w3.org/2000/svg" viewBox="0 0 200 200" width="200" height="200"><rect width="200" height="200" fill="#ffffff"/><g fill="none" stroke="#1a1a1a" stroke-width="2.5" stroke-linecap="round" stroke-linejoin="round">
    <ellipse cx="100" cy="108" rx="46" ry="56"/>
    <path d="M54 96 q-12 0 -10 18 q2 14 12 12"/>
    <path d="M146 96 q12 0 10 18 q-2 14 -12 12"/>
    <path d="M54 100 q-8 -55 46 -58 q54 3 46 58 q6 -40 -10 -60 q-18 -22 -36 -22 q-18 0 -36 22 q-16 20 -10 60Z"/>
    <path d="M40 100 q-15 42 0 88" stroke-width="1.5"/>
    <path d="M160 100 q15 42 0 88" stroke-width="1.5"/>
    <path d="M50 108 q-10 35 8 72" stroke-width="1.5"/>
    <path d="M150 108 q10 35 -8 72" stroke-width="1.5"/>
    <path d="M70 50 q-6 32 -6 64" stroke-width="1.5"/>
    <path d="M130 50 q6 32 6 64" stroke-width="1.5"/>
    <path d="M68 88 q12 -8 24 -2"/>
    <path d="M108 86 q12 -6 24 2"/>
    <path d="M68 100 q12 -10 24 0 q-12 10 -24 0Z"/>
    <circle cx="80" cy="100" r="7"/>
    <circle cx="80" cy="100" r="2.5" fill="#1a1a1a"/>
    <path d="M108 100 q12 -10 24 0 q-12 10 -24 0Z"/>
    <circle cx="120" cy="100" r="7"/>
    <circle cx="120" cy="100" r="2.5" fill="#1a1a1a"/>
    <path d="M66 99 l-5 -3" stroke-width="1.5"/>
    <path d="M134 99 l5 -3" stroke-width="1.5"/>
    <path d="M100 105 q-3 15 0 22 q4 4 8 0" stroke-width="1.5"/>
    <path d="M88 142 q12 8 24 0"/>
    <path d="M88 142 q12 -4 24 0" stroke-width="1.5"/>
    <path d="M85 160 v15"/>
    <path d="M115 160 v15"/>
    <path d="M50 195 q50 -25 100 0"/>
  </g></svg>