<svg xmlns="http://www.w3.org/2000/svg" viewBox="0 0 200 200" width="200" height="200"><rect width="200" height="200" fill="#ffffff"/><g fill="none" stroke="#1a1a1a" stroke-width="2.5" stroke-linecap="round" stroke-linejoin="round">
    <path d="M30 70 q40 -25 90 -8"/>
    <path d="M35 95 q55 -35 110 -5" stroke-width="1.5"/>
    <path d="M35 105 q55 50 110 0 q-55 35 -110 0Z"/>
    <circle cx="90" cy="105" r="22"/>
    <circle cx="90" cy="105" r="9" fill="#1a1a1a"/>
    <circle cx="84" cy="98" r="3" fill="#ffffff" stroke-width="1"/>
    <path d="M40 110 l-10 8" stroke-width="1.5"/>
    <path d="M55 118 l-6 10" stroke-width="1.5"/>
    <path d="M70 122 l-3 11" stroke-width="1.5"/>
    <path d="M110 122 l3 11" stroke-width="1.5"/>
    <path d="M130 116 l8 9" stroke-width="1.5"/>
    <path d="M145 105 l12 5" stroke-width="1.5"/>
    <path d="M50 125 q40 18 80 0" stroke-width="1.5"/>
    <path d="M45 88 q45 -20 90 -3" stroke-width="1.5"/>
    <line x1="62" y1="130" x2="118" y2="130" stroke-width="0.5"/><line x1="62" y1="132.5" x2="118" y2="132.5" stroke-width="0.5"/><line x1="62" y1="135" x2="118" y2="135" stroke-width="0.5"/><line x1="62" y1="137.5" x2="118" y2="137.5" stroke-width="0.5"/><line x1="62" y1="140" x2="118" y2="140" stroke-width="0.5"/>
  </g></svg>