<svg xmlns="http://www.w3.org/2000/svg" viewBox="0 0 200 200" width="200" height="200"><rect width="200" height="200" fill="#ffffff"/><g fill="none" stroke="#1a1a1a" stroke-width="2.5" stroke-linecap="round" stroke-linejoin="round">
    <circle cx="100" cy="110" r="42"/>
    <circle cx="48" cy="80" r="20"/>
    <circle cx="152" cy="80" r="20"/>
    <line x1="37" y1="69" x2="36.30540728933228" y2="72.93923101204884" stroke-width="0.5"/><line x1="43" y1="69" x2="42.30540728933228" y2="72.93923101204884" stroke-width="0.5"/><line x1="49" y1="69" x2="48.30540728933228" y2="72.93923101204884" stroke-width="0.5"/><line x1="55" y1="69" x2="54.30540728933228" y2="72.93923101204884" stroke-width="0.5"/><line x1="37" y1="75" x2="36.30540728933228" y2="78.93923101204884" stroke-width="0.5"/><line x1="43" y1="75" x2="42.30540728933228" y2="78.93923101204884" stroke-width="0.5"/><line x1="49" y1="75" x2="48.30540728933228" y2="78.93923101204884" stroke-width="0.5"/><line x1="55" y1="75" x2="54.30540728933228" y2="78.93923101204884" stroke-width="0.5"/><line x1="61" y1="75" x2="60.30540728933228" y2="78.93923101204884" stroke-width="0.5"/><line x1="37" y1="81" x2="36.30540728933228" y2="84.93923101204884" stroke-width="0.5"/><line x1="43" y1="81" x2="42.30540728933228" y2="84.93923101204884" stroke-width="0.5"/><line x1="49" y1="81" x2="48.30540728933228" y2="84.93923101204884" stroke-width="0.5"/><line x1="55" y1="81" x2="54.30540728933228" y2="84.93923101204884" stroke-width="0.5"/><line x1="61" y1="81" x2="60.30540728933228" y2="84.93923101204884" stroke-width="0.5"/><line x1="37" y1="87" x2="36.30540728933228" y2="90.93923101204884" stroke-width="0.5"/><line x1="43" y1="87" x2="42.30540728933228" y2="90.93923101204884" stroke-width="0.5"/><line x1="49" y1="87" x2="48.30540728933228" y2="90.93923101204884" stroke-width="0.5"/><line x1="55" y1="87" x2="54.30540728933228" y2="90.93923101204884" stroke-width="0.5"/><line x1="61" y1="87" x2="60.30540728933228" y2="90.93923101204884" stroke-width="0.5"/><line x1="43" y1="93" x2="42.30540728933228" y2="96.93923101204884" stroke-width="0.5"/><line x1="49" y1="93" x2="48.30540728933228" y2="96.93923101204884" stroke-width="0.5"/><line x1="55" y1="93" x2="54.30540728933228" y2="96.93923101204884" stroke-width="0.5"/>
    <line x1="141" y1="69" x2="141.69459271066773" y2="72.93923101204884" stroke-width="0.5"/><line x1="147" y1="69" x2="147.69459271066773" y2="72.93923101204884" stroke-width="0.5"/><line x1="153" y1="69" x2="153.69459271066773" y2="72.93923101204884" stroke-width="0.5"/><line x1="159" y1="69" x2="159.69459271066773" y2="72.93923101204884" stroke-width="0.5"/><line x1="141" y1="75" x2="141.69459271066773" y2="78.93923101204884" stroke-width="0.5"/><line x1="147" y1="75" x2="147.69459271066773" y2="78.93923101204884" stroke-width="0.5"/><line x1="153" y1="75" x2="153.69459271066773" y2="78.93923101204884" stroke-width="0.5"/><line x1="159" y1="75" x2="159.69459271066773" y2="78.93923101204884" stroke-width="0.5"/><line x1="165" y1="75" x2="165.69459271066773" y2="78.93923101204884" stroke-width="0.5"/><line x1="141" y1="81" x2="141.69459271066773" y2="84.93923101204884" stroke-width="0.5"/><line x1="147" y1="81" x2="147.69459271066773" y2="84.93923101204884" stroke-width="0.5"/><line x1="153" y1="81" x2="153.69459271066773" y2="84.93923101204884" stroke-width="0.5"/><line x1="159" y1="81" x2="159.69459271066773" y2="84.93923101204884" stroke-width="0.5"/><line x1="165" y1="81" x2="165.69459271066773" y2="84.93923101204884" stroke-width="0.5"/><line x1="141" y1="87" x2="141.69459271066773" y2="90.93923101204884" stroke-width="0.5"/><line x1="147" y1="87" x2="147.69459271066773" y2="90.93923101204884" stroke-width="0.5"/><line x1="153" y1="87" x2="153.69459271066773" y2="90.93923101204884" stroke-width="0.5"/><line x1="159" y1="87" x2="159.69459271066773" y2="90.93923101204884" stroke-width="0.5"/><line x1="165" y1="87" x2="165.69459271066773" y2="90.93923101204884" stroke-width="0.5"/><line x1="147" y1="93" x2="147.69459271066773" y2="96.93923101204884" stroke-width="0.5"/><line x1="153" y1="93" x2="153.69459271066773" y2="96.93923101204884" stroke-width="0.5"/><line x1="159" y1="93" x2="159.69459271066773" y2="96.93923101204884" stroke-width="0.5"/>
    <path d="M48 60 q-5 -15 8 -20"/>
    <path d="M152 60 q5 -15 -8 -20"/>
    <path d="M60 95 q-15 5 -12 -15"/>
    <path d="M140 95 q15 5 12 -15"/>
    <path d="M62 90 q5 -45 38 -45 q33 0 38 45"/>
    <line x1="66" y1="48" x2="66" y2="78" stroke-width="0.5"/><line x1="73.55555555555556" y1="48" x2="73.55555555555556" y2="78" stroke-width="0.5"/><line x1="81.11111111111111" y1="48" x2="81.11111111111111" y2="78" stroke-width="0.5"/><line x1="88.66666666666667" y1="48" x2="88.66666666666667" y2="78" stroke-width="0.5"/><line x1="96.22222222222223" y1="48" x2="96.22222222222223" y2="78" stroke-width="0.5"/><line x1="103.77777777777777" y1="48" x2="103.77777777777777" y2="78" stroke-width="0.5"/><line x1="111.33333333333334" y1="48" x2="111.33333333333334" y2="78" stroke-width="0.5"/><line x1="118.88888888888889" y1="48" x2="118.88888888888889" y2="78" stroke-width="0.5"/><line x1="126.44444444444444" y1="48" x2="126.44444444444444" y2="78" stroke-width="0.5"/><line x1="134" y1="48" x2="134" y2="78" stroke-width="0.5"/>
    <path d="M70 80 q30 -15 60 0" stroke-width="1.5"/>
    <circle cx="82" cy="108" r="12"/>
    <circle cx="82" cy="108" r="5" fill="#1a1a1a"/>
    <circle cx="86" cy="104" r="2" fill="#ffffff" stroke-width="1"/>
    <circle cx="118" cy="108" r="12"/>
    <circle cx="118" cy="108" r="5" fill="#1a1a1a"/>
    <circle cx="122" cy="104" r="2" fill="#ffffff" stroke-width="1"/>
    <path d="M70 92 q12 -5 22 0"/>
    <path d="M108 92 q10 -5 22 0"/>
    <path d="M98 118 q2 6 4 6" stroke-width="1.5"/>
    <path d="M85 138 q15 14 30 0"/>
    <path d="M68 125 q-6 6 0 12" stroke-width="1.5"/>
    <path d="M132 125 q6 6 0 12" stroke-width="1.5"/>
  </g></svg>