<svg xmlns="http://www.w3.org/2000/svg" viewBox="0 0 200 200" width="200" height="200"><g fill="none" stroke="#1a1a1a" stroke-width="2.5" stroke-linecap="round" stroke-linejoin="round">
    <path d="M70 50 q60 -10 65 50 q15 5 10 20 q-5 10 -15 10 q5 25 -10 45 q-15 15 -50 10 v-25 q-20 -5 -25 -30 q-5 -30 25 -55 Z"/>
    <path d="M68 52 Q120 35 138 75 Q145 60 130 48 Q95 28 65 48 Q55 55 50 70 Q58 58 68 52Z"/>
    <line x1="70" y1="28" x2="70" y2="50" stroke-width="0.6"/><line x1="78.5" y1="28" x2="78.5" y2="50" stroke-width="0.6"/><line x1="87" y1="28" x2="87" y2="50" stroke-width="0.6"/><line x1="95.5" y1="28" x2="95.5" y2="50" stroke-width="0.6"/><line x1="104" y1="28" x2="104" y2="50" stroke-width="0.6"/><line x1="112.5" y1="28" x2="112.5" y2="50" stroke-width="0.6"/><line x1="121" y1="28" x2="121" y2="50" stroke-width="0.6"/><line x1="129.5" y1="28" x2="129.5" y2="50" stroke-width="0.6"/><line x1="138" y1="28" x2="138" y2="50" stroke-width="0.6"/>
    <path d="M85 75 q14 -7 26 -1" stroke-width="1.5"/>
    <circle cx="100" cy="90" r="4" fill="#1a1a1a"/>
    <path d="M125 105 q5 8 -2 14"/>
    <path d="M108 96 q10 8 4 18 q-4 6 -10 4" stroke-width="1.5"/>
    <path d="M85 150 q15 8 30 0"/>
    <path d="M62 130 q-8 18 0 35" stroke-width="1.5"/>
  </g></svg>