<svg xmlns="http://www.w3.org/2000/svg" viewBox="0 0 200 200" width="200" height="200"><rect width="200" height="200" fill="#ffffff"/><g fill="none" stroke="#1a1a1a" stroke-width="2.5" stroke-linecap="round" stroke-linejoin="round">
    <path d="M38 142 L48 78 L75 112 L100 56 L125 112 L152 78 L162 142 Z"/>
    <path d="M38 142 H162 V164 H38 Z"/>
    <line x1="45" y1="146" x2="45" y2="162" stroke-width="0.5"/><line x1="57.22222222222222" y1="146" x2="57.22222222222222" y2="162" stroke-width="0.5"/><line x1="69.44444444444444" y1="146" x2="69.44444444444444" y2="162" stroke-width="0.5"/><line x1="81.66666666666666" y1="146" x2="81.66666666666666" y2="162" stroke-width="0.5"/><line x1="93.88888888888889" y1="146" x2="93.88888888888889" y2="162" stroke-width="0.5"/><line x1="106.11111111111111" y1="146" x2="106.11111111111111" y2="162" stroke-width="0.5"/><line x1="118.33333333333333" y1="146" x2="118.33333333333333" y2="162" stroke-width="0.5"/><line x1="130.55555555555554" y1="146" x2="130.55555555555554" y2="162" stroke-width="0.5"/><line x1="142.77777777777777" y1="146" x2="142.77777777777777" y2="162" stroke-width="0.5"/><line x1="155" y1="146" x2="155" y2="162" stroke-width="0.5"/>
    <line x1="54.8" y1="86.5" x2="54.8" y2="142" stroke-width="0.5"/><line x1="81.3" y1="98.0" x2="81.3" y2="142" stroke-width="0.5"/><line x1="106.3" y1="70.0" x2="106.3" y2="142" stroke-width="0.5"/><line x1="131.8" y1="103.5" x2="131.8" y2="142" stroke-width="0.5"/><line x1="61.5" y1="95.0" x2="61.5" y2="142" stroke-width="0.5"/><line x1="87.5" y1="84.0" x2="87.5" y2="142" stroke-width="0.5"/><line x1="112.5" y1="84.0" x2="112.5" y2="142" stroke-width="0.5"/><line x1="138.5" y1="95.0" x2="138.5" y2="142" stroke-width="0.5"/><line x1="68.3" y1="103.5" x2="68.3" y2="142" stroke-width="0.5"/><line x1="93.8" y1="70.0" x2="93.8" y2="142" stroke-width="0.5"/><line x1="118.8" y1="98.0" x2="118.8" y2="142" stroke-width="0.5"/><line x1="145.3" y1="86.5" x2="145.3" y2="142" stroke-width="0.5"/>
    <circle cx="100" cy="122" r="9" fill="#1a1a1a"/>
    <circle cx="65" cy="128" r="6" fill="#1a1a1a"/>
    <circle cx="135" cy="128" r="6" fill="#1a1a1a"/>
  </g></svg>