<svg xmlns="http://www.w3.org/2000/svg" viewBox="0 0 200 200" width="200" height="200"><g fill="none" stroke="#1a1a1a" stroke-width="2.5" stroke-linecap="round" stroke-linejoin="round">
    <path d="M15 180 A85 85 0 0 1 185 180"/>
    <path d="M28 180 A72 72 0 0 1 172 180"/>
    <path d="M41 180 A59 59 0 0 1 159 180"/>
    <path d="M54 180 A46 46 0 0 1 146 180"/>
    <line x1="21.5" y1="147.5" x2="33.5" y2="152.4" stroke-width="0.5"/><line x1="67.5" y1="101.5" x2="72.4" y2="113.5" stroke-width="0.5"/><line x1="132.5" y1="101.5" x2="127.6" y2="113.5" stroke-width="0.5"/><line x1="178.5" y1="147.5" x2="166.5" y2="152.4" stroke-width="0.5"/><line x1="33.5" y1="152.4" x2="45.5" y2="157.4" stroke-width="0.5"/><line x1="72.4" y1="113.5" x2="77.4" y2="125.5" stroke-width="0.5"/><line x1="127.6" y1="113.5" x2="122.6" y2="125.5" stroke-width="0.5"/><line x1="166.5" y1="152.4" x2="154.5" y2="157.4" stroke-width="0.5"/><line x1="45.5" y1="157.4" x2="57.5" y2="162.4" stroke-width="0.5"/><line x1="77.4" y1="125.5" x2="82.4" y2="137.5" stroke-width="0.5"/><line x1="122.6" y1="125.5" x2="117.6" y2="137.5" stroke-width="0.5"/><line x1="154.5" y1="157.4" x2="142.5" y2="162.4" stroke-width="0.5"/><line x1="57.5" y1="162.4" x2="69.5" y2="167.4" stroke-width="0.5"/><line x1="82.4" y1="137.5" x2="87.4" y2="149.5" stroke-width="0.5"/><line x1="117.6" y1="137.5" x2="112.6" y2="149.5" stroke-width="0.5"/><line x1="142.5" y1="162.4" x2="130.5" y2="167.4" stroke-width="0.5"/>
    <path d="M5 180 Q0 168 12 163 Q16 150 33 155 Q42 144 55 154 Q62 165 50 180 Z"/>
    <line x1="8" y1="158" x2="50" y2="158" stroke-width="0.5"/><line x1="8" y1="163" x2="50" y2="163" stroke-width="0.5"/><line x1="8" y1="168" x2="50" y2="168" stroke-width="0.5"/><line x1="8" y1="173" x2="50" y2="173" stroke-width="0.5"/><line x1="8" y1="178" x2="50" y2="178" stroke-width="0.5"/>
    <path d="M145 180 Q138 165 150 154 Q163 144 172 155 Q189 150 193 163 Q200 172 195 180 Z"/>
    <line x1="148" y1="158" x2="195" y2="158" stroke-width="0.5"/><line x1="148" y1="163" x2="195" y2="163" stroke-width="0.5"/><line x1="148" y1="168" x2="195" y2="168" stroke-width="0.5"/><line x1="148" y1="173" x2="195" y2="173" stroke-width="0.5"/><line x1="148" y1="178" x2="195" y2="178" stroke-width="0.5"/>
  </g></svg>