<svg xmlns="http://www.w3.org/2000/svg" viewBox="0 0 200 200" width="200" height="200"><rect width="200" height="200" fill="#ffffff"/><g fill="none" stroke="#1a1a1a" stroke-width="2.5" stroke-linecap="round" stroke-linejoin="round">
    <path d="M15 180 A85 85 0 0 1 185 180"/>
    <path d="M28 180 A72 72 0 0 1 172 180"/>
    <path d="M41 180 A59 59 0 0 1 159 180"/>
    <path d="M54 180 A46 46 0 0 1 146 180"/>
    <path d="M5 180 Q0 168 12 163 Q16 150 33 155 Q42 144 55 154 Q62 165 50 180 Z"/>
    <path d="M145 180 Q138 165 150 154 Q163 144 172 155 Q189 150 193 163 Q200 172 195 180 Z"/>
  </g></svg>