<svg xmlns="http://www.w3.org/2000/svg" viewBox="0 0 400 400" width="400" height="400"><g fill="none" stroke="#1a1a1a" stroke-width="1.6" stroke-linecap="round" stroke-linejoin="round"><path d="M200 150 C210 96 250 60 300 66 C338 72 356 108 348 142 C342 168 300 176 262 172 C232 168 210 168 200 176 Z"/><path d="M200 176 C224 178 262 182 288 202 C316 224 316 268 292 292 C270 312 236 300 220 274 C210 256 202 220 200 200 Z"/><path d="M206 158 C224 118 258 92 296 96 C326 100 340 126 336 148" stroke-width="0.9"/><circle cx="300" cy="110" r="12" stroke-width="0.9"/><circle cx="300" cy="110" r="5" stroke-width="0.7"/><circle cx="326" cy="132" r="7" stroke-width="0.8"/><path d="M250 150 C266 128 288 122 312 130" stroke-width="0.7"/><path d="M206 160 Q253 103 300 66" stroke-width="0.6"/><path d="M206 160 Q268 113 330 86" stroke-width="0.6"/><path d="M206 160 Q277 130 348 120" stroke-width="0.6"/><path d="M206 160 Q273 145 340 150" stroke-width="0.6"/><path d="M206 160 Q253 156 300 172" stroke-width="0.6"/><path d="M292 292 q-14 6 -30 -2 q-12 12 -28 4 q-10 10 -22 0" stroke-width="0.8"/><circle cx="262" cy="240" r="9" stroke-width="0.8"/><circle cx="262" cy="240" r="4" stroke-width="0.6"/><circle cx="244" cy="266" r="5" stroke-width="0.7"/><path d="M204 202 Q246 202 288 202" stroke-width="0.6"/><path d="M204 202 Q252 221 300 240" stroke-width="0.6"/><path d="M204 202 Q242 244 280 286" stroke-width="0.6"/><path d="M204 202 Q222 246 240 290" stroke-width="0.6"/><g transform="translate(400 0) scale(-1 1)"><path d="M200 150 C210 96 250 60 300 66 C338 72 356 108 348 142 C342 168 300 176 262 172 C232 168 210 168 200 176 Z"/><path d="M200 176 C224 178 262 182 288 202 C316 224 316 268 292 292 C270 312 236 300 220 274 C210 256 202 220 200 200 Z"/><path d="M206 158 C224 118 258 92 296 96 C326 100 340 126 336 148" stroke-width="0.9"/><circle cx="300" cy="110" r="12" stroke-width="0.9"/><circle cx="300" cy="110" r="5" stroke-width="0.7"/><circle cx="326" cy="132" r="7" stroke-width="0.8"/><path d="M250 150 C266 128 288 122 312 130" stroke-width="0.7"/><path d="M206 160 Q253 103 300 66" stroke-width="0.6"/><path d="M206 160 Q268 113 330 86" stroke-width="0.6"/><path d="M206 160 Q277 130 348 120" stroke-width="0.6"/><path d="M206 160 Q273 145 340 150" stroke-width="0.6"/><path d="M206 160 Q253 156 300 172" stroke-width="0.6"/><path d="M292 292 q-14 6 -30 -2 q-12 12 -28 4 q-10 10 -22 0" stroke-width="0.8"/><circle cx="262" cy="240" r="9" stroke-width="0.8"/><circle cx="262" cy="240" r="4" stroke-width="0.6"/><circle cx="244" cy="266" r="5" stroke-width="0.7"/><path d="M204 202 Q246 202 288 202" stroke-width="0.6"/><path d="M204 202 Q252 221 300 240" stroke-width="0.6"/><path d="M204 202 Q242 244 280 286" stroke-width="0.6"/><path d="M204 202 Q222 246 240 290" stroke-width="0.6"/></g><path d="M200 132 C205 132 206 140 205 150 C207 170 207 210 204 250 C202 276 200 292 200 300 C200 292 198 276 196 250 C193 210 193 170 195 150 C194 140 195 132 200 132 Z"/><line x1="196.5" y1="170" x2="203.5" y2="170" stroke-width="0.6"/><line x1="196" y1="190" x2="204" y2="190" stroke-width="0.6"/><line x1="195.5" y1="212" x2="204.5" y2="212" stroke-width="0.6"/><line x1="196" y1="236" x2="204" y2="236" stroke-width="0.6"/><line x1="197" y1="262" x2="203" y2="262" stroke-width="0.6"/><circle cx="200" cy="126" r="9"/><path d="M204 120 C220 100 236 92 250 78"/><circle cx="250" cy="78" r="3.5"/><path d="M196 120 C180 100 164 92 150 78"/><circle cx="150" cy="78" r="3.5"/></g></svg>