<svg xmlns="http://www.w3.org/2000/svg" viewBox="0 0 200 200" width="200" height="200"><g fill="none" stroke="#1a1a1a" stroke-width="2.5" stroke-linecap="round" stroke-linejoin="round">
    <circle cx="58" cy="35" r="15"/>
    <path d="M46 26 Q28 30 30 58 Q34 78 52 72" stroke-width="1.5"/>
    <path d="M48 23 Q58 14 72 20 M72 26 Q84 32 78 44" stroke-width="1.5"/>
    <circle cx="64" cy="34" r="2" fill="#1a1a1a"/>
    <path d="M46 50 Q40 70 48 92 Q60 102 76 94 Q86 74 78 50 Q62 42 46 50 Z"/>
    <path d="M46 58 Q26 68 22 92" stroke-width="1.5"/>
    <path d="M78 58 Q98 66 104 86" stroke-width="1.5"/>
    <path d="M58 92 Q92 100 125 128 Q158 155 178 182 Q184 195 168 196 Q145 192 122 168 Q95 140 70 112 Q56 100 58 92 Z"/>
    <path d="M58 100 a6 6 0 0 1 12 0" stroke-width="0.75"/><path d="M82 100 a6 6 0 0 1 12 0" stroke-width="0.75"/><path d="M106 100 a6 6 0 0 1 12 0" stroke-width="0.75"/><path d="M130 100 a6 6 0 0 1 12 0" stroke-width="0.75"/><path d="M154 100 a6 6 0 0 1 12 0" stroke-width="0.75"/><path d="M64 180 a6 6 0 0 1 12 0" stroke-width="0.75"/><path d="M88 180 a6 6 0 0 1 12 0" stroke-width="0.75"/><path d="M112 180 a6 6 0 0 1 12 0" stroke-width="0.75"/><path d="M136 180 a6 6 0 0 1 12 0" stroke-width="0.75"/><path d="M160 180 a6 6 0 0 1 12 0" stroke-width="0.75"/>
    <path d="M168 188 Q182 172 198 178 Q190 195 172 200 Z"/>
    <path d="M170 196 Q180 212 162 210 Q162 200 170 196 Z"/>
    <path d="M10 188 Q50 175 95 186 Q140 172 192 188 V198 H10 Z"/>
    <line x1="5" y1="190" x2="195" y2="190" stroke-width="0.6"/><line x1="5" y1="192" x2="195" y2="192" stroke-width="0.6"/><line x1="5" y1="194" x2="195" y2="194" stroke-width="0.6"/><line x1="5" y1="196" x2="195" y2="196" stroke-width="0.6"/>
  </g></svg>