<svg xmlns="http://www.w3.org/2000/svg" viewBox="0 0 200 200" width="200" height="200"><rect width="200" height="200" fill="#ffffff"/><g fill="none" stroke="#1a1a1a" stroke-width="2.5" stroke-linecap="round" stroke-linejoin="round">
    <ellipse cx="100" cy="120" rx="22" ry="32"/>
    <circle cx="100" cy="75" r="14"/>
    <path d="M100 62 L92 45 L106 58 Z M100 62 L110 48 L112 62 Z M100 62 L88 55 L92 68 Z"/>
    <path d="M86 70 L70 78 L86 86 Z"/>
    <path d="M85 110 Q55 76 25 70 Q55 104 85 110 Z"/><path d="M88 130 Q54 104 20 110 Q54 136 88 130 Z"/><path d="M92 148 Q63.5 135 35 150 Q63.5 163 92 148 Z"/>
    <path d="M115 110 Q145 76 175 70 Q145 104 115 110 Z"/><path d="M112 130 Q146 104 180 110 Q146 136 112 130 Z"/><path d="M108 148 Q136.5 135 165 150 Q136.5 163 108 148 Z"/>
    <path d="M77 100 a5 5 0 0 1 10 0" stroke-width="0.75"/><path d="M89 100 a5 5 0 0 1 10 0" stroke-width="0.75"/><path d="M101 100 a5 5 0 0 1 10 0" stroke-width="0.75"/><path d="M113 100 a5 5 0 0 1 10 0" stroke-width="0.75"/><path d="M82 115 a5 5 0 0 1 10 0" stroke-width="0.75"/><path d="M94 115 a5 5 0 0 1 10 0" stroke-width="0.75"/><path d="M106 115 a5 5 0 0 1 10 0" stroke-width="0.75"/><path d="M118 115 a5 5 0 0 1 10 0" stroke-width="0.75"/><path d="M77 130 a5 5 0 0 1 10 0" stroke-width="0.75"/><path d="M89 130 a5 5 0 0 1 10 0" stroke-width="0.75"/><path d="M101 130 a5 5 0 0 1 10 0" stroke-width="0.75"/><path d="M113 130 a5 5 0 0 1 10 0" stroke-width="0.75"/><path d="M82 145 a5 5 0 0 1 10 0" stroke-width="0.75"/><path d="M94 145 a5 5 0 0 1 10 0" stroke-width="0.75"/><path d="M106 145 a5 5 0 0 1 10 0" stroke-width="0.75"/><path d="M118 145 a5 5 0 0 1 10 0" stroke-width="0.75"/>
    <path d="M92 150 Q80 167.5 80 185" stroke-width="1.5"/><path d="M100 152 Q94 170 100 188" stroke-width="1.5"/><path d="M108 150 Q109 167.5 122 185" stroke-width="1.5"/>
    <circle cx="105" cy="72" r="2" fill="#1a1a1a"/>
  </g></svg>