<svg xmlns="http://www.w3.org/2000/svg" viewBox="0 0 200 200" width="200" height="200"><g fill="none" stroke="#1a1a1a" stroke-width="2.5" stroke-linecap="round" stroke-linejoin="round">
    <path d="M55 130 Q45 90 85 78 Q105 55 130 65 L118 80 Q142 85 148 108 Q152 128 132 142 L132 168 Q120 178 102 172 L92 156 Q68 154 55 130 Z"/>
    <path d="M122 65 L134 32 L138 66 Z"/>
    <path d="M126 60 L134 42 L136 60" stroke-width="0.75"/>
    <circle cx="112" cy="98" r="3" fill="#1a1a1a"/>
    <path d="M132 142 Q135 152 128 158"/>
    <path d="M124 150 q4 4 0 9 M128 156 q4 4 0 8" stroke-width="0.75"/>
    <path d="M85 78 Q60 55 38 62 Q58 66 65 82"/>
    <path d="M78 86 Q52 78 38 90 Q58 88 70 100"/>
    <path d="M75 96 Q52 96 42 110 Q62 102 76 110"/>
    <line x1="45" y1="64" x2="80" y2="64" stroke-width="0.5"/><line x1="45" y1="70.33333333333333" x2="80" y2="70.33333333333333" stroke-width="0.5"/><line x1="45" y1="76.66666666666667" x2="80" y2="76.66666666666667" stroke-width="0.5"/><line x1="45" y1="83" x2="80" y2="83" stroke-width="0.5"/><line x1="45" y1="89.33333333333333" x2="80" y2="89.33333333333333" stroke-width="0.5"/><line x1="45" y1="95.66666666666667" x2="80" y2="95.66666666666667" stroke-width="0.5"/><line x1="45" y1="102" x2="80" y2="102" stroke-width="0.5"/>
    <path d="M138 100 Q152 92 160 100"/>
    <path d="M55 130 Q40 130 32 142"/>
    <line x1="75" y1="94" x2="77" y2="97.46410161513775" stroke-width="0.6"/><line x1="84" y1="94" x2="86" y2="97.46410161513775" stroke-width="0.6"/><line x1="93" y1="94" x2="95" y2="97.46410161513775" stroke-width="0.6"/><line x1="102" y1="94" x2="104" y2="97.46410161513775" stroke-width="0.6"/><line x1="111" y1="94" x2="113" y2="97.46410161513775" stroke-width="0.6"/><line x1="120" y1="94" x2="122" y2="97.46410161513775" stroke-width="0.6"/><line x1="66" y1="103" x2="68" y2="106.46410161513775" stroke-width="0.6"/><line x1="75" y1="103" x2="77" y2="106.46410161513775" stroke-width="0.6"/><line x1="84" y1="103" x2="86" y2="106.46410161513775" stroke-width="0.6"/><line x1="93" y1="103" x2="95" y2="106.46410161513775" stroke-width="0.6"/><line x1="102" y1="103" x2="104" y2="106.46410161513775" stroke-width="0.6"/><line x1="111" y1="103" x2="113" y2="106.46410161513775" stroke-width="0.6"/><line x1="120" y1="103" x2="122" y2="106.46410161513775" stroke-width="0.6"/><line x1="66" y1="112" x2="68" y2="115.46410161513775" stroke-width="0.6"/><line x1="75" y1="112" x2="77" y2="115.46410161513775" stroke-width="0.6"/><line x1="84" y1="112" x2="86" y2="115.46410161513775" stroke-width="0.6"/><line x1="93" y1="112" x2="95" y2="115.46410161513775" stroke-width="0.6"/><line x1="102" y1="112" x2="104" y2="115.46410161513775" stroke-width="0.6"/><line x1="111" y1="112" x2="113" y2="115.46410161513775" stroke-width="0.6"/><line x1="120" y1="112" x2="122" y2="115.46410161513775" stroke-width="0.6"/><line x1="129" y1="112" x2="131" y2="115.46410161513775" stroke-width="0.6"/><line x1="66" y1="121" x2="68" y2="124.46410161513775" stroke-width="0.6"/><line x1="75" y1="121" x2="77" y2="124.46410161513775" stroke-width="0.6"/><line x1="84" y1="121" x2="86" y2="124.46410161513775" stroke-width="0.6"/><line x1="93" y1="121" x2="95" y2="124.46410161513775" stroke-width="0.6"/><line x1="102" y1="121" x2="104" y2="124.46410161513775" stroke-width="0.6"/><line x1="111" y1="121" x2="113" y2="124.46410161513775" stroke-width="0.6"/><line x1="120" y1="121" x2="122" y2="124.46410161513775" stroke-width="0.6"/><line x1="129" y1="121" x2="131" y2="124.46410161513775" stroke-width="0.6"/><line x1="66" y1="130" x2="68" y2="133.46410161513776" stroke-width="0.6"/><line x1="75" y1="130" x2="77" y2="133.46410161513776" stroke-width="0.6"/><line x1="84" y1="130" x2="86" y2="133.46410161513776" stroke-width="0.6"/><line x1="93" y1="130" x2="95" y2="133.46410161513776" stroke-width="0.6"/><line x1="102" y1="130" x2="104" y2="133.46410161513776" stroke-width="0.6"/><line x1="111" y1="130" x2="113" y2="133.46410161513776" stroke-width="0.6"/><line x1="120" y1="130" x2="122" y2="133.46410161513776" stroke-width="0.6"/><line x1="129" y1="130" x2="131" y2="133.46410161513776" stroke-width="0.6"/><line x1="66" y1="139" x2="68" y2="142.46410161513776" stroke-width="0.6"/><line x1="75" y1="139" x2="77" y2="142.46410161513776" stroke-width="0.6"/><line x1="84" y1="139" x2="86" y2="142.46410161513776" stroke-width="0.6"/><line x1="93" y1="139" x2="95" y2="142.46410161513776" stroke-width="0.6"/><line x1="102" y1="139" x2="104" y2="142.46410161513776" stroke-width="0.6"/><line x1="111" y1="139" x2="113" y2="142.46410161513776" stroke-width="0.6"/><line x1="120" y1="139" x2="122" y2="142.46410161513776" stroke-width="0.6"/><line x1="75" y1="148" x2="77" y2="151.46410161513776" stroke-width="0.6"/><line x1="84" y1="148" x2="86" y2="151.46410161513776" stroke-width="0.6"/><line x1="93" y1="148" x2="95" y2="151.46410161513776" stroke-width="0.6"/><line x1="102" y1="148" x2="104" y2="151.46410161513776" stroke-width="0.6"/><line x1="111" y1="148" x2="113" y2="151.46410161513776" stroke-width="0.6"/>
  </g></svg>