<svg xmlns="http://www.w3.org/2000/svg" viewBox="0 0 200 200" width="200" height="200"><g fill="none" stroke="#1a1a1a" stroke-width="2.5" stroke-linecap="round" stroke-linejoin="round">
    <path d="M68 182 L80 128 L120 128 L132 182 Z"/>
    <path d="M73 145 H127"/>
    <path d="M71 163 H129"/>
    <line x1="86.7" y1="128" x2="78.7" y2="182" stroke-width="0.5"/><line x1="93.3" y1="128" x2="89.3" y2="182" stroke-width="0.5"/><line x1="100.0" y1="128" x2="100.0" y2="182" stroke-width="0.5"/><line x1="106.7" y1="128" x2="110.7" y2="182" stroke-width="0.5"/><line x1="113.3" y1="128" x2="121.3" y2="182" stroke-width="0.5"/>
    <path d="M80 128 Q73 95 100 90 Q127 95 120 128 Z"/>
    <path d="M85 112 Q92 102 100 110 Q108 102 115 112" stroke-width="0.6"/>
    <path d="M88 121 Q100 113 112 121" stroke-width="0.6"/>
    <path d="M86 100 Q100 78 114 100"/>
    <circle cx="100" cy="74" r="7" fill="#1a1a1a"/>
    <path d="M100 67 Q106 54 116 52"/>
    <circle cx="118" cy="50" r="2" fill="#1a1a1a"/>
    <circle cx="78" cy="138" r="2" fill="#1a1a1a"/>
    <circle cx="122" cy="148" r="2" fill="#1a1a1a"/>
  </g></svg>