<svg xmlns="http://www.w3.org/2000/svg" viewBox="0 0 200 200" width="200" height="200"><rect width="200" height="200" fill="#ffffff"/><g fill="none" stroke="#1a1a1a" stroke-width="2.5" stroke-linecap="round" stroke-linejoin="round">
    <path d="M100 95 Q85 70 65 75 Q55 90 75 100 Q60 105 65 125 Q85 130 95 110 Q100 130 100 130 Q100 130 105 110 Q115 130 135 125 Q140 105 125 100 Q145 90 135 75 Q115 70 100 95 Z"/>
    <circle cx="100" cy="98" r="10"/>
    <line x1="100" y1="98" x2="94.10970310634472" y2="94.21788385892302" stroke-width="0.75"/><line x1="100" y1="98" x2="96.64402122977057" y2="91.8569220667674" stroke-width="0.75"/><line x1="100" y1="98" x2="100" y2="91" stroke-width="0.75"/><line x1="100" y1="98" x2="103.35597877022943" y2="91.8569220667674" stroke-width="0.75"/><line x1="100" y1="98" x2="105.89029689365528" y2="94.21788385892302" stroke-width="0.75"/>
    <path d="M100 130 Q95 160 100 190" stroke-width="1.5"/>
    <path d="M100 150 Q70 145 55 165 Q80 168 100 155 Z"/>
    <path d="M100 165 Q130 158 145 178 Q118 182 100 168 Z"/>
    <line x1="65" y1="150" x2="65" y2="165" stroke-width="0.6"/><line x1="72.5" y1="150" x2="72.5" y2="165" stroke-width="0.6"/><line x1="80" y1="150" x2="80" y2="165" stroke-width="0.6"/><line x1="87.5" y1="150" x2="87.5" y2="165" stroke-width="0.6"/><line x1="95" y1="150" x2="95" y2="165" stroke-width="0.6"/>
    <line x1="105" y1="165" x2="105" y2="180" stroke-width="0.6"/><line x1="112.5" y1="165" x2="112.5" y2="180" stroke-width="0.6"/><line x1="120" y1="165" x2="120" y2="180" stroke-width="0.6"/><line x1="127.5" y1="165" x2="127.5" y2="180" stroke-width="0.6"/><line x1="135" y1="165" x2="135" y2="180" stroke-width="0.6"/>
    <line x1="0" y1="192" x2="200" y2="192" stroke-width="0.75"/><line x1="0" y1="196" x2="200" y2="196" stroke-width="0.75"/>
  </g></svg>