<svg xmlns="http://www.w3.org/2000/svg" viewBox="0 0 200 200" width="200" height="200"><rect width="200" height="200" fill="#ffffff"/><g fill="none" stroke="#1a1a1a" stroke-width="2.5" stroke-linecap="round" stroke-linejoin="round">
    <circle cx="100" cy="100" r="14" fill="#1a1a1a"/>
    <ellipse cx="132.5" cy="100" rx="14" ry="6" transform="rotate(0 132.5 100)"/><ellipse cx="122.9809703885628" cy="122.9809703885628" rx="14" ry="6" transform="rotate(45 122.9809703885628 122.9809703885628)"/><ellipse cx="100" cy="132.5" rx="14" ry="6" transform="rotate(90 100 132.5)"/><ellipse cx="77.0190296114372" cy="122.9809703885628" rx="14" ry="6" transform="rotate(135 77.0190296114372 122.9809703885628)"/><ellipse cx="67.5" cy="100" rx="14" ry="6" transform="rotate(180 67.5 100)"/><ellipse cx="77.0190296114372" cy="77.0190296114372" rx="14" ry="6" transform="rotate(225 77.0190296114372 77.0190296114372)"/><ellipse cx="100" cy="67.5" rx="14" ry="6" transform="rotate(270 100 67.5)"/><ellipse cx="122.9809703885628" cy="77.0190296114372" rx="14" ry="6" transform="rotate(315 122.9809703885628 77.0190296114372)"/>
    <path d="M100 145 v40"/>
    <path d="M100 165 l-20 -10"/>
    <path d="M100 175 l20 -10"/>
  </g></svg>