<svg xmlns="http://www.w3.org/2000/svg" viewBox="0 0 400 400" width="400" height="400"><g fill="none" stroke="#1a1a1a" stroke-width="1.6" stroke-linecap="round" stroke-linejoin="round"><path d="M299.0 200.0 Q346.3 219.4 380.0 200.0 Q346.3 180.6 299.0 200.0 Z" stroke-width="1.1"/><line x1="299.0" y1="200.0" x2="380.0" y2="200.0" stroke-width="0.6"/><path d="M294.2 230.6 Q333.2 263.7 371.2 255.6 Q345.2 226.7 294.2 230.6 Z" stroke-width="1.1"/><line x1="294.2" y1="230.6" x2="371.2" y2="255.6" stroke-width="0.6"/><path d="M280.1 258.2 Q307.0 301.7 345.6 305.8 Q329.8 270.3 280.1 258.2 Z" stroke-width="1.1"/><line x1="280.1" y1="258.2" x2="345.6" y2="305.8" stroke-width="0.6"/><path d="M258.2 280.1 Q270.3 329.8 305.8 345.6 Q301.7 307.0 258.2 280.1 Z" stroke-width="1.1"/><line x1="258.2" y1="280.1" x2="305.8" y2="345.6" stroke-width="0.6"/><path d="M230.6 294.2 Q226.7 345.2 255.6 371.2 Q263.7 333.2 230.6 294.2 Z" stroke-width="1.1"/><line x1="230.6" y1="294.2" x2="255.6" y2="371.2" stroke-width="0.6"/><path d="M200.0 299.0 Q180.6 346.3 200.0 380.0 Q219.4 346.3 200.0 299.0 Z" stroke-width="1.1"/><line x1="200.0" y1="299.0" x2="200.0" y2="380.0" stroke-width="0.6"/><path d="M169.4 294.2 Q136.3 333.2 144.4 371.2 Q173.3 345.2 169.4 294.2 Z" stroke-width="1.1"/><line x1="169.4" y1="294.2" x2="144.4" y2="371.2" stroke-width="0.6"/><path d="M141.8 280.1 Q98.3 307.0 94.2 345.6 Q129.7 329.8 141.8 280.1 Z" stroke-width="1.1"/><line x1="141.8" y1="280.1" x2="94.2" y2="345.6" stroke-width="0.6"/><path d="M119.9 258.2 Q70.2 270.3 54.4 305.8 Q93.0 301.7 119.9 258.2 Z" stroke-width="1.1"/><line x1="119.9" y1="258.2" x2="54.4" y2="305.8" stroke-width="0.6"/><path d="M105.8 230.6 Q54.8 226.7 28.8 255.6 Q66.8 263.7 105.8 230.6 Z" stroke-width="1.1"/><line x1="105.8" y1="230.6" x2="28.8" y2="255.6" stroke-width="0.6"/><path d="M101.0 200.0 Q53.7 180.6 20.0 200.0 Q53.7 219.4 101.0 200.0 Z" stroke-width="1.1"/><line x1="101.0" y1="200.0" x2="20.0" y2="200.0" stroke-width="0.6"/><path d="M105.8 169.4 Q66.8 136.3 28.8 144.4 Q54.8 173.3 105.8 169.4 Z" stroke-width="1.1"/><line x1="105.8" y1="169.4" x2="28.8" y2="144.4" stroke-width="0.6"/><path d="M119.9 141.8 Q93.0 98.3 54.4 94.2 Q70.2 129.7 119.9 141.8 Z" stroke-width="1.1"/><line x1="119.9" y1="141.8" x2="54.4" y2="94.2" stroke-width="0.6"/><path d="M141.8 119.9 Q129.7 70.2 94.2 54.4 Q98.3 93.0 141.8 119.9 Z" stroke-width="1.1"/><line x1="141.8" y1="119.9" x2="94.2" y2="54.4" stroke-width="0.6"/><path d="M169.4 105.8 Q173.3 54.8 144.4 28.8 Q136.3 66.8 169.4 105.8 Z" stroke-width="1.1"/><line x1="169.4" y1="105.8" x2="144.4" y2="28.8" stroke-width="0.6"/><path d="M200.0 101.0 Q219.4 53.7 200.0 20.0 Q180.6 53.7 200.0 101.0 Z" stroke-width="1.1"/><line x1="200.0" y1="101.0" x2="200.0" y2="20.0" stroke-width="0.6"/><path d="M230.6 105.8 Q263.7 66.8 255.6 28.8 Q226.7 54.8 230.6 105.8 Z" stroke-width="1.1"/><line x1="230.6" y1="105.8" x2="255.6" y2="28.8" stroke-width="0.6"/><path d="M258.2 119.9 Q301.7 93.0 305.8 54.4 Q270.3 70.2 258.2 119.9 Z" stroke-width="1.1"/><line x1="258.2" y1="119.9" x2="305.8" y2="54.4" stroke-width="0.6"/><path d="M280.1 141.8 Q329.8 129.7 345.6 94.2 Q307.0 98.3 280.1 141.8 Z" stroke-width="1.1"/><line x1="280.1" y1="141.8" x2="345.6" y2="94.2" stroke-width="0.6"/><path d="M294.2 169.4 Q345.2 173.3 371.2 144.4 Q333.2 136.3 294.2 169.4 Z" stroke-width="1.1"/><line x1="294.2" y1="169.4" x2="371.2" y2="144.4" stroke-width="0.6"/><path d="M281.2 214.3 Q316.7 238.8 347.7 226.0 Q323.0 203.4 281.2 214.3 Z" stroke-width="1.1"/><line x1="281.2" y1="214.3" x2="347.7" y2="226.0" stroke-width="0.6"/><path d="M271.4 241.2 Q296.4 276.4 329.9 275.0 Q314.4 245.3 271.4 241.2 Z" stroke-width="1.1"/><line x1="271.4" y1="241.2" x2="329.9" y2="275.0" stroke-width="0.6"/><path d="M253.0 263.2 Q264.5 304.8 296.4 314.9 Q292.0 281.7 253.0 263.2 Z" stroke-width="1.1"/><line x1="253.0" y1="263.2" x2="296.4" y2="314.9" stroke-width="0.6"/><path d="M228.2 277.5 Q224.7 320.5 251.3 341.0 Q258.5 308.2 228.2 277.5 Z" stroke-width="1.1"/><line x1="228.2" y1="277.5" x2="251.3" y2="341.0" stroke-width="0.6"/><path d="M200.0 282.5 Q182.0 321.7 200.0 350.0 Q218.0 321.7 200.0 282.5 Z" stroke-width="1.1"/><line x1="200.0" y1="282.5" x2="200.0" y2="350.0" stroke-width="0.6"/><path d="M171.8 277.5 Q141.5 308.2 148.7 341.0 Q175.3 320.5 171.8 277.5 Z" stroke-width="1.1"/><line x1="171.8" y1="277.5" x2="148.7" y2="341.0" stroke-width="0.6"/><path d="M147.0 263.2 Q108.0 281.7 103.6 314.9 Q135.5 304.8 147.0 263.2 Z" stroke-width="1.1"/><line x1="147.0" y1="263.2" x2="103.6" y2="314.9" stroke-width="0.6"/><path d="M128.6 241.2 Q85.6 245.3 70.1 275.0 Q103.6 276.4 128.6 241.2 Z" stroke-width="1.1"/><line x1="128.6" y1="241.2" x2="70.1" y2="275.0" stroke-width="0.6"/><path d="M118.8 214.3 Q77.0 203.4 52.3 226.0 Q83.3 238.8 118.8 214.3 Z" stroke-width="1.1"/><line x1="118.8" y1="214.3" x2="52.3" y2="226.0" stroke-width="0.6"/><path d="M118.8 185.7 Q83.3 161.2 52.3 174.0 Q77.0 196.6 118.8 185.7 Z" stroke-width="1.1"/><line x1="118.8" y1="185.7" x2="52.3" y2="174.0" stroke-width="0.6"/><path d="M128.6 158.8 Q103.6 123.6 70.1 125.0 Q85.6 154.7 128.6 158.8 Z" stroke-width="1.1"/><line x1="128.6" y1="158.8" x2="70.1" y2="125.0" stroke-width="0.6"/><path d="M147.0 136.8 Q135.5 95.2 103.6 85.1 Q108.0 118.3 147.0 136.8 Z" stroke-width="1.1"/><line x1="147.0" y1="136.8" x2="103.6" y2="85.1" stroke-width="0.6"/><path d="M171.8 122.5 Q175.3 79.5 148.7 59.0 Q141.5 91.8 171.8 122.5 Z" stroke-width="1.1"/><line x1="171.8" y1="122.5" x2="148.7" y2="59.0" stroke-width="0.6"/><path d="M200.0 117.5 Q218.0 78.3 200.0 50.0 Q182.0 78.3 200.0 117.5 Z" stroke-width="1.1"/><line x1="200.0" y1="117.5" x2="200.0" y2="50.0" stroke-width="0.6"/><path d="M228.2 122.5 Q258.5 91.8 251.3 59.0 Q224.7 79.5 228.2 122.5 Z" stroke-width="1.1"/><line x1="228.2" y1="122.5" x2="251.3" y2="59.0" stroke-width="0.6"/><path d="M253.0 136.8 Q292.0 118.3 296.4 85.1 Q264.5 95.2 253.0 136.8 Z" stroke-width="1.1"/><line x1="253.0" y1="136.8" x2="296.4" y2="85.1" stroke-width="0.6"/><path d="M271.4 158.7 Q314.4 154.7 329.9 125.0 Q296.4 123.6 271.4 158.7 Z" stroke-width="1.1"/><line x1="271.4" y1="158.7" x2="329.9" y2="125.0" stroke-width="0.6"/><path d="M281.2 185.7 Q323.0 196.6 347.7 174.0 Q316.7 161.2 281.2 185.7 Z" stroke-width="1.1"/><line x1="281.2" y1="185.7" x2="347.7" y2="174.0" stroke-width="0.6"/><path d="M266.0 200.0 Q296.9 217.2 320.0 200.0 Q296.9 182.8 266.0 200.0 Z" stroke-width="1.1"/><line x1="266.0" y1="200.0" x2="320.0" y2="200.0" stroke-width="0.6"/><path d="M260.3 226.8 Q281.5 255.1 309.6 248.8 Q295.5 223.7 260.3 226.8 Z" stroke-width="1.1"/><line x1="260.3" y1="226.8" x2="309.6" y2="248.8" stroke-width="0.6"/><path d="M244.2 249.0 Q252.0 283.5 280.3 289.2 Q277.6 260.5 244.2 249.0 Z" stroke-width="1.1"/><line x1="244.2" y1="249.0" x2="280.3" y2="289.2" stroke-width="0.6"/><path d="M220.4 262.8 Q213.6 297.5 237.1 314.1 Q246.3 286.8 220.4 262.8 Z" stroke-width="1.1"/><line x1="220.4" y1="262.8" x2="237.1" y2="314.1" stroke-width="0.6"/><path d="M193.1 265.6 Q172.7 294.6 187.5 319.3 Q207.0 298.2 193.1 265.6 Z" stroke-width="1.1"/><line x1="193.1" y1="265.6" x2="187.5" y2="319.3" stroke-width="0.6"/><path d="M167.0 257.2 Q136.6 275.3 140.0 303.9 Q166.5 292.5 167.0 257.2 Z" stroke-width="1.1"/><line x1="167.0" y1="257.2" x2="140.0" y2="303.9" stroke-width="0.6"/><path d="M146.6 238.8 Q111.5 243.0 102.9 270.5 Q131.7 270.9 146.6 238.8 Z" stroke-width="1.1"/><line x1="146.6" y1="238.8" x2="102.9" y2="270.5" stroke-width="0.6"/><path d="M135.4 213.7 Q101.7 203.3 82.6 224.9 Q108.8 237.0 135.4 213.7 Z" stroke-width="1.1"/><line x1="135.4" y1="213.7" x2="82.6" y2="224.9" stroke-width="0.6"/><path d="M135.4 186.3 Q108.8 163.0 82.6 175.1 Q101.7 196.7 135.4 186.3 Z" stroke-width="1.1"/><line x1="135.4" y1="186.3" x2="82.6" y2="175.1" stroke-width="0.6"/><path d="M146.6 161.2 Q131.7 129.1 102.9 129.5 Q111.5 157.0 146.6 161.2 Z" stroke-width="1.1"/><line x1="146.6" y1="161.2" x2="102.9" y2="129.5" stroke-width="0.6"/><path d="M167.0 142.8 Q166.5 107.5 140.0 96.1 Q136.6 124.7 167.0 142.8 Z" stroke-width="1.1"/><line x1="167.0" y1="142.8" x2="140.0" y2="96.1" stroke-width="0.6"/><path d="M193.1 134.4 Q207.0 101.8 187.5 80.7 Q172.7 105.4 193.1 134.4 Z" stroke-width="1.1"/><line x1="193.1" y1="134.4" x2="187.5" y2="80.7" stroke-width="0.6"/><path d="M220.4 137.2 Q246.3 113.2 237.1 85.9 Q213.6 102.5 220.4 137.2 Z" stroke-width="1.1"/><line x1="220.4" y1="137.2" x2="237.1" y2="85.9" stroke-width="0.6"/><path d="M244.2 151.0 Q277.6 139.5 280.3 110.8 Q252.0 116.5 244.2 151.0 Z" stroke-width="1.1"/><line x1="244.2" y1="151.0" x2="280.3" y2="110.8" stroke-width="0.6"/><path d="M260.3 173.2 Q295.5 176.3 309.6 151.2 Q281.5 144.9 260.3 173.2 Z" stroke-width="1.1"/><line x1="260.3" y1="173.2" x2="309.6" y2="151.2" stroke-width="0.6"/><path d="M248.9 213.1 Q266.9 235.0 288.9 223.8 Q275.4 203.2 248.9 213.1 Z" stroke-width="1.1"/><line x1="248.9" y1="213.1" x2="288.9" y2="223.8" stroke-width="0.6"/><path d="M235.8 235.8 Q240.4 263.7 265.1 265.1 Q263.7 240.4 235.8 235.8 Z" stroke-width="1.1"/><line x1="235.8" y1="235.8" x2="265.1" y2="265.1" stroke-width="0.6"/><path d="M213.1 248.9 Q203.2 275.4 223.8 288.9 Q235.0 266.9 213.1 248.9 Z" stroke-width="1.1"/><line x1="213.1" y1="248.9" x2="223.8" y2="288.9" stroke-width="0.6"/><path d="M186.9 248.9 Q165.0 266.9 176.2 288.9 Q196.8 275.4 186.9 248.9 Z" stroke-width="1.1"/><line x1="186.9" y1="248.9" x2="176.2" y2="288.9" stroke-width="0.6"/><path d="M164.2 235.8 Q136.3 240.4 134.9 265.1 Q159.6 263.7 164.2 235.8 Z" stroke-width="1.1"/><line x1="164.2" y1="235.8" x2="134.9" y2="265.1" stroke-width="0.6"/><path d="M151.1 213.1 Q124.6 203.2 111.1 223.8 Q133.1 235.0 151.1 213.1 Z" stroke-width="1.1"/><line x1="151.1" y1="213.1" x2="111.1" y2="223.8" stroke-width="0.6"/><path d="M151.1 186.9 Q133.1 165.0 111.1 176.2 Q124.6 196.8 151.1 186.9 Z" stroke-width="1.1"/><line x1="151.1" y1="186.9" x2="111.1" y2="176.2" stroke-width="0.6"/><path d="M164.2 164.2 Q159.6 136.3 134.9 134.9 Q136.3 159.6 164.2 164.2 Z" stroke-width="1.1"/><line x1="164.2" y1="164.2" x2="134.9" y2="134.9" stroke-width="0.6"/><path d="M186.9 151.1 Q196.8 124.6 176.2 111.1 Q165.0 133.1 186.9 151.1 Z" stroke-width="1.1"/><line x1="186.9" y1="151.1" x2="176.2" y2="111.1" stroke-width="0.6"/><path d="M213.1 151.1 Q235.0 133.1 223.8 111.1 Q203.2 124.6 213.1 151.1 Z" stroke-width="1.1"/><line x1="213.1" y1="151.1" x2="223.8" y2="111.1" stroke-width="0.6"/><path d="M235.8 164.2 Q263.7 159.6 265.1 134.9 Q240.4 136.3 235.8 164.2 Z" stroke-width="1.1"/><line x1="235.8" y1="164.2" x2="265.1" y2="134.9" stroke-width="0.6"/><path d="M248.9 186.9 Q275.4 196.8 288.9 176.2 Q266.9 165.0 248.9 186.9 Z" stroke-width="1.1"/><line x1="248.9" y1="186.9" x2="288.9" y2="176.2" stroke-width="0.6"/><path d="M236.3 200.0 Q252.2 214.1 266.0 200.0 Q252.2 185.9 236.3 200.0 Z" stroke-width="1.1"/><line x1="236.3" y1="200.0" x2="266.0" y2="200.0" stroke-width="0.6"/><path d="M229.4 221.3 Q234.0 242.1 253.4 238.8 Q250.6 219.3 229.4 221.3 Z" stroke-width="1.1"/><line x1="229.4" y1="221.3" x2="253.4" y2="238.8" stroke-width="0.6"/><path d="M211.2 234.5 Q202.7 254.1 220.4 262.8 Q229.6 245.3 211.2 234.5 Z" stroke-width="1.1"/><line x1="211.2" y1="234.5" x2="220.4" y2="262.8" stroke-width="0.6"/><path d="M188.8 234.5 Q170.4 245.3 179.6 262.8 Q197.3 254.1 188.8 234.5 Z" stroke-width="1.1"/><line x1="188.8" y1="234.5" x2="179.6" y2="262.8" stroke-width="0.6"/><path d="M170.6 221.3 Q149.4 219.3 146.6 238.8 Q166.0 242.1 170.6 221.3 Z" stroke-width="1.1"/><line x1="170.6" y1="221.3" x2="146.6" y2="238.8" stroke-width="0.6"/><path d="M163.7 200.0 Q147.8 185.9 134.0 200.0 Q147.8 214.1 163.7 200.0 Z" stroke-width="1.1"/><line x1="163.7" y1="200.0" x2="134.0" y2="200.0" stroke-width="0.6"/><path d="M170.6 178.7 Q166.0 157.9 146.6 161.2 Q149.4 180.7 170.6 178.7 Z" stroke-width="1.1"/><line x1="170.6" y1="178.7" x2="146.6" y2="161.2" stroke-width="0.6"/><path d="M188.8 165.5 Q197.3 145.9 179.6 137.2 Q170.4 154.7 188.8 165.5 Z" stroke-width="1.1"/><line x1="188.8" y1="165.5" x2="179.6" y2="137.2" stroke-width="0.6"/><path d="M211.2 165.5 Q229.6 154.7 220.4 137.2 Q202.7 145.9 211.2 165.5 Z" stroke-width="1.1"/><line x1="211.2" y1="165.5" x2="220.4" y2="137.2" stroke-width="0.6"/><path d="M229.4 178.7 Q250.6 180.7 253.4 161.2 Q234.0 157.9 229.4 178.7 Z" stroke-width="1.1"/><line x1="229.4" y1="178.7" x2="253.4" y2="161.2" stroke-width="0.6"/><path d="M222.4 209.3 Q227.1 223.9 240.7 216.8 Q236.0 202.3 222.4 209.3 Z" stroke-width="1.1"/><line x1="222.4" y1="209.3" x2="240.7" y2="216.8" stroke-width="0.6"/><path d="M209.3 222.4 Q202.3 236.0 216.8 240.7 Q223.9 227.1 209.3 222.4 Z" stroke-width="1.1"/><line x1="209.3" y1="222.4" x2="216.8" y2="240.7" stroke-width="0.6"/><path d="M190.7 222.4 Q176.1 227.1 183.2 240.7 Q197.7 236.0 190.7 222.4 Z" stroke-width="1.1"/><line x1="190.7" y1="222.4" x2="183.2" y2="240.7" stroke-width="0.6"/><path d="M177.6 209.3 Q164.0 202.3 159.3 216.8 Q172.9 223.9 177.6 209.3 Z" stroke-width="1.1"/><line x1="177.6" y1="209.3" x2="159.3" y2="216.8" stroke-width="0.6"/><path d="M177.6 190.7 Q172.9 176.1 159.3 183.2 Q164.0 197.7 177.6 190.7 Z" stroke-width="1.1"/><line x1="177.6" y1="190.7" x2="159.3" y2="183.2" stroke-width="0.6"/><path d="M190.7 177.6 Q197.7 164.0 183.2 159.3 Q176.1 172.9 190.7 177.6 Z" stroke-width="1.1"/><line x1="190.7" y1="177.6" x2="183.2" y2="159.3" stroke-width="0.6"/><path d="M209.3 177.6 Q223.9 172.9 216.8 159.3 Q202.3 164.0 209.3 177.6 Z" stroke-width="1.1"/><line x1="209.3" y1="177.6" x2="216.8" y2="159.3" stroke-width="0.6"/><path d="M222.4 190.7 Q236.0 197.7 240.7 183.2 Q227.1 176.1 222.4 190.7 Z" stroke-width="1.1"/><line x1="222.4" y1="190.7" x2="240.7" y2="183.2" stroke-width="0.6"/><circle cx="200" cy="200" r="16"/><circle cx="209.0" cy="200.0" r="1.6" stroke-width="0.7"/><circle cx="207.8" cy="204.5" r="1.6" stroke-width="0.7"/><circle cx="204.5" cy="207.8" r="1.6" stroke-width="0.7"/><circle cx="200.0" cy="209.0" r="1.6" stroke-width="0.7"/><circle cx="195.5" cy="207.8" r="1.6" stroke-width="0.7"/><circle cx="192.2" cy="204.5" r="1.6" stroke-width="0.7"/><circle cx="191.0" cy="200.0" r="1.6" stroke-width="0.7"/><circle cx="192.2" cy="195.5" r="1.6" stroke-width="0.7"/><circle cx="195.5" cy="192.2" r="1.6" stroke-width="0.7"/><circle cx="200.0" cy="191.0" r="1.6" stroke-width="0.7"/><circle cx="204.5" cy="192.2" r="1.6" stroke-width="0.7"/><circle cx="207.8" cy="195.5" r="1.6" stroke-width="0.7"/></g></svg>