<svg xmlns="http://www.w3.org/2000/svg" viewBox="0 0 200 200" width="200" height="200"><rect width="200" height="200" fill="#ffffff"/><g fill="none" stroke="#1a1a1a" stroke-width="2.5" stroke-linecap="round" stroke-linejoin="round">
    <path d="M100 55 Q72 50 65 75 Q48 88 65 105 Q52 125 78 132 Q82 152 110 145 Q138 152 142 125 Q162 110 142 95 Q150 72 122 68 Q118 48 100 55 Z"/>
    <path d="M100 65 Q82 65 80 82 Q70 92 82 102 Q78 115 98 118 Q100 130 118 124 Q136 128 138 110 Q150 100 136 90 Q140 75 122 75 Q116 60 100 65 Z" stroke-width="1.5"/>
    <path d="M100 78 Q90 80 90 92 Q86 100 96 105 Q98 112 110 108 Q120 112 122 100 Q130 94 120 86 Q122 78 110 80 Q106 72 100 78 Z" stroke-width="1"/>
    <path d="M104 145 V190" stroke-width="1.5"/>
    <path d="M104 160 q-8 -2 -18 6 q10 8 18 2 Z M104 175 q10 -2 20 6 q-12 8 -20 2 Z"/>
    <path d="M86 167 q-14 0 -16 8" stroke-width="0.75"/><path d="M122 181 q14 0 16 8" stroke-width="0.75"/>
    <path d="M100 165 l-4 6 M122 178 l4 6" stroke-width="1.5"/>
    <line x1="0" y1="192" x2="200" y2="192" stroke-width="0.75"/><line x1="0" y1="196" x2="200" y2="196" stroke-width="0.75"/>
  </g></svg>