<svg xmlns="http://www.w3.org/2000/svg" viewBox="0 0 200 200" width="200" height="200"><rect width="200" height="200" fill="#ffffff"/><g fill="none" stroke="#1a1a1a" stroke-width="2.5" stroke-linecap="round" stroke-linejoin="round">
    <circle cx="100" cy="100" r="20"/>
    <circle cx="92" cy="93" r="2" fill="#1a1a1a"/>
    <circle cx="105" cy="92" r="2" fill="#1a1a1a"/>
    <circle cx="97" cy="105" r="2" fill="#1a1a1a"/>
    <circle cx="108" cy="106" r="2" fill="#1a1a1a"/>
    <circle cx="100" cy="98" r="2" fill="#1a1a1a"/>
    <path d="M122.0 100.0 Q135.4 106.4 150.0 100.0 Q122.0 106.4 122.0 100.0Z"/><line x1="122.0" y1="100.0" x2="136.0" y2="100.0" stroke-width="0.6"/><path d="M117.8 112.9 Q124.9 126.0 140.5 129.4 Q117.8 126.0 117.8 112.9Z"/><line x1="117.8" y1="112.9" x2="129.1" y2="121.2" stroke-width="0.6"/><path d="M106.8 120.9 Q104.8 135.7 115.5 147.6 Q106.8 135.7 106.8 120.9Z"/><line x1="106.8" y1="120.9" x2="111.1" y2="134.2" stroke-width="0.6"/><path d="M93.2 120.9 Q82.9 131.7 84.5 147.6 Q93.2 131.7 93.2 120.9Z"/><line x1="93.2" y1="120.9" x2="88.9" y2="134.2" stroke-width="0.6"/><path d="M82.2 112.9 Q67.6 115.6 59.5 129.4 Q82.2 115.6 82.2 112.9Z"/><line x1="82.2" y1="112.9" x2="70.9" y2="121.2" stroke-width="0.6"/><path d="M78.0 100.0 Q64.6 93.6 50.0 100.0 Q78.0 93.6 78.0 100.0Z"/><line x1="78.0" y1="100.0" x2="64.0" y2="100.0" stroke-width="0.6"/><path d="M82.2 87.1 Q75.1 74.0 59.5 70.6 Q82.2 74.0 82.2 87.1Z"/><line x1="82.2" y1="87.1" x2="70.9" y2="78.8" stroke-width="0.6"/><path d="M93.2 79.1 Q95.2 64.3 84.5 52.4 Q93.2 64.3 93.2 79.1Z"/><line x1="93.2" y1="79.1" x2="88.9" y2="65.8" stroke-width="0.6"/><path d="M106.8 79.1 Q117.1 68.3 115.5 52.4 Q106.8 68.3 106.8 79.1Z"/><line x1="106.8" y1="79.1" x2="111.1" y2="65.8" stroke-width="0.6"/><path d="M117.8 87.1 Q132.4 84.4 140.5 70.6 Q117.8 84.4 117.8 87.1Z"/><line x1="117.8" y1="87.1" x2="129.1" y2="78.8" stroke-width="0.6"/>
    <path d="M100 150 v35"/>
    <path d="M100 175 q-20 0 -28 -15"/>
    <path d="M96 172 Q86 165 79 162" stroke-width="0.6"/>
    <path d="M100 165 q22 -2 30 12"/>
    <path d="M104 164 Q113 168 122 174" stroke-width="0.6"/>
  </g></svg>