<svg xmlns="http://www.w3.org/2000/svg" viewBox="0 0 200 200" width="200" height="200"><g fill="none" stroke="#1a1a1a" stroke-width="2.5" stroke-linecap="round" stroke-linejoin="round">
    <circle cx="100" cy="100" r="14" fill="#1a1a1a"/>
    <ellipse cx="132.5" cy="100" rx="14" ry="6" transform="rotate(0 132.5 100)"/><line x1="120.0" y1="100.0" x2="145.0" y2="100.0" stroke-width="0.6"/><ellipse cx="122.9809703885628" cy="122.9809703885628" rx="14" ry="6" transform="rotate(45 122.9809703885628 122.9809703885628)"/><line x1="114.1" y1="114.1" x2="131.8" y2="131.8" stroke-width="0.6"/><ellipse cx="100" cy="132.5" rx="14" ry="6" transform="rotate(90 100 132.5)"/><line x1="100.0" y1="120.0" x2="100.0" y2="145.0" stroke-width="0.6"/><ellipse cx="77.0190296114372" cy="122.9809703885628" rx="14" ry="6" transform="rotate(135 77.0190296114372 122.9809703885628)"/><line x1="85.9" y1="114.1" x2="68.2" y2="131.8" stroke-width="0.6"/><ellipse cx="67.5" cy="100" rx="14" ry="6" transform="rotate(180 67.5 100)"/><line x1="80.0" y1="100.0" x2="55.0" y2="100.0" stroke-width="0.6"/><ellipse cx="77.0190296114372" cy="77.0190296114372" rx="14" ry="6" transform="rotate(225 77.0190296114372 77.0190296114372)"/><line x1="85.9" y1="85.9" x2="68.2" y2="68.2" stroke-width="0.6"/><ellipse cx="100" cy="67.5" rx="14" ry="6" transform="rotate(270 100 67.5)"/><line x1="100.0" y1="80.0" x2="100.0" y2="55.0" stroke-width="0.6"/><ellipse cx="122.9809703885628" cy="77.0190296114372" rx="14" ry="6" transform="rotate(315 122.9809703885628 77.0190296114372)"/><line x1="114.1" y1="85.9" x2="131.8" y2="68.2" stroke-width="0.6"/>
    <path d="M100 145 v40"/>
    <path d="M100 165 q-22 -2 -26 -18 q18 0 26 14Z"/>
    <line x1="80" y1="150" x2="100" y2="150" stroke-width="0.5"/><line x1="80" y1="154" x2="100" y2="154" stroke-width="0.5"/><line x1="80" y1="158" x2="100" y2="158" stroke-width="0.5"/><line x1="80" y1="162" x2="100" y2="162" stroke-width="0.5"/>
    <path d="M100 175 q22 -2 26 -18 q-18 0 -26 14Z"/>
    <line x1="100" y1="150" x2="120" y2="150" stroke-width="0.5"/><line x1="100" y1="154" x2="120" y2="154" stroke-width="0.5"/><line x1="100" y1="158" x2="120" y2="158" stroke-width="0.5"/><line x1="100" y1="162" x2="120" y2="162" stroke-width="0.5"/>
  </g></svg>