<svg xmlns="http://www.w3.org/2000/svg" viewBox="0 0 200 200" width="200" height="200"><rect width="200" height="200" fill="#ffffff"/><g fill="none" stroke="#1a1a1a" stroke-width="2.5" stroke-linecap="round" stroke-linejoin="round">
    <path d="M75 85 Q70 45 100 55 Q130 45 125 85 Q125 105 100 112 Q75 105 75 85 Z"/>
    <path d="M88 60 Q92 80 100 90"/>
    <path d="M112 60 Q108 80 100 90"/>
    <path d="M100 60 V100" stroke-width="1"/>
    <path d="M100 112 V175"/>
    <path d="M100 145 Q65 145 58 170"/>
    <line x1="55" y1="148" x2="80" y2="148" stroke-width="0.5"/><line x1="55" y1="154.66666666666666" x2="80" y2="154.66666666666666" stroke-width="0.5"/><line x1="55" y1="161.33333333333334" x2="80" y2="161.33333333333334" stroke-width="0.5"/><line x1="55" y1="168" x2="80" y2="168" stroke-width="0.5"/>
    <path d="M100 155 Q135 155 142 178"/>
    <line x1="105" y1="158" x2="140" y2="158" stroke-width="0.5"/><line x1="105" y1="164.66666666666666" x2="140" y2="164.66666666666666" stroke-width="0.5"/><line x1="105" y1="171.33333333333334" x2="140" y2="171.33333333333334" stroke-width="0.5"/><line x1="105" y1="178" x2="140" y2="178" stroke-width="0.5"/>
  </g></svg>