<svg xmlns="http://www.w3.org/2000/svg" viewBox="0 0 200 200" width="200" height="200"><rect width="200" height="200" fill="#ffffff"/><g fill="none" stroke="#1a1a1a" stroke-width="2.5" stroke-linecap="round" stroke-linejoin="round">
    <path d="M40 110 l60 -50 l60 50"/>
    <path d="M52.0 100.0 l60 40.0" stroke-width="0.6"/><path d="M64.0 90.0 l60 30.0" stroke-width="0.6"/><path d="M76.0 80.0 l60 20.0" stroke-width="0.6"/><path d="M88.0 70.0 l60 10.0" stroke-width="0.6"/>
    <rect x="55" y="110" width="90" height="60"/>
    <rect x="90" y="135" width="22" height="35"/>
    <circle cx="108" cy="153" r="1.5" fill="#1a1a1a"/>
    <rect x="65" y="120" width="20" height="20"/>
    <path d="M75 120 v20 M65 130 h20" stroke-width="1"/>
    <rect x="115" y="120" width="20" height="20"/>
    <path d="M125 120 v20 M115 130 h20" stroke-width="1"/>
    <line x1="58" y1="148" x2="82" y2="148" stroke-width="0.5"/><line x1="58" y1="154.33333333333334" x2="82" y2="154.33333333333334" stroke-width="0.5"/><line x1="58" y1="160.66666666666666" x2="82" y2="160.66666666666666" stroke-width="0.5"/><line x1="58" y1="167" x2="82" y2="167" stroke-width="0.5"/>
    <line x1="118" y1="148" x2="142" y2="148" stroke-width="0.5"/><line x1="118" y1="154.33333333333334" x2="142" y2="154.33333333333334" stroke-width="0.5"/><line x1="118" y1="160.66666666666666" x2="142" y2="160.66666666666666" stroke-width="0.5"/><line x1="118" y1="167" x2="142" y2="167" stroke-width="0.5"/>
  </g></svg>