<svg xmlns="http://www.w3.org/2000/svg" viewBox="0 0 200 200" width="200" height="200"><g fill="none" stroke="#1a1a1a" stroke-width="2.5" stroke-linecap="round" stroke-linejoin="round">
    <path d="M40 190 V40"/>
    <path d="M55 190 V40"/>
    <path d="M145 190 V40"/>
    <path d="M160 190 V40"/>
    <line x1="40" y1="40" x2="55" y2="40" stroke-width="0.75"/><line x1="40" y1="55" x2="55" y2="55" stroke-width="0.75"/><line x1="40" y1="70" x2="55" y2="70" stroke-width="0.75"/><line x1="40" y1="85" x2="55" y2="85" stroke-width="0.75"/><line x1="40" y1="100" x2="55" y2="100" stroke-width="0.75"/>
    <line x1="145" y1="40" x2="160" y2="40" stroke-width="0.75"/><line x1="145" y1="55" x2="160" y2="55" stroke-width="0.75"/><line x1="145" y1="70" x2="160" y2="70" stroke-width="0.75"/><line x1="145" y1="85" x2="160" y2="85" stroke-width="0.75"/><line x1="145" y1="100" x2="160" y2="100" stroke-width="0.75"/>
    <path d="M40 40 H55 M145 40 H160"/>
    <path d="M47 40 Q100 90 153 40" stroke-width="1.5"/>
    <path d="M47 55 Q100 100 153 55" stroke-width="1.5"/>
    <line x1="47" y1="40" x2="47" y2="170" stroke-width="0.75"/><line x1="57.6" y1="61.6" x2="57.6" y2="170" stroke-width="0.75"/><line x1="68.2" y1="78.4" x2="68.2" y2="170" stroke-width="0.75"/><line x1="78.8" y1="90.4" x2="78.8" y2="170" stroke-width="0.75"/><line x1="89.4" y1="97.6" x2="89.4" y2="170" stroke-width="0.75"/><line x1="100" y1="100" x2="100" y2="170" stroke-width="0.75"/><line x1="110.6" y1="97.6" x2="110.6" y2="170" stroke-width="0.75"/><line x1="121.2" y1="90.4" x2="121.2" y2="170" stroke-width="0.75"/><line x1="131.8" y1="78.39999999999999" x2="131.8" y2="170" stroke-width="0.75"/><line x1="142.4" y1="61.599999999999994" x2="142.4" y2="170" stroke-width="0.75"/><line x1="153" y1="40" x2="153" y2="170" stroke-width="0.75"/>
    <path d="M20 170 H180"/>
    <line x1="20" y1="175" x2="180" y2="175" stroke-width="0.75"/><line x1="20" y1="180" x2="180" y2="180" stroke-width="0.75"/><line x1="20" y1="185" x2="180" y2="185" stroke-width="0.75"/><line x1="20" y1="190" x2="180" y2="190" stroke-width="0.75"/>
  </g></svg>