<svg xmlns="http://www.w3.org/2000/svg" viewBox="0 0 200 200" width="200" height="200"><rect width="200" height="200" fill="#ffffff"/><g fill="none" stroke="#1a1a1a" stroke-width="2.5" stroke-linecap="round" stroke-linejoin="round">
    <ellipse cx="100" cy="75" rx="32" ry="38"/>
    <path d="M68 75 a32 38 0 0 1 64 0"/>
    <path d="M100 37 v-12" stroke-width="1.5"/>
    <circle cx="100" cy="22" r="4"/>
    <path d="M68 100 H132 V160 H68 Z"/>
    <path d="M80 100 V160 M120 100 V160" stroke-width="1.5"/>
    <path d="M85 160 q15 -40 15 -40 q0 0 15 40" stroke-width="1.5"/>
    <path d="M28 100 V190"/><path d="M52 100 V190"/><ellipse cx="40" cy="92" rx="12" ry="14"/><path d="M40 64 v-10" stroke-width="1.5"/><circle cx="40" cy="50" r="3"/><path d="M148 100 V190"/><path d="M172 100 V190"/><ellipse cx="160" cy="92" rx="12" ry="14"/><path d="M160 64 v-10" stroke-width="1.5"/><circle cx="160" cy="50" r="3"/>
    <path d="M30 190 H170"/>
    <line x1="60" y1="162" x2="140" y2="162" stroke-width="0.75"/><line x1="60" y1="168.5" x2="140" y2="168.5" stroke-width="0.75"/><line x1="60" y1="175" x2="140" y2="175" stroke-width="0.75"/><line x1="60" y1="181.5" x2="140" y2="181.5" stroke-width="0.75"/><line x1="60" y1="188" x2="140" y2="188" stroke-width="0.75"/>
  </g></svg>