<svg xmlns="http://www.w3.org/2000/svg" viewBox="0 0 200 200" width="200" height="200"><rect width="200" height="200" fill="#ffffff"/><g fill="none" stroke="#1a1a1a" stroke-width="2.5" stroke-linecap="round" stroke-linejoin="round">
    <path d="M85 195 V145 Q80 95 90 65 V42 H110 V65 Q120 95 115 145 V195"/>
    <line x1="88" y1="65" x2="88" y2="195" stroke-width="0.75"/><line x1="92" y1="65" x2="92" y2="195" stroke-width="0.75"/><line x1="96" y1="65" x2="96" y2="195" stroke-width="0.75"/><line x1="100" y1="65" x2="100" y2="195" stroke-width="0.75"/><line x1="104" y1="65" x2="104" y2="195" stroke-width="0.75"/><line x1="108" y1="65" x2="108" y2="195" stroke-width="0.75"/><line x1="112" y1="65" x2="112" y2="195" stroke-width="0.75"/>
    <circle cx="100" cy="30" r="10"/>
    <line x1="91.33974596215562" y1="24.999999999999996" x2="82.67949192431124" y2="19.999999999999993"/><line x1="93.57212390313461" y1="22.33955556881022" x2="87.14424780626922" y2="14.67911113762044"/><line x1="96.5797985667433" y1="20.603073792140915" x2="93.15959713348663" y2="11.20614758428183"/><line x1="100" y1="20" x2="100" y2="10"/><line x1="103.4202014332567" y1="20.60307379214092" x2="106.84040286651337" y2="11.206147584281833"/><line x1="106.42787609686539" y1="22.33955556881022" x2="112.85575219373078" y2="14.67911113762044"/><line x1="108.66025403784438" y1="25" x2="117.32050807568876" y2="20"/>
    <path d="M110 50 Q130 42 135 22" stroke-width="1.5"/>
    <path d="M133 27 q-7 -10 0 -22 q7 12 0 22 Z" stroke-width="1.5"/>
    <path d="M62 92 q-6 0 -8 8 V130 H74 V100 q0 -8 -6 -8 Z"/>
    <path d="M55 195 H145"/>
  </g></svg>