<svg xmlns="http://www.w3.org/2000/svg" viewBox="0 0 200 200" width="200" height="200"><rect width="200" height="200" fill="#ffffff"/><g fill="none" stroke="#1a1a1a" stroke-width="2.5" stroke-linecap="round" stroke-linejoin="round">
    <path d="M70 190 V60 H130 V190"/>
    <line x1="70" y1="60" x2="130" y2="60" stroke-width="0.75"/><line x1="70" y1="74.44444444444444" x2="130" y2="74.44444444444444" stroke-width="0.75"/><line x1="70" y1="88.88888888888889" x2="130" y2="88.88888888888889" stroke-width="0.75"/><line x1="70" y1="103.33333333333334" x2="130" y2="103.33333333333334" stroke-width="0.75"/><line x1="70" y1="117.77777777777777" x2="130" y2="117.77777777777777" stroke-width="0.75"/><line x1="70" y1="132.22222222222223" x2="130" y2="132.22222222222223" stroke-width="0.75"/><line x1="70" y1="146.66666666666669" x2="130" y2="146.66666666666669" stroke-width="0.75"/><line x1="70" y1="161.11111111111111" x2="130" y2="161.11111111111111" stroke-width="0.75"/><line x1="70" y1="175.55555555555554" x2="130" y2="175.55555555555554" stroke-width="0.75"/><line x1="70" y1="190" x2="130" y2="190" stroke-width="0.75"/>
    <path d="M70 60 V35 H130 V60 Z"/>
    <circle cx="100" cy="50" r="18"/>
    <line x1="114" y1="50" x2="118" y2="50" stroke-width="1"/><line x1="112.12435565298215" y1="57" x2="115.5884572681199" y2="59" stroke-width="1"/><line x1="107" y1="62.12435565298214" x2="109" y2="65.5884572681199" stroke-width="1"/><line x1="100" y1="64" x2="100" y2="68" stroke-width="1"/><line x1="93" y1="62.124355652982146" x2="91" y2="65.5884572681199" stroke-width="1"/><line x1="87.87564434701785" y1="57" x2="84.4115427318801" y2="59" stroke-width="1"/><line x1="86" y1="50" x2="82" y2="50" stroke-width="1"/><line x1="87.87564434701785" y1="43" x2="84.4115427318801" y2="41.00000000000001" stroke-width="1"/><line x1="93" y1="37.87564434701786" x2="91" y2="34.411542731880104" stroke-width="1"/><line x1="100" y1="36" x2="100" y2="32" stroke-width="1"/><line x1="107" y1="37.87564434701786" x2="109" y2="34.411542731880104" stroke-width="1"/><line x1="112.12435565298213" y1="42.99999999999999" x2="115.5884572681199" y2="40.99999999999999" stroke-width="1"/>
    <path d="M100 50 L92 42"/>
    <path d="M100 50 L112 56" stroke-width="1.5"/>
    <path d="M82 35 L100 12 L118 35 Z"/>
    <line x1="85" y1="35" x2="85" y2="12" stroke-width="0.75"/><line x1="92.5" y1="35" x2="92.5" y2="12" stroke-width="0.75"/><line x1="100" y1="35" x2="100" y2="12" stroke-width="0.75"/><line x1="107.5" y1="35" x2="107.5" y2="12" stroke-width="0.75"/><line x1="115" y1="35" x2="115" y2="12" stroke-width="0.75"/>
    <path d="M65 35 v-8" stroke-width="1.5"/>
    <path d="M135 35 v-8" stroke-width="1.5"/>
    <path d="M61 27 l4 -6 l4 6Z"/>
    <path d="M139 27 l-4 -6 l-4 6Z"/>
    <path d="M55 190 H145"/>
  </g></svg>