<svg xmlns="http://www.w3.org/2000/svg" viewBox="0 0 200 200" width="200" height="200"><rect width="200" height="200" fill="#ffffff"/><g fill="none" stroke="#1a1a1a" stroke-width="2.5" stroke-linecap="round" stroke-linejoin="round">
    <g transform="skewX(-8)">
      <path d="M75 190 L88 30 H112 L125 190 Z"/>
      <ellipse cx="100" cy="40" rx="21.6" ry="3"/><ellipse cx="100" cy="70" rx="20.4" ry="3"/><ellipse cx="100" cy="100" rx="19.2" ry="3"/><ellipse cx="100" cy="130" rx="18" ry="3"/><ellipse cx="100" cy="160" rx="16.8" ry="3"/>
      <path d="M82 45 a3 4 0 0 1 6 0" stroke-width="0.75"/><path d="M89 45 a3 4 0 0 1 6 0" stroke-width="0.75"/><path d="M96 45 a3 4 0 0 1 6 0" stroke-width="0.75"/><path d="M103 45 a3 4 0 0 1 6 0" stroke-width="0.75"/><path d="M110 45 a3 4 0 0 1 6 0" stroke-width="0.75"/><path d="M117 45 a3 4 0 0 1 6 0" stroke-width="0.75"/><path d="M82 77 a3 4 0 0 1 6 0" stroke-width="0.75"/><path d="M89 77 a3 4 0 0 1 6 0" stroke-width="0.75"/><path d="M96 77 a3 4 0 0 1 6 0" stroke-width="0.75"/><path d="M103 77 a3 4 0 0 1 6 0" stroke-width="0.75"/><path d="M110 77 a3 4 0 0 1 6 0" stroke-width="0.75"/><path d="M117 77 a3 4 0 0 1 6 0" stroke-width="0.75"/><path d="M82 109 a3 4 0 0 1 6 0" stroke-width="0.75"/><path d="M89 109 a3 4 0 0 1 6 0" stroke-width="0.75"/><path d="M96 109 a3 4 0 0 1 6 0" stroke-width="0.75"/><path d="M103 109 a3 4 0 0 1 6 0" stroke-width="0.75"/><path d="M110 109 a3 4 0 0 1 6 0" stroke-width="0.75"/><path d="M117 109 a3 4 0 0 1 6 0" stroke-width="0.75"/><path d="M82 141 a3 4 0 0 1 6 0" stroke-width="0.75"/><path d="M89 141 a3 4 0 0 1 6 0" stroke-width="0.75"/><path d="M96 141 a3 4 0 0 1 6 0" stroke-width="0.75"/><path d="M103 141 a3 4 0 0 1 6 0" stroke-width="0.75"/><path d="M110 141 a3 4 0 0 1 6 0" stroke-width="0.75"/><path d="M117 141 a3 4 0 0 1 6 0" stroke-width="0.75"/><path d="M82 173 a3 4 0 0 1 6 0" stroke-width="0.75"/><path d="M89 173 a3 4 0 0 1 6 0" stroke-width="0.75"/><path d="M96 173 a3 4 0 0 1 6 0" stroke-width="0.75"/><path d="M103 173 a3 4 0 0 1 6 0" stroke-width="0.75"/><path d="M110 173 a3 4 0 0 1 6 0" stroke-width="0.75"/><path d="M117 173 a3 4 0 0 1 6 0" stroke-width="0.75"/>
    </g>
    <path d="M60 190 H140"/>
  </g></svg>