<svg xmlns="http://www.w3.org/2000/svg" viewBox="0 0 200 200" width="200" height="200"><rect width="200" height="200" fill="#ffffff"/><g fill="none" stroke="#1a1a1a" stroke-width="2.5" stroke-linecap="round" stroke-linejoin="round">
    <path d="M85 190 L92 60 H108 L115 190 Z"/>
    <line x1="86" y1="70" x2="114" y2="70" stroke-width="0.75"/><line x1="86" y1="90" x2="114" y2="90" stroke-width="0.75"/><line x1="86" y1="110" x2="114" y2="110" stroke-width="0.75"/><line x1="86" y1="130" x2="114" y2="130" stroke-width="0.75"/><line x1="86" y1="150" x2="114" y2="150" stroke-width="0.75"/><line x1="86" y1="170" x2="114" y2="170" stroke-width="0.75"/><line x1="86" y1="190" x2="114" y2="190" stroke-width="0.75"/>
    <path d="M90 60 H110 V50 H90 Z"/>
    <path d="M108 58 L148 64 L148 52 Z"/><line x1="116" y1="65.04" x2="116" y2="50.96" stroke-width="0.75"/><line x1="124" y1="64.08" x2="124" y2="51.92" stroke-width="0.75"/><line x1="132" y1="63.12" x2="132" y2="52.88" stroke-width="0.75"/><line x1="140" y1="62.16" x2="140" y2="53.84" stroke-width="0.75"/><path d="M100 66 L94 106 L106 106 Z"/><line x1="92.96" y1="74" x2="107.04" y2="74" stroke-width="0.75"/><line x1="93.92" y1="82" x2="106.08" y2="82" stroke-width="0.75"/><line x1="94.88" y1="90" x2="105.12" y2="90" stroke-width="0.75"/><line x1="95.84" y1="98" x2="104.16" y2="98" stroke-width="0.75"/><path d="M92 58 L52 52.00000000000001 L52 64 Z"/><line x1="84" y1="50.96" x2="84" y2="65.04" stroke-width="0.75"/><line x1="76" y1="51.92" x2="76" y2="64.08" stroke-width="0.75"/><line x1="68" y1="52.88000000000001" x2="68" y2="63.120000000000005" stroke-width="0.75"/><line x1="60" y1="53.84" x2="60" y2="62.16000000000001" stroke-width="0.75"/><path d="M100 50 L105.99999999999999 9.999999999999998 L93.99999999999999 10.000000000000002 Z"/><line x1="107.04" y1="42" x2="92.96" y2="42" stroke-width="0.75"/><line x1="106.08" y1="34" x2="93.92" y2="34" stroke-width="0.75"/><line x1="105.11999999999999" y1="26" x2="94.87999999999998" y2="26" stroke-width="0.75"/><line x1="104.15999999999998" y1="18" x2="95.83999999999999" y2="18" stroke-width="0.75"/>
    <circle cx="100" cy="55" r="4" fill="#1a1a1a"/>
    <path d="M70 190 H130" stroke-width="1.5"/>
    <line x1="0" y1="193" x2="200" y2="193" stroke-width="0.75"/><line x1="0" y1="197" x2="200" y2="197" stroke-width="0.75"/>
  </g></svg>