<svg xmlns="http://www.w3.org/2000/svg" viewBox="0 0 200 200" width="200" height="200"><g fill="none" stroke="#1a1a1a" stroke-width="2.5" stroke-linecap="round" stroke-linejoin="round">
    <path d="M30 190 L90 70 L150 190 Z"/>
    <path d="M100 190 L150 100 L190 190 Z"/>
    <path d="M55 190 L80 140 L100 190 Z"/>
    <line x1="90" y1="70" x2="90" y2="70" stroke-width="0.75"/><line x1="84" y1="82" x2="96" y2="82" stroke-width="0.75"/><line x1="78" y1="94" x2="102" y2="94" stroke-width="0.75"/><line x1="72" y1="106" x2="108" y2="106" stroke-width="0.75"/><line x1="66" y1="118" x2="114" y2="118" stroke-width="0.75"/><line x1="60" y1="130" x2="120" y2="130" stroke-width="0.75"/><line x1="54" y1="142" x2="126" y2="142" stroke-width="0.75"/><line x1="48" y1="154" x2="132" y2="154" stroke-width="0.75"/><line x1="42" y1="166" x2="138" y2="166" stroke-width="0.75"/><line x1="36" y1="178" x2="144" y2="178" stroke-width="0.75"/>
    <line x1="150" y1="100" x2="150" y2="100" stroke-width="0.75"/><line x1="145.05" y1="111" x2="154.95" y2="111" stroke-width="0.75"/><line x1="140.1" y1="122" x2="159.9" y2="122" stroke-width="0.75"/><line x1="135.15" y1="133" x2="164.85" y2="133" stroke-width="0.75"/><line x1="130.2" y1="144" x2="169.8" y2="144" stroke-width="0.75"/><line x1="125.25" y1="155" x2="174.75" y2="155" stroke-width="0.75"/><line x1="120.3" y1="166" x2="179.7" y2="166" stroke-width="0.75"/><line x1="115.35" y1="177" x2="184.65" y2="177" stroke-width="0.75"/>
    <circle cx="170" cy="40" r="14" stroke-width="1.5"/>
    <line x1="170" y1="26" x2="170" y2="20" stroke-width="1"/><line x1="175.35756805311127" y1="27.065686544841988" x2="177.6536686473018" y2="21.522409349774264" stroke-width="1"/><line x1="179.89949493661166" y1="30.100505063388336" x2="184.14213562373095" y2="25.85786437626905" stroke-width="1"/><line x1="182.93431345515802" y1="34.64243194688874" x2="188.47759065022575" y2="32.3463313526982" stroke-width="1"/><line x1="184" y1="40" x2="190" y2="40" stroke-width="1"/><line x1="182.93431345515802" y1="45.35756805311126" x2="188.47759065022575" y2="47.6536686473018" stroke-width="1"/>
    <path d="M10 190 H195"/>
  </g></svg>