<svg xmlns="http://www.w3.org/2000/svg" viewBox="0 0 200 200" width="200" height="200"><g fill="none" stroke="#1a1a1a" stroke-width="2.5" stroke-linecap="round" stroke-linejoin="round">
    <path d="M85 190 L92 50 H108 L115 190 Z"/>
    <line x1="86" y1="60" x2="114" y2="60" stroke-width="1.5"/><line x1="86" y1="86" x2="114" y2="86" stroke-width="1.5"/><line x1="86" y1="112" x2="114" y2="112" stroke-width="1.5"/><line x1="86" y1="138" x2="114" y2="138" stroke-width="1.5"/><line x1="86" y1="164" x2="114" y2="164" stroke-width="1.5"/><line x1="86" y1="190" x2="114" y2="190" stroke-width="1.5"/>
    <path d="M90 50 H110 V35 H90 Z"/>
    <line x1="90" y1="35" x2="90" y2="50" stroke-width="0.75"/><line x1="95" y1="35" x2="95" y2="50" stroke-width="0.75"/><line x1="100" y1="35" x2="100" y2="50" stroke-width="0.75"/><line x1="105" y1="35" x2="105" y2="50" stroke-width="0.75"/><line x1="110" y1="35" x2="110" y2="50" stroke-width="0.75"/>
    <path d="M88 35 H112 V25 H88 Z"/>
    <path d="M100 25 v-10" stroke-width="1.5"/>
    <path d="M100 42 L150 20 M100 42 L150 64" stroke-width="1"/>
    <path d="M10 190 q30 -15 50 0 q30 -15 50 0 q30 -15 50 0" stroke-width="1.5"/>
    <line x1="0" y1="192" x2="200" y2="192" stroke-width="0.75"/><line x1="0" y1="196" x2="200" y2="196" stroke-width="0.75"/>
  </g></svg>