<svg xmlns="http://www.w3.org/2000/svg" viewBox="0 0 200 200" width="200" height="200"><g fill="none" stroke="#1a1a1a" stroke-width="2.5" stroke-linecap="round" stroke-linejoin="round">
    <path d="M88 190 L92 130 Q80 110 90 95 Q78 80 92 65 H108 Q122 80 110 95 Q120 110 108 130 L112 190 Z"/>
    <line x1="90" y1="95" x2="90" y2="188" stroke-width="0.6"/><line x1="93.33333333333333" y1="95" x2="93.33333333333333" y2="188" stroke-width="0.6"/><line x1="96.66666666666667" y1="95" x2="96.66666666666667" y2="188" stroke-width="0.6"/><line x1="100" y1="95" x2="100" y2="188" stroke-width="0.6"/><line x1="103.33333333333333" y1="95" x2="103.33333333333333" y2="188" stroke-width="0.6"/><line x1="106.66666666666667" y1="95" x2="106.66666666666667" y2="188" stroke-width="0.6"/><line x1="110" y1="95" x2="110" y2="188" stroke-width="0.6"/>
    <path d="M92 150 Q70 145 60 130 M108 145 Q130 140 142 122" stroke-width="1.5"/>
    <circle cx="100" cy="55" r="42"/>
    <circle cx="65" cy="80" r="28"/>
    <circle cx="135" cy="80" r="28"/>
    <line x1="83" y1="24" x2="86.83022221559489" y2="27.213938048432695" stroke-width="0.6"/><line x1="90" y1="24" x2="93.83022221559489" y2="27.213938048432695" stroke-width="0.6"/><line x1="97" y1="24" x2="100.83022221559489" y2="27.213938048432695" stroke-width="0.6"/><line x1="104" y1="24" x2="107.83022221559489" y2="27.213938048432695" stroke-width="0.6"/><line x1="111" y1="24" x2="114.83022221559489" y2="27.213938048432695" stroke-width="0.6"/><line x1="118" y1="24" x2="121.83022221559489" y2="27.213938048432695" stroke-width="0.6"/><line x1="76" y1="31" x2="79.83022221559489" y2="34.213938048432695" stroke-width="0.6"/><line x1="83" y1="31" x2="86.83022221559489" y2="34.213938048432695" stroke-width="0.6"/><line x1="90" y1="31" x2="93.83022221559489" y2="34.213938048432695" stroke-width="0.6"/><line x1="97" y1="31" x2="100.83022221559489" y2="34.213938048432695" stroke-width="0.6"/><line x1="104" y1="31" x2="107.83022221559489" y2="34.213938048432695" stroke-width="0.6"/><line x1="111" y1="31" x2="114.83022221559489" y2="34.213938048432695" stroke-width="0.6"/><line x1="118" y1="31" x2="121.83022221559489" y2="34.213938048432695" stroke-width="0.6"/><line x1="125" y1="31" x2="128.8302222155949" y2="34.213938048432695" stroke-width="0.6"/><line x1="69" y1="38" x2="72.83022221559489" y2="41.213938048432695" stroke-width="0.6"/><line x1="76" y1="38" x2="79.83022221559489" y2="41.213938048432695" stroke-width="0.6"/><line x1="83" y1="38" x2="86.83022221559489" y2="41.213938048432695" stroke-width="0.6"/><line x1="90" y1="38" x2="93.83022221559489" y2="41.213938048432695" stroke-width="0.6"/><line x1="97" y1="38" x2="100.83022221559489" y2="41.213938048432695" stroke-width="0.6"/><line x1="104" y1="38" x2="107.83022221559489" y2="41.213938048432695" stroke-width="0.6"/><line x1="111" y1="38" x2="114.83022221559489" y2="41.213938048432695" stroke-width="0.6"/><line x1="118" y1="38" x2="121.83022221559489" y2="41.213938048432695" stroke-width="0.6"/><line x1="125" y1="38" x2="128.8302222155949" y2="41.213938048432695" stroke-width="0.6"/><line x1="132" y1="38" x2="135.8302222155949" y2="41.213938048432695" stroke-width="0.6"/><line x1="69" y1="45" x2="72.83022221559489" y2="48.213938048432695" stroke-width="0.6"/><line x1="76" y1="45" x2="79.83022221559489" y2="48.213938048432695" stroke-width="0.6"/><line x1="83" y1="45" x2="86.83022221559489" y2="48.213938048432695" stroke-width="0.6"/><line x1="90" y1="45" x2="93.83022221559489" y2="48.213938048432695" stroke-width="0.6"/><line x1="97" y1="45" x2="100.83022221559489" y2="48.213938048432695" stroke-width="0.6"/><line x1="104" y1="45" x2="107.83022221559489" y2="48.213938048432695" stroke-width="0.6"/><line x1="111" y1="45" x2="114.83022221559489" y2="48.213938048432695" stroke-width="0.6"/><line x1="118" y1="45" x2="121.83022221559489" y2="48.213938048432695" stroke-width="0.6"/><line x1="125" y1="45" x2="128.8302222155949" y2="48.213938048432695" stroke-width="0.6"/><line x1="132" y1="45" x2="135.8302222155949" y2="48.213938048432695" stroke-width="0.6"/><line x1="69" y1="52" x2="72.83022221559489" y2="55.213938048432695" stroke-width="0.6"/><line x1="76" y1="52" x2="79.83022221559489" y2="55.213938048432695" stroke-width="0.6"/><line x1="83" y1="52" x2="86.83022221559489" y2="55.213938048432695" stroke-width="0.6"/><line x1="90" y1="52" x2="93.83022221559489" y2="55.213938048432695" stroke-width="0.6"/><line x1="97" y1="52" x2="100.83022221559489" y2="55.213938048432695" stroke-width="0.6"/><line x1="104" y1="52" x2="107.83022221559489" y2="55.213938048432695" stroke-width="0.6"/><line x1="111" y1="52" x2="114.83022221559489" y2="55.213938048432695" stroke-width="0.6"/><line x1="118" y1="52" x2="121.83022221559489" y2="55.213938048432695" stroke-width="0.6"/><line x1="125" y1="52" x2="128.8302222155949" y2="55.213938048432695" stroke-width="0.6"/><line x1="132" y1="52" x2="135.8302222155949" y2="55.213938048432695" stroke-width="0.6"/><line x1="69" y1="59" x2="72.83022221559489" y2="62.213938048432695" stroke-width="0.6"/><line x1="76" y1="59" x2="79.83022221559489" y2="62.213938048432695" stroke-width="0.6"/><line x1="83" y1="59" x2="86.83022221559489" y2="62.213938048432695" stroke-width="0.6"/><line x1="90" y1="59" x2="93.83022221559489" y2="62.213938048432695" stroke-width="0.6"/><line x1="97" y1="59" x2="100.83022221559489" y2="62.213938048432695" stroke-width="0.6"/><line x1="104" y1="59" x2="107.83022221559489" y2="62.213938048432695" stroke-width="0.6"/><line x1="111" y1="59" x2="114.83022221559489" y2="62.213938048432695" stroke-width="0.6"/><line x1="118" y1="59" x2="121.83022221559489" y2="62.213938048432695" stroke-width="0.6"/><line x1="125" y1="59" x2="128.8302222155949" y2="62.213938048432695" stroke-width="0.6"/><line x1="132" y1="59" x2="135.8302222155949" y2="62.213938048432695" stroke-width="0.6"/><line x1="69" y1="66" x2="72.83022221559489" y2="69.2139380484327" stroke-width="0.6"/><line x1="76" y1="66" x2="79.83022221559489" y2="69.2139380484327" stroke-width="0.6"/><line x1="83" y1="66" x2="86.83022221559489" y2="69.2139380484327" stroke-width="0.6"/><line x1="90" y1="66" x2="93.83022221559489" y2="69.2139380484327" stroke-width="0.6"/><line x1="97" y1="66" x2="100.83022221559489" y2="69.2139380484327" stroke-width="0.6"/><line x1="104" y1="66" x2="107.83022221559489" y2="69.2139380484327" stroke-width="0.6"/><line x1="111" y1="66" x2="114.83022221559489" y2="69.2139380484327" stroke-width="0.6"/><line x1="118" y1="66" x2="121.83022221559489" y2="69.2139380484327" stroke-width="0.6"/><line x1="125" y1="66" x2="128.8302222155949" y2="69.2139380484327" stroke-width="0.6"/><line x1="132" y1="66" x2="135.8302222155949" y2="69.2139380484327" stroke-width="0.6"/><line x1="69" y1="73" x2="72.83022221559489" y2="76.2139380484327" stroke-width="0.6"/><line x1="76" y1="73" x2="79.83022221559489" y2="76.2139380484327" stroke-width="0.6"/><line x1="83" y1="73" x2="86.83022221559489" y2="76.2139380484327" stroke-width="0.6"/><line x1="90" y1="73" x2="93.83022221559489" y2="76.2139380484327" stroke-width="0.6"/><line x1="97" y1="73" x2="100.83022221559489" y2="76.2139380484327" stroke-width="0.6"/><line x1="104" y1="73" x2="107.83022221559489" y2="76.2139380484327" stroke-width="0.6"/><line x1="111" y1="73" x2="114.83022221559489" y2="76.2139380484327" stroke-width="0.6"/><line x1="118" y1="73" x2="121.83022221559489" y2="76.2139380484327" stroke-width="0.6"/><line x1="125" y1="73" x2="128.8302222155949" y2="76.2139380484327" stroke-width="0.6"/><line x1="132" y1="73" x2="135.8302222155949" y2="76.2139380484327" stroke-width="0.6"/><line x1="76" y1="80" x2="79.83022221559489" y2="83.2139380484327" stroke-width="0.6"/><line x1="83" y1="80" x2="86.83022221559489" y2="83.2139380484327" stroke-width="0.6"/><line x1="90" y1="80" x2="93.83022221559489" y2="83.2139380484327" stroke-width="0.6"/><line x1="97" y1="80" x2="100.83022221559489" y2="83.2139380484327" stroke-width="0.6"/><line x1="104" y1="80" x2="107.83022221559489" y2="83.2139380484327" stroke-width="0.6"/><line x1="111" y1="80" x2="114.83022221559489" y2="83.2139380484327" stroke-width="0.6"/><line x1="118" y1="80" x2="121.83022221559489" y2="83.2139380484327" stroke-width="0.6"/><line x1="125" y1="80" x2="128.8302222155949" y2="83.2139380484327" stroke-width="0.6"/><line x1="83" y1="87" x2="86.83022221559489" y2="90.2139380484327" stroke-width="0.6"/><line x1="90" y1="87" x2="93.83022221559489" y2="90.2139380484327" stroke-width="0.6"/><line x1="97" y1="87" x2="100.83022221559489" y2="90.2139380484327" stroke-width="0.6"/><line x1="104" y1="87" x2="107.83022221559489" y2="90.2139380484327" stroke-width="0.6"/><line x1="111" y1="87" x2="114.83022221559489" y2="90.2139380484327" stroke-width="0.6"/><line x1="118" y1="87" x2="121.83022221559489" y2="90.2139380484327" stroke-width="0.6"/>
    <line x1="55" y1="63" x2="52.42884956125384" y2="66.06417777247592" stroke-width="0.6"/><line x1="62" y1="63" x2="59.42884956125384" y2="66.06417777247592" stroke-width="0.6"/><line x1="69" y1="63" x2="66.42884956125384" y2="66.06417777247592" stroke-width="0.6"/><line x1="76" y1="63" x2="73.42884956125384" y2="66.06417777247592" stroke-width="0.6"/><line x1="48" y1="70" x2="45.42884956125384" y2="73.06417777247592" stroke-width="0.6"/><line x1="55" y1="70" x2="52.42884956125384" y2="73.06417777247592" stroke-width="0.6"/><line x1="62" y1="70" x2="59.42884956125384" y2="73.06417777247592" stroke-width="0.6"/><line x1="69" y1="70" x2="66.42884956125384" y2="73.06417777247592" stroke-width="0.6"/><line x1="76" y1="70" x2="73.42884956125384" y2="73.06417777247592" stroke-width="0.6"/><line x1="83" y1="70" x2="80.42884956125384" y2="73.06417777247592" stroke-width="0.6"/><line x1="48" y1="77" x2="45.42884956125384" y2="80.06417777247592" stroke-width="0.6"/><line x1="55" y1="77" x2="52.42884956125384" y2="80.06417777247592" stroke-width="0.6"/><line x1="62" y1="77" x2="59.42884956125384" y2="80.06417777247592" stroke-width="0.6"/><line x1="69" y1="77" x2="66.42884956125384" y2="80.06417777247592" stroke-width="0.6"/><line x1="76" y1="77" x2="73.42884956125384" y2="80.06417777247592" stroke-width="0.6"/><line x1="83" y1="77" x2="80.42884956125384" y2="80.06417777247592" stroke-width="0.6"/><line x1="48" y1="84" x2="45.42884956125384" y2="87.06417777247592" stroke-width="0.6"/><line x1="55" y1="84" x2="52.42884956125384" y2="87.06417777247592" stroke-width="0.6"/><line x1="62" y1="84" x2="59.42884956125384" y2="87.06417777247592" stroke-width="0.6"/><line x1="69" y1="84" x2="66.42884956125384" y2="87.06417777247592" stroke-width="0.6"/><line x1="76" y1="84" x2="73.42884956125384" y2="87.06417777247592" stroke-width="0.6"/><line x1="83" y1="84" x2="80.42884956125384" y2="87.06417777247592" stroke-width="0.6"/><line x1="48" y1="91" x2="45.42884956125384" y2="94.06417777247592" stroke-width="0.6"/><line x1="55" y1="91" x2="52.42884956125384" y2="94.06417777247592" stroke-width="0.6"/><line x1="62" y1="91" x2="59.42884956125384" y2="94.06417777247592" stroke-width="0.6"/><line x1="69" y1="91" x2="66.42884956125384" y2="94.06417777247592" stroke-width="0.6"/><line x1="76" y1="91" x2="73.42884956125384" y2="94.06417777247592" stroke-width="0.6"/><line x1="83" y1="91" x2="80.42884956125384" y2="94.06417777247592" stroke-width="0.6"/><line x1="55" y1="98" x2="52.42884956125384" y2="101.06417777247592" stroke-width="0.6"/><line x1="62" y1="98" x2="59.42884956125384" y2="101.06417777247592" stroke-width="0.6"/><line x1="69" y1="98" x2="66.42884956125384" y2="101.06417777247592" stroke-width="0.6"/><line x1="76" y1="98" x2="73.42884956125384" y2="101.06417777247592" stroke-width="0.6"/>
    <line x1="125" y1="63" x2="127.57115043874616" y2="66.06417777247592" stroke-width="0.6"/><line x1="132" y1="63" x2="134.57115043874614" y2="66.06417777247592" stroke-width="0.6"/><line x1="139" y1="63" x2="141.57115043874614" y2="66.06417777247592" stroke-width="0.6"/><line x1="146" y1="63" x2="148.57115043874614" y2="66.06417777247592" stroke-width="0.6"/><line x1="118" y1="70" x2="120.57115043874616" y2="73.06417777247592" stroke-width="0.6"/><line x1="125" y1="70" x2="127.57115043874616" y2="73.06417777247592" stroke-width="0.6"/><line x1="132" y1="70" x2="134.57115043874614" y2="73.06417777247592" stroke-width="0.6"/><line x1="139" y1="70" x2="141.57115043874614" y2="73.06417777247592" stroke-width="0.6"/><line x1="146" y1="70" x2="148.57115043874614" y2="73.06417777247592" stroke-width="0.6"/><line x1="153" y1="70" x2="155.57115043874614" y2="73.06417777247592" stroke-width="0.6"/><line x1="118" y1="77" x2="120.57115043874616" y2="80.06417777247592" stroke-width="0.6"/><line x1="125" y1="77" x2="127.57115043874616" y2="80.06417777247592" stroke-width="0.6"/><line x1="132" y1="77" x2="134.57115043874614" y2="80.06417777247592" stroke-width="0.6"/><line x1="139" y1="77" x2="141.57115043874614" y2="80.06417777247592" stroke-width="0.6"/><line x1="146" y1="77" x2="148.57115043874614" y2="80.06417777247592" stroke-width="0.6"/><line x1="153" y1="77" x2="155.57115043874614" y2="80.06417777247592" stroke-width="0.6"/><line x1="118" y1="84" x2="120.57115043874616" y2="87.06417777247592" stroke-width="0.6"/><line x1="125" y1="84" x2="127.57115043874616" y2="87.06417777247592" stroke-width="0.6"/><line x1="132" y1="84" x2="134.57115043874614" y2="87.06417777247592" stroke-width="0.6"/><line x1="139" y1="84" x2="141.57115043874614" y2="87.06417777247592" stroke-width="0.6"/><line x1="146" y1="84" x2="148.57115043874614" y2="87.06417777247592" stroke-width="0.6"/><line x1="153" y1="84" x2="155.57115043874614" y2="87.06417777247592" stroke-width="0.6"/><line x1="118" y1="91" x2="120.57115043874616" y2="94.06417777247592" stroke-width="0.6"/><line x1="125" y1="91" x2="127.57115043874616" y2="94.06417777247592" stroke-width="0.6"/><line x1="132" y1="91" x2="134.57115043874614" y2="94.06417777247592" stroke-width="0.6"/><line x1="139" y1="91" x2="141.57115043874614" y2="94.06417777247592" stroke-width="0.6"/><line x1="146" y1="91" x2="148.57115043874614" y2="94.06417777247592" stroke-width="0.6"/><line x1="153" y1="91" x2="155.57115043874614" y2="94.06417777247592" stroke-width="0.6"/><line x1="125" y1="98" x2="127.57115043874616" y2="101.06417777247592" stroke-width="0.6"/><line x1="132" y1="98" x2="134.57115043874614" y2="101.06417777247592" stroke-width="0.6"/><line x1="139" y1="98" x2="141.57115043874614" y2="101.06417777247592" stroke-width="0.6"/><line x1="146" y1="98" x2="148.57115043874614" y2="101.06417777247592" stroke-width="0.6"/>
    <path d="M10 190 H190" stroke-width="1.5"/>
    <line x1="0" y1="192" x2="200" y2="192" stroke-width="0.75"/><line x1="0" y1="196" x2="200" y2="196" stroke-width="0.75"/>
  </g></svg>