<svg xmlns="http://www.w3.org/2000/svg" viewBox="0 0 200 200" width="200" height="200"><g fill="none" stroke="#1a1a1a" stroke-width="2.5" stroke-linecap="round" stroke-linejoin="round">
    <path d="M10 185 L75 70 L110 115 L145 55 L195 185 Z"/>
    <path d="M145 55 L165 90 L155 92 L170 100 L145 100 Z"/>
    <path d="M75 70 L88 90 L78 92 L92 100 L75 100 Z"/>
    <line x1="50.2" y1="110" x2="109.0" y2="110" stroke-width="0.75"/><line x1="45.2" y1="118" x2="110.0" y2="118" stroke-width="0.75"/><line x1="40.3" y1="126" x2="110.0" y2="126" stroke-width="0.75"/><line x1="35.3" y1="134" x2="110.0" y2="134" stroke-width="0.75"/><line x1="30.4" y1="142" x2="110.0" y2="142" stroke-width="0.75"/><line x1="25.4" y1="150" x2="110.0" y2="150" stroke-width="0.75"/><line x1="20.4" y1="158" x2="110.0" y2="158" stroke-width="0.75"/><line x1="15.5" y1="166" x2="110.0" y2="166" stroke-width="0.75"/><line x1="10.5" y1="174" x2="110.0" y2="174" stroke-width="0.75"/>
    <line x1="107.0" y1="95" x2="193.0" y2="95" stroke-width="0.75"/><line x1="97.5" y1="105" x2="195.0" y2="105" stroke-width="0.75"/><line x1="88.0" y1="115" x2="195.0" y2="115" stroke-width="0.75"/><line x1="78.5" y1="125" x2="195.0" y2="125" stroke-width="0.75"/><line x1="69.0" y1="135" x2="195.0" y2="135" stroke-width="0.75"/><line x1="59.5" y1="145" x2="195.0" y2="145" stroke-width="0.75"/><line x1="50.0" y1="155" x2="195.0" y2="155" stroke-width="0.75"/><line x1="40.5" y1="165" x2="195.0" y2="165" stroke-width="0.75"/><line x1="31.0" y1="175" x2="195.0" y2="175" stroke-width="0.75"/>
    <path d="M30 185 V160 M20 175 L30 150 L40 175 M22 185 L30 162 L38 185"/><path d="M165 185 V160 M155 175 L165 150 L175 175 M157 185 L165 162 L173 185"/>
    <path d="M5 185 H195" stroke-width="1.5"/>
  </g></svg>