<svg xmlns="http://www.w3.org/2000/svg" viewBox="0 0 400 400" width="400" height="400"><g fill="none" stroke="#1a1a1a" stroke-width="1.6" stroke-linecap="round" stroke-linejoin="round"><circle cx="200" cy="200" r="190" stroke-width="1"/><circle cx="200" cy="200" r="184" stroke-width="0.9"/><path d="M384.0 200.0 Q395.3 217.1 381.2 232.0" stroke-width="1"/><path d="M381.2 232.0 Q389.3 250.7 372.9 262.9" stroke-width="1"/><path d="M372.9 262.9 Q377.6 282.8 359.3 292.0" stroke-width="1"/><path d="M359.3 292.0 Q360.6 312.4 341.0 318.3" stroke-width="1"/><path d="M341.0 318.3 Q338.6 338.6 318.3 341.0" stroke-width="1"/><path d="M318.3 341.0 Q312.4 360.6 292.0 359.3" stroke-width="1"/><path d="M292.0 359.3 Q282.8 377.6 262.9 372.9" stroke-width="1"/><path d="M262.9 372.9 Q250.7 389.3 232.0 381.2" stroke-width="1"/><path d="M232.0 381.2 Q217.1 395.3 200.0 384.0" stroke-width="1"/><path d="M200.0 384.0 Q182.9 395.3 168.0 381.2" stroke-width="1"/><path d="M168.0 381.2 Q149.3 389.3 137.1 372.9" stroke-width="1"/><path d="M137.1 372.9 Q117.2 377.6 108.0 359.3" stroke-width="1"/><path d="M108.0 359.3 Q87.6 360.6 81.7 341.0" stroke-width="1"/><path d="M81.7 341.0 Q61.4 338.6 59.0 318.3" stroke-width="1"/><path d="M59.0 318.3 Q39.4 312.4 40.7 292.0" stroke-width="1"/><path d="M40.7 292.0 Q22.4 282.8 27.1 262.9" stroke-width="1"/><path d="M27.1 262.9 Q10.7 250.7 18.8 232.0" stroke-width="1"/><path d="M18.8 232.0 Q4.7 217.1 16.0 200.0" stroke-width="1"/><path d="M16.0 200.0 Q4.7 182.9 18.8 168.0" stroke-width="1"/><path d="M18.8 168.0 Q10.7 149.3 27.1 137.1" stroke-width="1"/><path d="M27.1 137.1 Q22.4 117.2 40.7 108.0" stroke-width="1"/><path d="M40.7 108.0 Q39.4 87.6 59.0 81.7" stroke-width="1"/><path d="M59.0 81.7 Q61.4 61.4 81.7 59.0" stroke-width="1"/><path d="M81.7 59.0 Q87.6 39.4 108.0 40.7" stroke-width="1"/><path d="M108.0 40.7 Q117.2 22.4 137.1 27.1" stroke-width="1"/><path d="M137.1 27.1 Q149.3 10.7 168.0 18.8" stroke-width="1"/><path d="M168.0 18.8 Q182.9 4.7 200.0 16.0" stroke-width="1"/><path d="M200.0 16.0 Q217.1 4.7 232.0 18.8" stroke-width="1"/><path d="M232.0 18.8 Q250.7 10.7 262.9 27.1" stroke-width="1"/><path d="M262.9 27.1 Q282.8 22.4 292.0 40.7" stroke-width="1"/><path d="M292.0 40.7 Q312.4 39.4 318.3 59.0" stroke-width="1"/><path d="M318.3 59.0 Q338.6 61.4 341.0 81.7" stroke-width="1"/><path d="M341.0 81.7 Q360.6 87.6 359.3 108.0" stroke-width="1"/><path d="M359.3 108.0 Q377.6 117.2 372.9 137.1" stroke-width="1"/><path d="M372.9 137.1 Q389.3 149.3 381.2 168.0" stroke-width="1"/><path d="M381.2 168.0 Q395.3 182.9 384.0 200.0" stroke-width="1"/><g transform="rotate(0.000 200 200)"><path d="M200 36 C214 70 214 104 200 150 C186 104 186 70 200 36 Z"/><path d="M200 60 C205 90 205 118 200 144 C195 118 195 90 200 60 Z" stroke-width="0.9"/></g><g transform="rotate(20.000 200 200)"><path d="M200 36 C214 70 214 104 200 150 C186 104 186 70 200 36 Z"/><path d="M200 60 C205 90 205 118 200 144 C195 118 195 90 200 60 Z" stroke-width="0.9"/></g><g transform="rotate(40.000 200 200)"><path d="M200 36 C214 70 214 104 200 150 C186 104 186 70 200 36 Z"/><path d="M200 60 C205 90 205 118 200 144 C195 118 195 90 200 60 Z" stroke-width="0.9"/></g><g transform="rotate(60.000 200 200)"><path d="M200 36 C214 70 214 104 200 150 C186 104 186 70 200 36 Z"/><path d="M200 60 C205 90 205 118 200 144 C195 118 195 90 200 60 Z" stroke-width="0.9"/></g><g transform="rotate(80.000 200 200)"><path d="M200 36 C214 70 214 104 200 150 C186 104 186 70 200 36 Z"/><path d="M200 60 C205 90 205 118 200 144 C195 118 195 90 200 60 Z" stroke-width="0.9"/></g><g transform="rotate(100.000 200 200)"><path d="M200 36 C214 70 214 104 200 150 C186 104 186 70 200 36 Z"/><path d="M200 60 C205 90 205 118 200 144 C195 118 195 90 200 60 Z" stroke-width="0.9"/></g><g transform="rotate(120.000 200 200)"><path d="M200 36 C214 70 214 104 200 150 C186 104 186 70 200 36 Z"/><path d="M200 60 C205 90 205 118 200 144 C195 118 195 90 200 60 Z" stroke-width="0.9"/></g><g transform="rotate(140.000 200 200)"><path d="M200 36 C214 70 214 104 200 150 C186 104 186 70 200 36 Z"/><path d="M200 60 C205 90 205 118 200 144 C195 118 195 90 200 60 Z" stroke-width="0.9"/></g><g transform="rotate(160.000 200 200)"><path d="M200 36 C214 70 214 104 200 150 C186 104 186 70 200 36 Z"/><path d="M200 60 C205 90 205 118 200 144 C195 118 195 90 200 60 Z" stroke-width="0.9"/></g><g transform="rotate(180.000 200 200)"><path d="M200 36 C214 70 214 104 200 150 C186 104 186 70 200 36 Z"/><path d="M200 60 C205 90 205 118 200 144 C195 118 195 90 200 60 Z" stroke-width="0.9"/></g><g transform="rotate(200.000 200 200)"><path d="M200 36 C214 70 214 104 200 150 C186 104 186 70 200 36 Z"/><path d="M200 60 C205 90 205 118 200 144 C195 118 195 90 200 60 Z" stroke-width="0.9"/></g><g transform="rotate(220.000 200 200)"><path d="M200 36 C214 70 214 104 200 150 C186 104 186 70 200 36 Z"/><path d="M200 60 C205 90 205 118 200 144 C195 118 195 90 200 60 Z" stroke-width="0.9"/></g><g transform="rotate(240.000 200 200)"><path d="M200 36 C214 70 214 104 200 150 C186 104 186 70 200 36 Z"/><path d="M200 60 C205 90 205 118 200 144 C195 118 195 90 200 60 Z" stroke-width="0.9"/></g><g transform="rotate(260.000 200 200)"><path d="M200 36 C214 70 214 104 200 150 C186 104 186 70 200 36 Z"/><path d="M200 60 C205 90 205 118 200 144 C195 118 195 90 200 60 Z" stroke-width="0.9"/></g><g transform="rotate(280.000 200 200)"><path d="M200 36 C214 70 214 104 200 150 C186 104 186 70 200 36 Z"/><path d="M200 60 C205 90 205 118 200 144 C195 118 195 90 200 60 Z" stroke-width="0.9"/></g><g transform="rotate(300.000 200 200)"><path d="M200 36 C214 70 214 104 200 150 C186 104 186 70 200 36 Z"/><path d="M200 60 C205 90 205 118 200 144 C195 118 195 90 200 60 Z" stroke-width="0.9"/></g><g transform="rotate(320.000 200 200)"><path d="M200 36 C214 70 214 104 200 150 C186 104 186 70 200 36 Z"/><path d="M200 60 C205 90 205 118 200 144 C195 118 195 90 200 60 Z" stroke-width="0.9"/></g><g transform="rotate(340.000 200 200)"><path d="M200 36 C214 70 214 104 200 150 C186 104 186 70 200 36 Z"/><path d="M200 60 C205 90 205 118 200 144 C195 118 195 90 200 60 Z" stroke-width="0.9"/></g><circle cx="200" cy="200" r="150" stroke-width="1.1"/><g transform="rotate(0.000 200 200)"><path d="M200 62 C232 92 232 128 200 150 C168 128 168 92 200 62 Z"/><path d="M200 88 q10 22 0 60 q-10 -38 0 -60Z" stroke-width="0.9"/></g><g transform="rotate(30.000 200 200)"><path d="M200 62 C232 92 232 128 200 150 C168 128 168 92 200 62 Z"/><path d="M200 88 q10 22 0 60 q-10 -38 0 -60Z" stroke-width="0.9"/></g><g transform="rotate(60.000 200 200)"><path d="M200 62 C232 92 232 128 200 150 C168 128 168 92 200 62 Z"/><path d="M200 88 q10 22 0 60 q-10 -38 0 -60Z" stroke-width="0.9"/></g><g transform="rotate(90.000 200 200)"><path d="M200 62 C232 92 232 128 200 150 C168 128 168 92 200 62 Z"/><path d="M200 88 q10 22 0 60 q-10 -38 0 -60Z" stroke-width="0.9"/></g><g transform="rotate(120.000 200 200)"><path d="M200 62 C232 92 232 128 200 150 C168 128 168 92 200 62 Z"/><path d="M200 88 q10 22 0 60 q-10 -38 0 -60Z" stroke-width="0.9"/></g><g transform="rotate(150.000 200 200)"><path d="M200 62 C232 92 232 128 200 150 C168 128 168 92 200 62 Z"/><path d="M200 88 q10 22 0 60 q-10 -38 0 -60Z" stroke-width="0.9"/></g><g transform="rotate(180.000 200 200)"><path d="M200 62 C232 92 232 128 200 150 C168 128 168 92 200 62 Z"/><path d="M200 88 q10 22 0 60 q-10 -38 0 -60Z" stroke-width="0.9"/></g><g transform="rotate(210.000 200 200)"><path d="M200 62 C232 92 232 128 200 150 C168 128 168 92 200 62 Z"/><path d="M200 88 q10 22 0 60 q-10 -38 0 -60Z" stroke-width="0.9"/></g><g transform="rotate(240.000 200 200)"><path d="M200 62 C232 92 232 128 200 150 C168 128 168 92 200 62 Z"/><path d="M200 88 q10 22 0 60 q-10 -38 0 -60Z" stroke-width="0.9"/></g><g transform="rotate(270.000 200 200)"><path d="M200 62 C232 92 232 128 200 150 C168 128 168 92 200 62 Z"/><path d="M200 88 q10 22 0 60 q-10 -38 0 -60Z" stroke-width="0.9"/></g><g transform="rotate(300.000 200 200)"><path d="M200 62 C232 92 232 128 200 150 C168 128 168 92 200 62 Z"/><path d="M200 88 q10 22 0 60 q-10 -38 0 -60Z" stroke-width="0.9"/></g><g transform="rotate(330.000 200 200)"><path d="M200 62 C232 92 232 128 200 150 C168 128 168 92 200 62 Z"/><path d="M200 88 q10 22 0 60 q-10 -38 0 -60Z" stroke-width="0.9"/></g><circle cx="200" cy="200" r="92" stroke-width="1.1"/><circle cx="200" cy="200" r="86" stroke-width="0.8"/><g transform="rotate(0.000 200 200)"><path d="M200 116 C216 132 216 158 200 172 C184 158 184 132 200 116 Z"/><circle cx="200" cy="150" r="4" stroke-width="0.8"/></g><g transform="rotate(45.000 200 200)"><path d="M200 116 C216 132 216 158 200 172 C184 158 184 132 200 116 Z"/><circle cx="200" cy="150" r="4" stroke-width="0.8"/></g><g transform="rotate(90.000 200 200)"><path d="M200 116 C216 132 216 158 200 172 C184 158 184 132 200 116 Z"/><circle cx="200" cy="150" r="4" stroke-width="0.8"/></g><g transform="rotate(135.000 200 200)"><path d="M200 116 C216 132 216 158 200 172 C184 158 184 132 200 116 Z"/><circle cx="200" cy="150" r="4" stroke-width="0.8"/></g><g transform="rotate(180.000 200 200)"><path d="M200 116 C216 132 216 158 200 172 C184 158 184 132 200 116 Z"/><circle cx="200" cy="150" r="4" stroke-width="0.8"/></g><g transform="rotate(225.000 200 200)"><path d="M200 116 C216 132 216 158 200 172 C184 158 184 132 200 116 Z"/><circle cx="200" cy="150" r="4" stroke-width="0.8"/></g><g transform="rotate(270.000 200 200)"><path d="M200 116 C216 132 216 158 200 172 C184 158 184 132 200 116 Z"/><circle cx="200" cy="150" r="4" stroke-width="0.8"/></g><g transform="rotate(315.000 200 200)"><path d="M200 116 C216 132 216 158 200 172 C184 158 184 132 200 116 Z"/><circle cx="200" cy="150" r="4" stroke-width="0.8"/></g><circle cx="200" cy="200" r="40" stroke-width="1"/><g transform="rotate(0.000 200 200)"><path d="M200 162 C210 176 210 190 200 200 C190 190 190 176 200 162 Z" stroke-width="1"/></g><g transform="rotate(60.000 200 200)"><path d="M200 162 C210 176 210 190 200 200 C190 190 190 176 200 162 Z" stroke-width="1"/></g><g transform="rotate(120.000 200 200)"><path d="M200 162 C210 176 210 190 200 200 C190 190 190 176 200 162 Z" stroke-width="1"/></g><g transform="rotate(180.000 200 200)"><path d="M200 162 C210 176 210 190 200 200 C190 190 190 176 200 162 Z" stroke-width="1"/></g><g transform="rotate(240.000 200 200)"><path d="M200 162 C210 176 210 190 200 200 C190 190 190 176 200 162 Z" stroke-width="1"/></g><g transform="rotate(300.000 200 200)"><path d="M200 162 C210 176 210 190 200 200 C190 190 190 176 200 162 Z" stroke-width="1"/></g><circle cx="200" cy="200" r="9" stroke-width="1"/></g></svg>