<svg xmlns="http://www.w3.org/2000/svg" viewBox="0 0 400 400" width="400" height="400"><g fill="none" stroke="#1a1a1a" stroke-width="1.6" stroke-linecap="round" stroke-linejoin="round"><circle cx="200" cy="200" r="190" stroke-width="1"/><circle cx="200" cy="200" r="170" stroke-width="0.9"/><line x1="370.0" y1="200.0" x2="390.0" y2="200.0" stroke-width="0.9"/><line x1="364.2" y1="244.0" x2="383.5" y2="249.2" stroke-width="0.9"/><line x1="347.2" y1="285.0" x2="364.5" y2="295.0" stroke-width="0.9"/><line x1="320.2" y1="320.2" x2="334.4" y2="334.4" stroke-width="0.9"/><line x1="285.0" y1="347.2" x2="295.0" y2="364.5" stroke-width="0.9"/><line x1="244.0" y1="364.2" x2="249.2" y2="383.5" stroke-width="0.9"/><line x1="200.0" y1="370.0" x2="200.0" y2="390.0" stroke-width="0.9"/><line x1="156.0" y1="364.2" x2="150.8" y2="383.5" stroke-width="0.9"/><line x1="115.0" y1="347.2" x2="105.0" y2="364.5" stroke-width="0.9"/><line x1="79.8" y1="320.2" x2="65.6" y2="334.4" stroke-width="0.9"/><line x1="52.8" y1="285.0" x2="35.5" y2="295.0" stroke-width="0.9"/><line x1="35.8" y1="244.0" x2="16.5" y2="249.2" stroke-width="0.9"/><line x1="30.0" y1="200.0" x2="10.0" y2="200.0" stroke-width="0.9"/><line x1="35.8" y1="156.0" x2="16.5" y2="150.8" stroke-width="0.9"/><line x1="52.8" y1="115.0" x2="35.5" y2="105.0" stroke-width="0.9"/><line x1="79.8" y1="79.8" x2="65.6" y2="65.6" stroke-width="0.9"/><line x1="115.0" y1="52.8" x2="105.0" y2="35.5" stroke-width="0.9"/><line x1="156.0" y1="35.8" x2="150.8" y2="16.5" stroke-width="0.9"/><line x1="200.0" y1="30.0" x2="200.0" y2="10.0" stroke-width="0.9"/><line x1="244.0" y1="35.8" x2="249.2" y2="16.5" stroke-width="0.9"/><line x1="285.0" y1="52.8" x2="295.0" y2="35.5" stroke-width="0.9"/><line x1="320.2" y1="79.8" x2="334.4" y2="65.6" stroke-width="0.9"/><line x1="347.2" y1="115.0" x2="364.5" y2="105.0" stroke-width="0.9"/><line x1="364.2" y1="156.0" x2="383.5" y2="150.8" stroke-width="0.9"/><path d="M200.0 30.0 L231.1 84.1 L285.0 52.8 L284.9 115.1 L347.2 115.0 L315.9 168.9 L370.0 200.0 L315.9 231.1 L347.2 285.0 L284.9 284.9 L285.0 347.2 L231.1 315.9 L200.0 370.0 L168.9 315.9 L115.0 347.2 L115.1 284.9 L52.8 285.0 L84.1 231.1 L30.0 200.0 L84.1 168.9 L52.8 115.0 L115.1 115.1 L115.0 52.8 L168.9 84.1 Z" stroke-width="1.4"/><path d="M200.0 50.0 L224.8 107.3 L275.0 70.1 L267.9 132.1 L329.9 125.0 L292.7 175.2 L350.0 200.0 L292.7 224.8 L329.9 275.0 L267.9 267.9 L275.0 329.9 L224.8 292.7 L200.0 350.0 L175.2 292.7 L125.0 329.9 L132.1 267.9 L70.1 275.0 L107.3 224.8 L50.0 200.0 L107.3 175.2 L70.1 125.0 L132.1 132.1 L125.0 70.1 L175.2 107.3 Z" stroke-width="1.1"/><circle cx="200" cy="200" r="120" stroke-width="1"/><g transform="rotate(0.000 200 200)"><path d="M200 60 L214 96 L200 132 L186 96 Z"/></g><g transform="rotate(30.000 200 200)"><path d="M200 60 L214 96 L200 132 L186 96 Z"/></g><g transform="rotate(60.000 200 200)"><path d="M200 60 L214 96 L200 132 L186 96 Z"/></g><g transform="rotate(90.000 200 200)"><path d="M200 60 L214 96 L200 132 L186 96 Z"/></g><g transform="rotate(120.000 200 200)"><path d="M200 60 L214 96 L200 132 L186 96 Z"/></g><g transform="rotate(150.000 200 200)"><path d="M200 60 L214 96 L200 132 L186 96 Z"/></g><g transform="rotate(180.000 200 200)"><path d="M200 60 L214 96 L200 132 L186 96 Z"/></g><g transform="rotate(210.000 200 200)"><path d="M200 60 L214 96 L200 132 L186 96 Z"/></g><g transform="rotate(240.000 200 200)"><path d="M200 60 L214 96 L200 132 L186 96 Z"/></g><g transform="rotate(270.000 200 200)"><path d="M200 60 L214 96 L200 132 L186 96 Z"/></g><g transform="rotate(300.000 200 200)"><path d="M200 60 L214 96 L200 132 L186 96 Z"/></g><g transform="rotate(330.000 200 200)"><path d="M200 60 L214 96 L200 132 L186 96 Z"/></g><path d="M200.0 104.0 L226.0 155.0 L283.1 152.0 L252.0 200.0 L283.1 248.0 L226.0 245.0 L200.0 296.0 L174.0 245.0 L116.9 248.0 L148.0 200.0 L116.9 152.0 L174.0 155.0 Z" stroke-width="1.2"/><circle cx="200" cy="200" r="52" stroke-width="1"/><g transform="rotate(0.000 200 200)"><path d="M200 150 C214 166 214 186 200 200 C186 186 186 166 200 150 Z" stroke-width="1"/></g><g transform="rotate(60.000 200 200)"><path d="M200 150 C214 166 214 186 200 200 C186 186 186 166 200 150 Z" stroke-width="1"/></g><g transform="rotate(120.000 200 200)"><path d="M200 150 C214 166 214 186 200 200 C186 186 186 166 200 150 Z" stroke-width="1"/></g><g transform="rotate(180.000 200 200)"><path d="M200 150 C214 166 214 186 200 200 C186 186 186 166 200 150 Z" stroke-width="1"/></g><g transform="rotate(240.000 200 200)"><path d="M200 150 C214 166 214 186 200 200 C186 186 186 166 200 150 Z" stroke-width="1"/></g><g transform="rotate(300.000 200 200)"><path d="M200 150 C214 166 214 186 200 200 C186 186 186 166 200 150 Z" stroke-width="1"/></g><circle cx="200" cy="200" r="14" stroke-width="1"/><circle cx="200" cy="200" r="6" stroke-width="0.9"/></g></svg>