<svg xmlns="http://www.w3.org/2000/svg" viewBox="0 0 200 200" width="200" height="200"><rect width="200" height="200" fill="#ffffff"/><g fill="none" stroke="#1a1a1a" stroke-width="2.5" stroke-linecap="round" stroke-linejoin="round">
    <line x1="36" y1="190" x2="53" y2="162"/><line x1="164" y1="190" x2="147" y2="162"/><line x1="53" y1="162" x2="67" y2="132"/><line x1="147" y1="162" x2="133" y2="132"/><line x1="67" y1="132" x2="81" y2="98"/><line x1="133" y1="132" x2="119" y2="98"/><line x1="81" y1="98" x2="90" y2="66"/><line x1="119" y1="98" x2="110" y2="66"/><line x1="90" y1="66" x2="95" y2="36"/><line x1="110" y1="66" x2="105" y2="36"/><line x1="95" y1="36" x2="100" y2="12"/><line x1="105" y1="36" x2="100" y2="12"/><line x1="62" y1="132" x2="138" y2="132"/><line x1="64" y1="136" x2="136" y2="136" stroke-width="1"/><line x1="76" y1="98" x2="124" y2="98"/><line x1="78" y1="102" x2="122" y2="102" stroke-width="1"/><line x1="90" y1="36" x2="110" y2="36"/><line x1="92" y1="40" x2="108" y2="40" stroke-width="1"/><line x1="36" y1="190" x2="160.6" y2="184.4" stroke-width="0.75"/><line x1="164" y1="190" x2="39.4" y2="184.4" stroke-width="0.75"/><line x1="39.4" y1="184.4" x2="157.2" y2="178.8" stroke-width="0.75"/><line x1="160.6" y1="184.4" x2="42.8" y2="178.8" stroke-width="0.75"/><line x1="42.8" y1="178.8" x2="153.8" y2="173.2" stroke-width="0.75"/><line x1="157.2" y1="178.8" x2="46.2" y2="173.2" stroke-width="0.75"/><line x1="46.2" y1="173.2" x2="150.4" y2="167.6" stroke-width="0.75"/><line x1="153.8" y1="173.2" x2="49.6" y2="167.6" stroke-width="0.75"/><line x1="49.6" y1="167.6" x2="147" y2="162" stroke-width="0.75"/><line x1="150.4" y1="167.6" x2="53" y2="162" stroke-width="0.75"/><line x1="53" y1="162" x2="144.2" y2="156" stroke-width="0.75"/><line x1="147" y1="162" x2="55.8" y2="156" stroke-width="0.75"/><line x1="55.8" y1="156" x2="141.4" y2="150" stroke-width="0.75"/><line x1="144.2" y1="156" x2="58.6" y2="150" stroke-width="0.75"/><line x1="58.6" y1="150" x2="138.6" y2="144" stroke-width="0.75"/><line x1="141.4" y1="150" x2="61.4" y2="144" stroke-width="0.75"/><line x1="61.4" y1="144" x2="135.8" y2="138" stroke-width="0.75"/><line x1="138.6" y1="144" x2="64.2" y2="138" stroke-width="0.75"/><line x1="64.2" y1="138" x2="133" y2="132" stroke-width="0.75"/><line x1="135.8" y1="138" x2="67" y2="132" stroke-width="0.75"/><line x1="67" y1="132" x2="130.2" y2="125.2" stroke-width="0.75"/><line x1="133" y1="132" x2="69.8" y2="125.2" stroke-width="0.75"/><line x1="69.8" y1="125.2" x2="127.4" y2="118.4" stroke-width="0.75"/><line x1="130.2" y1="125.2" x2="72.6" y2="118.4" stroke-width="0.75"/><line x1="72.6" y1="118.4" x2="124.6" y2="111.6" stroke-width="0.75"/><line x1="127.4" y1="118.4" x2="75.4" y2="111.6" stroke-width="0.75"/><line x1="75.4" y1="111.6" x2="121.8" y2="104.8" stroke-width="0.75"/><line x1="124.6" y1="111.6" x2="78.2" y2="104.8" stroke-width="0.75"/><line x1="78.2" y1="104.8" x2="119" y2="98" stroke-width="0.75"/><line x1="121.8" y1="104.8" x2="81" y2="98" stroke-width="0.75"/><line x1="81" y1="98" x2="117.2" y2="91.6" stroke-width="0.75"/><line x1="119" y1="98" x2="82.8" y2="91.6" stroke-width="0.75"/><line x1="82.8" y1="91.6" x2="115.4" y2="85.2" stroke-width="0.75"/><line x1="117.2" y1="91.6" x2="84.6" y2="85.2" stroke-width="0.75"/><line x1="84.6" y1="85.2" x2="113.6" y2="78.8" stroke-width="0.75"/><line x1="115.4" y1="85.2" x2="86.4" y2="78.8" stroke-width="0.75"/><line x1="86.4" y1="78.8" x2="111.8" y2="72.4" stroke-width="0.75"/><line x1="113.6" y1="78.8" x2="88.2" y2="72.4" stroke-width="0.75"/><line x1="88.2" y1="72.4" x2="110" y2="66" stroke-width="0.75"/><line x1="111.8" y1="72.4" x2="90" y2="66" stroke-width="0.75"/><line x1="90" y1="66" x2="109" y2="60" stroke-width="0.75"/><line x1="110" y1="66" x2="91" y2="60" stroke-width="0.75"/><line x1="91" y1="60" x2="108" y2="54" stroke-width="0.75"/><line x1="109" y1="60" x2="92" y2="54" stroke-width="0.75"/><line x1="92" y1="54" x2="107" y2="48" stroke-width="0.75"/><line x1="108" y1="54" x2="93" y2="48" stroke-width="0.75"/><line x1="93" y1="48" x2="106" y2="42" stroke-width="0.75"/><line x1="107" y1="48" x2="94" y2="42" stroke-width="0.75"/><line x1="94" y1="42" x2="105" y2="36" stroke-width="0.75"/><line x1="106" y1="42" x2="95" y2="36" stroke-width="0.75"/><line x1="95" y1="36" x2="104" y2="31.2" stroke-width="0.75"/><line x1="105" y1="36" x2="96" y2="31.2" stroke-width="0.75"/><line x1="96" y1="31.2" x2="103" y2="26.4" stroke-width="0.75"/><line x1="104" y1="31.2" x2="97" y2="26.4" stroke-width="0.75"/><line x1="97" y1="26.4" x2="102" y2="21.6" stroke-width="0.75"/><line x1="103" y1="26.4" x2="98" y2="21.6" stroke-width="0.75"/><line x1="98" y1="21.6" x2="101" y2="16.799999999999997" stroke-width="0.75"/><line x1="102" y1="21.6" x2="99" y2="16.799999999999997" stroke-width="0.75"/><line x1="99" y1="16.799999999999997" x2="100" y2="12" stroke-width="0.75"/><line x1="101" y1="16.799999999999997" x2="100" y2="12" stroke-width="0.75"/>
    <path d="M100 12 v-10" stroke-width="1.5"/>
    <path d="M95 5 h10" stroke-width="1"/>
    <path d="M95 9 h10" stroke-width="1"/>
    <path d="M62 190 q38 -52 76 0"/>
    <path d="M72 190 q28 -36 56 0" stroke-width="1.5"/>
    <path d="M82 190 q18 -22 36 0" stroke-width="1"/>
    <path d="M0 196 h200"/>
    <path d="M14 178 v18" stroke-width="1.5"/>
    <circle cx="14" cy="174" r="4" stroke-width="1.5"/>
    <path d="M34 182 v14" stroke-width="1.5"/>
    <circle cx="34" cy="178" r="3" stroke-width="1.5"/>
    <path d="M166 182 v14" stroke-width="1.5"/>
    <circle cx="166" cy="178" r="3" stroke-width="1.5"/>
    <path d="M186 178 v18" stroke-width="1.5"/>
    <circle cx="186" cy="174" r="4" stroke-width="1.5"/>
    <path d="M70 188 v8" stroke-width="1.5"/>
    <circle cx="70" cy="185" r="2" stroke-width="1.5"/>
    <path d="M88 189 v7" stroke-width="1.5"/>
    <circle cx="88" cy="186" r="2" stroke-width="1.5"/>
    <path d="M112 189 v7" stroke-width="1.5"/>
    <circle cx="112" cy="186" r="2" stroke-width="1.5"/>
    <path d="M130 188 v8" stroke-width="1.5"/>
    <circle cx="130" cy="185" r="2" stroke-width="1.5"/>
  </g></svg>