<svg xmlns="http://www.w3.org/2000/svg" viewBox="0 0 200 200" width="200" height="200"><rect width="200" height="200" fill="#ffffff"/><g fill="none" stroke="#1a1a1a" stroke-width="2.5" stroke-linecap="round" stroke-linejoin="round">
    <path d="M100 15 L78 185 L122 185 Z"/>
    <path d="M60 185 H140"/>
    <path d="M70 185 Q100 162 130 185"/>
    <path d="M83 128 H117"/>
    <path d="M89 72 H111"/>
    <path d="M95 15 V185"/>
    <path d="M105 15 V185"/>
    <path d="M78 185 L100 128 L122 185"/>
    <path d="M83 128 L100 72 L117 128"/>
    <path d="M89 72 L100 15 L111 72"/>
    <line x1="78.0" y1="185.0" x2="120.8" y2="170.8" stroke-width="0.5"/><line x1="122.0" y1="185.0" x2="79.3" y2="170.8" stroke-width="0.5"/><line x1="79.3" y1="170.8" x2="119.5" y2="156.5" stroke-width="0.5"/><line x1="120.8" y1="170.8" x2="80.5" y2="156.5" stroke-width="0.5"/><line x1="80.5" y1="156.5" x2="118.3" y2="142.3" stroke-width="0.5"/><line x1="119.5" y1="156.5" x2="81.8" y2="142.3" stroke-width="0.5"/><line x1="81.8" y1="142.3" x2="117.0" y2="128.0" stroke-width="0.5"/><line x1="118.3" y1="142.3" x2="83.0" y2="128.0" stroke-width="0.5"/><line x1="83.0" y1="128.0" x2="115.5" y2="114.0" stroke-width="0.5"/><line x1="117.0" y1="128.0" x2="84.5" y2="114.0" stroke-width="0.5"/><line x1="84.5" y1="114.0" x2="114.0" y2="100.0" stroke-width="0.5"/><line x1="115.5" y1="114.0" x2="86.0" y2="100.0" stroke-width="0.5"/><line x1="86.0" y1="100.0" x2="112.5" y2="86.0" stroke-width="0.5"/><line x1="114.0" y1="100.0" x2="87.5" y2="86.0" stroke-width="0.5"/><line x1="87.5" y1="86.0" x2="111.0" y2="72.0" stroke-width="0.5"/><line x1="112.5" y1="86.0" x2="89.0" y2="72.0" stroke-width="0.5"/><line x1="89.0" y1="72.0" x2="109.5" y2="57.8" stroke-width="0.5"/><line x1="111.0" y1="72.0" x2="90.5" y2="57.8" stroke-width="0.5"/><line x1="90.5" y1="57.8" x2="108.0" y2="43.5" stroke-width="0.5"/><line x1="109.5" y1="57.8" x2="92.0" y2="43.5" stroke-width="0.5"/><line x1="92.0" y1="43.5" x2="106.5" y2="29.3" stroke-width="0.5"/><line x1="108.0" y1="43.5" x2="93.5" y2="29.3" stroke-width="0.5"/><line x1="93.5" y1="29.3" x2="105.0" y2="15.0" stroke-width="0.5"/><line x1="106.5" y1="29.3" x2="95.0" y2="15.0" stroke-width="0.5"/>
    <path d="M20 195 H180"/>
    <path d="M165 40 q15 -8 28 0 q3 -8 14 -3" stroke-width="1.5"/>
    <path d="M170 36 q22 -2 32 3" stroke-width="0.6"/>
    <path d="M30 60 q6 -4 12 0 M45 75 q6 -4 12 0" stroke-width="1.5"/>
  </g></svg>