<svg xmlns="http://www.w3.org/2000/svg" viewBox="0 0 200 200" width="200" height="200"><rect width="200" height="200" fill="#ffffff"/><g fill="none" stroke="#1a1a1a" stroke-width="2.5" stroke-linecap="round" stroke-linejoin="round">
    <line x1="38" y1="188" x2="64" y2="145"/><line x1="162" y1="188" x2="136" y2="145"/><line x1="64" y1="145" x2="81" y2="100"/><line x1="136" y1="145" x2="119" y2="100"/><line x1="81" y1="100" x2="91" y2="55"/><line x1="119" y1="100" x2="109" y2="55"/><line x1="91" y1="55" x2="100" y2="18"/><line x1="109" y1="55" x2="100" y2="18"/><line x1="34" y1="188" x2="166" y2="188"/><line x1="60" y1="145" x2="140" y2="145"/><line x1="77" y1="100" x2="123" y2="100"/><line x1="87" y1="55" x2="113" y2="55"/><line x1="38" y1="188" x2="155.5" y2="177.25" stroke-width="1"/><line x1="162" y1="188" x2="44.5" y2="177.25" stroke-width="1"/><line x1="44.5" y1="177.25" x2="149" y2="166.5" stroke-width="1"/><line x1="155.5" y1="177.25" x2="51" y2="166.5" stroke-width="1"/><line x1="51" y1="166.5" x2="142.5" y2="155.75" stroke-width="1"/><line x1="149" y1="166.5" x2="57.5" y2="155.75" stroke-width="1"/><line x1="57.5" y1="155.75" x2="136" y2="145" stroke-width="1"/><line x1="142.5" y1="155.75" x2="64" y2="145" stroke-width="1"/><line x1="64" y1="145" x2="131.75" y2="133.75" stroke-width="1"/><line x1="136" y1="145" x2="68.25" y2="133.75" stroke-width="1"/><line x1="68.25" y1="133.75" x2="127.5" y2="122.5" stroke-width="1"/><line x1="131.75" y1="133.75" x2="72.5" y2="122.5" stroke-width="1"/><line x1="72.5" y1="122.5" x2="123.25" y2="111.25" stroke-width="1"/><line x1="127.5" y1="122.5" x2="76.75" y2="111.25" stroke-width="1"/><line x1="76.75" y1="111.25" x2="119" y2="100" stroke-width="1"/><line x1="123.25" y1="111.25" x2="81" y2="100" stroke-width="1"/><line x1="81" y1="100" x2="116.5" y2="88.75" stroke-width="1"/><line x1="119" y1="100" x2="83.5" y2="88.75" stroke-width="1"/><line x1="83.5" y1="88.75" x2="114" y2="77.5" stroke-width="1"/><line x1="116.5" y1="88.75" x2="86" y2="77.5" stroke-width="1"/><line x1="86" y1="77.5" x2="111.5" y2="66.25" stroke-width="1"/><line x1="114" y1="77.5" x2="88.5" y2="66.25" stroke-width="1"/><line x1="88.5" y1="66.25" x2="109" y2="55" stroke-width="1"/><line x1="111.5" y1="66.25" x2="91" y2="55" stroke-width="1"/><line x1="91" y1="55" x2="106.75" y2="45.75" stroke-width="1"/><line x1="109" y1="55" x2="93.25" y2="45.75" stroke-width="1"/><line x1="93.25" y1="45.75" x2="104.5" y2="36.5" stroke-width="1"/><line x1="106.75" y1="45.75" x2="95.5" y2="36.5" stroke-width="1"/><line x1="95.5" y1="36.5" x2="102.25" y2="27.25" stroke-width="1"/><line x1="104.5" y1="36.5" x2="97.75" y2="27.25" stroke-width="1"/><line x1="97.75" y1="27.25" x2="100" y2="18" stroke-width="1"/><line x1="102.25" y1="27.25" x2="100" y2="18" stroke-width="1"/>
    <path d="M70 188 q30 -45 60 0"/>
    <path d="M20 195 h160"/>
    <path d="M10 195 q15 -35 45 -25 q10 -20 35 -10 q5 -15 -20 -25" stroke-width="1.5"/>
    <path d="M190 195 q-15 -35 -45 -25 q-10 -20 -35 -10 q-5 -15 20 -25" stroke-width="1.5"/>
    <path d="M150 35 q14 -7 26 0 q3 -7 13 -2" stroke-width="1.5"/>
    <path d="M155 31 q20 -2 30 3" stroke-width="0.6"/>
    <path d="M30 50 q5 -4 10 0 M45 62 q5 -4 10 0" stroke-width="1.5"/>
  </g></svg>