<svg xmlns="http://www.w3.org/2000/svg" viewBox="0 0 200 200" width="200" height="200"><g fill="none" stroke="#1a1a1a" stroke-width="2.5" stroke-linecap="round" stroke-linejoin="round">
    <path d="M30 100 q30 -60 70 -20 q20 20 40 -10 q15 -25 30 10 q-30 10 -10 40 q20 30 -20 40 q-40 10 -50 -30 q-10 -30 -60 -30Z"/>
    <path d="M45 100 q20 -35 50 -15 q12 12 25 -6" stroke-width="1.2"/>
    <path d="M115 95 q15 10 5 28 q-12 18 -32 8" stroke-width="1.2"/>
    <path d="M150 75 q15 8 5 22" stroke-width="1.2"/>
    <circle cx="40" cy="98" r="3" fill="#1a1a1a"/>
    <circle cx="158" cy="60" r="3" fill="#1a1a1a"/>
  </g></svg>