<svg xmlns="http://www.w3.org/2000/svg" viewBox="0 0 200 200" width="200" height="200"><g fill="none" stroke="#1a1a1a" stroke-width="2.5" stroke-linecap="round" stroke-linejoin="round">
    <path d="M15 110 Q15 100 30 100 H160 Q185 100 185 112 Q185 124 160 124 H30 Q15 124 15 110 Z"/>
    <path d="M80 100 L120 55 H135 L115 100 Z"/>
    <path d="M85 124 L120 165 H132 L112 124 Z"/>
    <path d="M160 100 L185 80 L188 100 Z"/>
    <path d="M160 124 L185 145 L188 124 Z"/>
    <path d="M165 100 Q175 95 178 100 L178 124 Q175 129 165 124 Z"/>
    <circle cx="35" cy="112" r="4"/><circle cx="49" cy="112" r="4"/><circle cx="63" cy="112" r="4"/><circle cx="77" cy="112" r="4"/><circle cx="91" cy="112" r="4"/><circle cx="105" cy="112" r="4"/><circle cx="119" cy="112" r="4"/><circle cx="133" cy="112" r="4"/><circle cx="147" cy="112" r="4"/>
    <line x1="30" y1="101" x2="30" y2="123" stroke-width="0.5"/><line x1="38" y1="101" x2="38" y2="123" stroke-width="0.5"/><line x1="46" y1="101" x2="46" y2="123" stroke-width="0.5"/><line x1="54" y1="101" x2="54" y2="123" stroke-width="0.5"/><line x1="62" y1="101" x2="62" y2="123" stroke-width="0.5"/><line x1="70" y1="101" x2="70" y2="123" stroke-width="0.5"/><line x1="78" y1="101" x2="78" y2="123" stroke-width="0.5"/><line x1="86" y1="101" x2="86" y2="123" stroke-width="0.5"/><line x1="94" y1="101" x2="94" y2="123" stroke-width="0.5"/><line x1="102" y1="101" x2="102" y2="123" stroke-width="0.5"/><line x1="110" y1="101" x2="110" y2="123" stroke-width="0.5"/><line x1="118" y1="101" x2="118" y2="123" stroke-width="0.5"/><line x1="126" y1="101" x2="126" y2="123" stroke-width="0.5"/><line x1="134" y1="101" x2="134" y2="123" stroke-width="0.5"/><line x1="142" y1="101" x2="142" y2="123" stroke-width="0.5"/><line x1="150" y1="101" x2="150" y2="123" stroke-width="0.5"/><line x1="158" y1="101" x2="158" y2="123" stroke-width="0.5"/>
    <path d="M15 112 H8 M185 112 q10 0 12 0" stroke-width="1.5"/>
    <line x1="0" y1="190" x2="200" y2="190" stroke-width="0.75"/><line x1="0" y1="194" x2="200" y2="194" stroke-width="0.75"/>
  </g></svg>