<svg xmlns="http://www.w3.org/2000/svg" viewBox="0 0 200 200" width="200" height="200"><rect width="200" height="200" fill="#ffffff"/><g fill="none" stroke="#1a1a1a" stroke-width="2.5" stroke-linecap="round" stroke-linejoin="round">
    <path d="M25 150 Q25 125 50 122 L65 95 Q80 85 120 85 Q150 85 165 105 L175 122 Q185 125 185 150 V165 H25 Z"/>
    <path d="M70 122 L80 98 Q95 92 118 92 Q140 92 155 110 L165 122 Z"/>
    <path d="M105 95 V122 M132 96 V122" stroke-width="1.5"/>
    <line x1="28" y1="130" x2="70" y2="130" stroke-width="0.75"/><line x1="28" y1="135" x2="70" y2="135" stroke-width="0.75"/><line x1="28" y1="140" x2="70" y2="140" stroke-width="0.75"/><line x1="28" y1="145" x2="70" y2="145" stroke-width="0.75"/><line x1="28" y1="150" x2="70" y2="150" stroke-width="0.75"/>
    <line x1="110" y1="130" x2="182" y2="130" stroke-width="0.75"/><line x1="110" y1="135" x2="182" y2="135" stroke-width="0.75"/><line x1="110" y1="140" x2="182" y2="140" stroke-width="0.75"/><line x1="110" y1="145" x2="182" y2="145" stroke-width="0.75"/><line x1="110" y1="150" x2="182" y2="150" stroke-width="0.75"/>
    <circle cx="60" cy="165" r="20"/><line x1="60" y1="165" x2="78" y2="165" stroke-width="1"/><line x1="60" y1="165" x2="72.72792206135786" y2="177.72792206135784" stroke-width="1"/><line x1="60" y1="165" x2="60" y2="183" stroke-width="1"/><line x1="60" y1="165" x2="47.27207793864214" y2="177.72792206135784" stroke-width="1"/><line x1="60" y1="165" x2="42" y2="165" stroke-width="1"/><line x1="60" y1="165" x2="47.27207793864214" y2="152.27207793864216" stroke-width="1"/><line x1="60" y1="165" x2="60" y2="147" stroke-width="1"/><line x1="60" y1="165" x2="72.72792206135784" y2="152.27207793864216" stroke-width="1"/><circle cx="60" cy="165" r="6"/><circle cx="150" cy="165" r="20"/><line x1="150" y1="165" x2="168" y2="165" stroke-width="1"/><line x1="150" y1="165" x2="162.72792206135784" y2="177.72792206135784" stroke-width="1"/><line x1="150" y1="165" x2="150" y2="183" stroke-width="1"/><line x1="150" y1="165" x2="137.27207793864216" y2="177.72792206135784" stroke-width="1"/><line x1="150" y1="165" x2="132" y2="165" stroke-width="1"/><line x1="150" y1="165" x2="137.27207793864216" y2="152.27207793864216" stroke-width="1"/><line x1="150" y1="165" x2="150" y2="147" stroke-width="1"/><line x1="150" y1="165" x2="162.72792206135784" y2="152.27207793864216" stroke-width="1"/><circle cx="150" cy="165" r="6"/>
    <circle cx="35" cy="135" r="5"/>
    <path d="M15 165 H195" stroke-width="1.5"/>
  </g></svg>