<svg xmlns="http://www.w3.org/2000/svg" viewBox="0 0 200 200" width="200" height="200"><rect width="200" height="200" fill="#ffffff"/><g fill="none" stroke="#1a1a1a" stroke-width="2.5" stroke-linecap="round" stroke-linejoin="round">
    <path d="M55 90 H160 Q175 90 175 105 V150 H40 V105 Q40 90 55 90 Z"/>
    <path d="M55 90 V70 H100 V90"/>
    <path d="M65 70 V55 H80 V70" stroke-width="1.5"/>
    <circle cx="75" cy="65" r="2" fill="#1a1a1a"/><circle cx="100" cy="65" r="2" fill="#1a1a1a"/><circle cx="125" cy="65" r="2" fill="#1a1a1a"/><circle cx="150" cy="65" r="2" fill="#1a1a1a"/>
    <path d="M100 90 H160 V120 H100 Z" stroke-width="1.5"/>
    <line x1="110" y1="90" x2="110" y2="120" stroke-width="0.75"/><line x1="123.33333333333333" y1="90" x2="123.33333333333333" y2="120" stroke-width="0.75"/><line x1="136.66666666666666" y1="90" x2="136.66666666666666" y2="120" stroke-width="0.75"/><line x1="150" y1="90" x2="150" y2="120" stroke-width="0.75"/>
    <path d="M20 150 H180 V160 H20 Z"/>
    <circle cx="55" cy="170" r="18"/><line x1="55" y1="170" x2="71" y2="170" stroke-width="1"/><line x1="55" y1="170" x2="66.31370849898477" y2="181.31370849898477" stroke-width="1"/><line x1="55" y1="170" x2="55" y2="186" stroke-width="1"/><line x1="55" y1="170" x2="43.68629150101524" y2="181.31370849898477" stroke-width="1"/><line x1="55" y1="170" x2="39" y2="170" stroke-width="1"/><line x1="55" y1="170" x2="43.68629150101523" y2="158.68629150101523" stroke-width="1"/><line x1="55" y1="170" x2="55" y2="154" stroke-width="1"/><line x1="55" y1="170" x2="66.31370849898475" y2="158.68629150101523" stroke-width="1"/><circle cx="55" cy="170" r="5"/><circle cx="100" cy="170" r="18"/><line x1="100" y1="170" x2="116" y2="170" stroke-width="1"/><line x1="100" y1="170" x2="111.31370849898477" y2="181.31370849898477" stroke-width="1"/><line x1="100" y1="170" x2="100" y2="186" stroke-width="1"/><line x1="100" y1="170" x2="88.68629150101523" y2="181.31370849898477" stroke-width="1"/><line x1="100" y1="170" x2="84" y2="170" stroke-width="1"/><line x1="100" y1="170" x2="88.68629150101523" y2="158.68629150101523" stroke-width="1"/><line x1="100" y1="170" x2="100" y2="154" stroke-width="1"/><line x1="100" y1="170" x2="111.31370849898475" y2="158.68629150101523" stroke-width="1"/><circle cx="100" cy="170" r="5"/><circle cx="145" cy="170" r="18"/><line x1="145" y1="170" x2="161" y2="170" stroke-width="1"/><line x1="145" y1="170" x2="156.31370849898477" y2="181.31370849898477" stroke-width="1"/><line x1="145" y1="170" x2="145" y2="186" stroke-width="1"/><line x1="145" y1="170" x2="133.68629150101523" y2="181.31370849898477" stroke-width="1"/><line x1="145" y1="170" x2="129" y2="170" stroke-width="1"/><line x1="145" y1="170" x2="133.68629150101523" y2="158.68629150101523" stroke-width="1"/><line x1="145" y1="170" x2="145" y2="154" stroke-width="1"/><line x1="145" y1="170" x2="156.31370849898477" y2="158.68629150101523" stroke-width="1"/><circle cx="145" cy="170" r="5"/>
    <path d="M20 160 Q15 150 25 145 L40 150" stroke-width="1.5"/>
    <line x1="0" y1="192" x2="200" y2="192" stroke-width="0.75"/><line x1="0" y1="196" x2="200" y2="196" stroke-width="0.75"/>
  </g></svg>