<svg xmlns="http://www.w3.org/2000/svg" viewBox="0 0 200 200" width="200" height="200"><rect width="200" height="200" fill="#ffffff"/><g fill="none" stroke="#1a1a1a" stroke-width="2.5" stroke-linecap="round" stroke-linejoin="round">
    <circle cx="50" cy="160" r="28"/><line x1="50" y1="160" x2="75" y2="160" stroke-width="0.75"/><line x1="50" y1="160" x2="70.22542485937369" y2="174.69463130731182" stroke-width="0.75"/><line x1="50" y1="160" x2="57.72542485937369" y2="183.77641290737884" stroke-width="0.75"/><line x1="50" y1="160" x2="42.27457514062632" y2="183.77641290737884" stroke-width="0.75"/><line x1="50" y1="160" x2="29.774575140626318" y2="174.69463130731182" stroke-width="0.75"/><line x1="50" y1="160" x2="25" y2="160" stroke-width="0.75"/><line x1="50" y1="160" x2="29.774575140626315" y2="145.30536869268818" stroke-width="0.75"/><line x1="50" y1="160" x2="42.27457514062631" y2="136.22358709262116" stroke-width="0.75"/><line x1="50" y1="160" x2="57.72542485937368" y2="136.22358709262116" stroke-width="0.75"/><line x1="50" y1="160" x2="70.22542485937367" y2="145.30536869268818" stroke-width="0.75"/><circle cx="50" cy="160" r="7"/><circle cx="150" cy="160" r="28"/><line x1="150" y1="160" x2="175" y2="160" stroke-width="0.75"/><line x1="150" y1="160" x2="170.22542485937367" y2="174.69463130731182" stroke-width="0.75"/><line x1="150" y1="160" x2="157.72542485937367" y2="183.77641290737884" stroke-width="0.75"/><line x1="150" y1="160" x2="142.27457514062633" y2="183.77641290737884" stroke-width="0.75"/><line x1="150" y1="160" x2="129.77457514062633" y2="174.69463130731182" stroke-width="0.75"/><line x1="150" y1="160" x2="125" y2="160" stroke-width="0.75"/><line x1="150" y1="160" x2="129.77457514062633" y2="145.30536869268818" stroke-width="0.75"/><line x1="150" y1="160" x2="142.27457514062633" y2="136.22358709262116" stroke-width="0.75"/><line x1="150" y1="160" x2="157.72542485937367" y2="136.22358709262116" stroke-width="0.75"/><line x1="150" y1="160" x2="170.22542485937367" y2="145.30536869268818" stroke-width="0.75"/><circle cx="150" cy="160" r="7"/>
    <path d="M70 140 H120 V165 H70 Z" stroke-width="1.5"/>
    <line x1="75" y1="140" x2="75" y2="165" stroke-width="0.6"/><line x1="81.66666666666667" y1="140" x2="81.66666666666667" y2="165" stroke-width="0.6"/><line x1="88.33333333333333" y1="140" x2="88.33333333333333" y2="165" stroke-width="0.6"/><line x1="95" y1="140" x2="95" y2="165" stroke-width="0.6"/><line x1="101.66666666666667" y1="140" x2="101.66666666666667" y2="165" stroke-width="0.6"/><line x1="108.33333333333334" y1="140" x2="108.33333333333334" y2="165" stroke-width="0.6"/><line x1="115" y1="140" x2="115" y2="165" stroke-width="0.6"/>
    <path d="M50 160 L75 145 M120 152 L150 160" stroke-width="1.5"/>
    <path d="M75 145 L95 105 H118 L122 140" stroke-width="1.5"/>
    <path d="M95 105 Q110 95 128 98" stroke-width="1.5"/>
    <path d="M128 98 L140 78 M140 78 L155 76 M140 78 L132 68" stroke-width="1.5"/>
    <circle cx="100" cy="100" r="4" stroke-width="1.5"/>
    <path d="M80 100 Q65 96 60 105 Q75 112 88 106 Z"/>
    <line x1="0" y1="192" x2="200" y2="192" stroke-width="0.75"/><line x1="0" y1="196" x2="200" y2="196" stroke-width="0.75"/>
  </g></svg>